<?xml version="1.0" encoding="UTF-8" standalone="no"?>
<!-- Created with Inkscape (http://www.inkscape.org/) -->

<svg
   xmlns:dc="http://purl.org/dc/elements/1.1/"
   xmlns:cc="http://creativecommons.org/ns#"
   xmlns:rdf="http://www.w3.org/1999/02/22-rdf-syntax-ns#"
   xmlns:svg="http://www.w3.org/2000/svg"
   xmlns="http://www.w3.org/2000/svg"
   xmlns:sodipodi="http://sodipodi.sourceforge.net/DTD/sodipodi-0.dtd"
   xmlns:inkscape="http://www.inkscape.org/namespaces/inkscape"
   width="16"
   height="16"
   id="svg17117"
   version="1.1"
   inkscape:version="0.91 r13725"
   sodipodi:docname="completion_control.svg"
   inkscape:export-filename="D:\saisie_carhab\resources\img\completion_control_gde.png"
   inkscape:export-xdpi="1456.875"
   inkscape:export-ydpi="1456.875">
  <defs
     id="defs17119">
    <marker
       inkscape:stockid="Arrow2Mend"
       orient="auto"
       refY="0"
       refX="0"
       id="Arrow2Mend"
       style="overflow:visible">
      <path
         id="path17872"
         style="font-size:12px;fill-rule:evenodd;stroke-width:0.625;stroke-linejoin:round"
         d="M 8.7185878,4.0337352 -2.2072895,0.01601326 8.7185884,-4.0017078 c -1.7454984,2.3720609 -1.7354408,5.6174519 -6e-7,8.035443 z"
         transform="scale(-0.6,-0.6)"
         inkscape:connector-curvature="0" />
    </marker>
    <marker
       inkscape:stockid="Arrow2Lend"
       orient="auto"
       refY="0"
       refX="0"
       id="Arrow2Lend"
       style="overflow:visible">
      <path
         id="path17866"
         style="font-size:12px;fill-rule:evenodd;stroke-width:0.625;stroke-linejoin:round"
         d="M 8.7185878,4.0337352 -2.2072895,0.01601326 8.7185884,-4.0017078 c -1.7454984,2.3720609 -1.7354408,5.6174519 -6e-7,8.035443 z"
         transform="matrix(-1.1,0,0,-1.1,-1.1,0)"
         inkscape:connector-curvature="0" />
    </marker>
  </defs>
  <sodipodi:namedview
     id="base"
     pagecolor="#ffffff"
     bordercolor="#666666"
     borderopacity="1.0"
     inkscape:pageopacity="0.0"
     inkscape:pageshadow="2"
     inkscape:zoom="11.197802"
     inkscape:cx="-11.315633"
     inkscape:cy="8.1829196"
     inkscape:current-layer="layer1"
     showgrid="true"
     inkscape:grid-bbox="true"
     inkscape:document-units="px"
     inkscape:window-width="1280"
     inkscape:window-height="1002"
     inkscape:window-x="1672"
     inkscape:window-y="-8"
     inkscape:window-maximized="1"
     borderlayer="true" />
  <metadata
     id="metadata17122">
    <rdf:RDF>
      <cc:Work
         rdf:about="">
        <dc:format>image/svg+xml</dc:format>
        <dc:type
           rdf:resource="http://purl.org/dc/dcmitype/StillImage" />
        <dc:title />
      </cc:Work>
    </rdf:RDF>
  </metadata>
  <g
     id="layer1"
     inkscape:label="Layer 1"
     inkscape:groupmode="layer"
     transform="translate(0,-16)">
    <path
       sodipodi:type="arc"
       style="fill:#0dea3c;fill-opacity:1;stroke:#000000;stroke-width:0.17139475;stroke-linecap:butt;stroke-linejoin:bevel;stroke-miterlimit:4;stroke-opacity:1;stroke-dasharray:none;stroke-dashoffset:0"
       id="path3502-4-1"
       sodipodi:cx="-160.01431"
       sodipodi:cy="-54.258698"
       sodipodi:rx="1.8944077"
       sodipodi:ry="1.8944077"
       d="m -158.1199,-54.258698 a 1.8944077,1.8944077 0 0 1 -1.89441,1.894408 1.8944077,1.8944077 0 0 1 -1.89441,-1.894408 1.8944077,1.8944077 0 0 1 1.89441,-1.894407 1.8944077,1.8944077 0 0 1 1.89441,1.894407 z"
       transform="matrix(-0.02770375,-1.5916018,-1.5916018,0.02770375,-87.51094,-228.77121)" />
    <path
       sodipodi:type="arc"
       style="fill:#f7a211;fill-opacity:1;stroke:#000000;stroke-width:0.17139475;stroke-linecap:butt;stroke-linejoin:bevel;stroke-miterlimit:4;stroke-opacity:1;stroke-dasharray:none;stroke-dashoffset:0"
       id="path3502-4-1-1-7"
       sodipodi:cx="-160.01431"
       sodipodi:cy="-54.258698"
       sodipodi:rx="1.8944077"
       sodipodi:ry="1.8944077"
       d="m -158.1199,-54.258698 a 1.8944077,1.8944077 0 0 1 -1.89441,1.894408 1.8944077,1.8944077 0 0 1 -1.89441,-1.894408 1.8944077,1.8944077 0 0 1 1.89441,-1.894407 1.8944077,1.8944077 0 0 1 1.89441,1.894407 z"
       transform="matrix(-0.02770375,-1.5916018,-1.5916018,0.02770375,-82.568198,-228.77121)" />
    <path
       sodipodi:type="arc"
       style="fill:#f80f11;fill-opacity:1;stroke:#000000;stroke-width:0.17139475;stroke-linecap:butt;stroke-linejoin:bevel;stroke-miterlimit:4;stroke-opacity:1;stroke-dasharray:none;stroke-dashoffset:0"
       id="path3502-4-1-1"
       sodipodi:cx="-160.01431"
       sodipodi:cy="-54.258698"
       sodipodi:rx="1.8944077"
       sodipodi:ry="1.8944077"
       d="m -158.1199,-54.258698 a 1.8944077,1.8944077 0 0 1 -1.89441,1.894408 1.8944077,1.8944077 0 0 1 -1.89441,-1.894408 1.8944077,1.8944077 0 0 1 1.89441,-1.894407 1.8944077,1.8944077 0 0 1 1.89441,1.894407 z"
       transform="matrix(-0.02770375,-1.5916018,-1.5916018,0.02770375,-78.077632,-228.77121)" />
  </g>
</svg>
