<?xml version="1.0" encoding="UTF-8" standalone="no"?>
<svg
   xmlns:dc="http://purl.org/dc/elements/1.1/"
   xmlns:cc="http://creativecommons.org/ns#"
   xmlns:rdf="http://www.w3.org/1999/02/22-rdf-syntax-ns#"
   xmlns:svg="http://www.w3.org/2000/svg"
   xmlns="http://www.w3.org/2000/svg"
   xmlns:sodipodi="http://sodipodi.sourceforge.net/DTD/sodipodi-0.dtd"
   xmlns:inkscape="http://www.inkscape.org/namespaces/inkscape"
   height="48"
   preserveAspectRatio="xMidYMid meet"
   version="1.0"
   viewBox="0 0 38.4 38.4"
   width="48"
   id="svg2"
   inkscape:version="0.91 r13725"
   sodipodi:docname="eraser.svg"
   inkscape:export-filename="D:\saisie_carhab\resources\img\eraser.png"
   inkscape:export-xdpi="60"
   inkscape:export-ydpi="60">
  <metadata
     id="metadata12">
    <rdf:RDF>
      <cc:Work
         rdf:about="">
        <dc:format>image/svg+xml</dc:format>
        <dc:type
           rdf:resource="http://purl.org/dc/dcmitype/StillImage" />
        <dc:title></dc:title>
      </cc:Work>
    </rdf:RDF>
  </metadata>
  <defs
     id="defs10" />
  <sodipodi:namedview
     pagecolor="#ffffff"
     bordercolor="#666666"
     borderopacity="1"
     objecttolerance="10"
     gridtolerance="10"
     guidetolerance="10"
     inkscape:pageopacity="0"
     inkscape:pageshadow="2"
     inkscape:window-width="1680"
     inkscape:window-height="988"
     id="namedview8"
     showgrid="false"
     units="px"
     inkscape:zoom="2.95"
     inkscape:cx="-22.61381"
     inkscape:cy="30.200359"
     inkscape:window-x="-8"
     inkscape:window-y="-8"
     inkscape:window-maximized="1"
     inkscape:current-layer="svg2" />
  <path
     style="fill:#1e720a;fill-opacity:0.40392157;stroke:none"
     inkscape:connector-curvature="0"
     id="path6"
     d="M 23.370208,0.8313409 C 22.669836,1.2770347 12.816849,11.034513 9.3786512,14.695557 7.8187281,16.366905 6.2588048,18.149673 5.9245356,18.64312 4.873975,20.218959 0.99008419,28.273258 0.49663926,29.912769 c -0.1273411,0.429775 0.42977459,1.002808 1.70318144,1.750934 3.5018687,2.053368 11.4765783,4.823029 12.8614083,4.472842 0.461611,-0.111421 12.272458,-11.572086 15.662904,-15.169459 2.276214,-2.435392 2.43539,-2.658237 3.613293,-4.854863 2.03745,-3.820221 4.106737,-8.5318267 4.106737,-9.3277048 0,-1.0346438 -2.435392,-2.514978 -7.258419,-4.4091708 -4.329583,-1.7031811 -6.79681,-2.1966271 -7.815536,-1.5440065 z m 4.265914,1.8623575 c 2.005615,0.6367038 6.876397,2.4831445 7.831451,2.9606719 0.684456,0.3342678 0.970974,0.8913843 0.764045,1.4484994 -0.07958,0.2069276 -1.400748,1.4644187 -2.928837,2.7855787 -1.528088,1.3211576 -3.390445,2.9925056 -4.138572,3.6928776 -1.623593,1.528089 -2.196626,1.814605 -3.215352,1.591759 -2.132956,-0.477528 -9.08894,-3.072093 -9.852983,-3.676961 -0.286518,-0.222847 -0.413859,-0.477528 -0.413859,-0.811797 0,-0.413857 0.302434,-0.8117976 1.957864,-2.4672266 2.069285,-2.117038 4.647934,-4.4569229 6.000928,-5.4756483 1.06648,-0.7958801 1.591759,-0.8117968 3.995315,-0.047746 z m 8.261227,6.98782 c 0,0.8595506 -3.04026,7.1947496 -3.979397,8.2771426 -0.366104,0.429776 -1.941946,2.148875 -3.470033,3.788387 -3.135764,3.374528 -3.788386,3.867972 -4.154491,3.167599 -0.19101,-0.366104 0.779962,-3.358609 1.766853,-5.443814 0.620786,-1.289324 0.827715,-1.528088 4.647935,-5.396061 4.297747,-4.3295836 5.189133,-5.0936266 5.189133,-4.3932536 z M 25.710093,17.242371 c -0.429773,0.795879 -1.957861,2.387638 -3.804301,3.979396 -1.114231,0.955055 -2.117038,1.926029 -2.228463,2.18071 -0.127331,0.238763 -0.477527,1.225654 -0.811797,2.196626 -1.289325,3.788386 -3.390446,9.057106 -3.75655,9.470962 -0.636703,0.684457 -0.397939,-0.413856 1.066479,-4.854862 0.859548,-2.626401 1.655429,-5.220968 1.750934,-5.762166 0.238764,-1.241573 0.01586,-1.655429 -1.082396,-2.021534 -0.413856,-0.143257 -2.642319,-1.018726 -4.934452,-1.957861 -3.2949397,-1.337078 -4.1863244,-1.766854 -4.1863244,-1.989699 0,-0.33427 0.1273411,-0.350186 0.7481266,-0.111421 1.8782748,0.73221 9.9007388,3.167598 10.4101008,3.167598 0.875468,0 1.130149,-0.159167 4.122654,-2.530894 1.4485,-1.146067 2.674154,-2.085205 2.753743,-2.085205 0.06367,0 0.04775,0.143259 -0.04775,0.318353 z" />
</svg>
