<?xml version="1.0" encoding="UTF-8" standalone="no"?>
<svg
   xmlns:dc="http://purl.org/dc/elements/1.1/"
   xmlns:cc="http://creativecommons.org/ns#"
   xmlns:rdf="http://www.w3.org/1999/02/22-rdf-syntax-ns#"
   xmlns:svg="http://www.w3.org/2000/svg"
   xmlns="http://www.w3.org/2000/svg"
   xmlns:xlink="http://www.w3.org/1999/xlink"
   xmlns:sodipodi="http://sodipodi.sourceforge.net/DTD/sodipodi-0.dtd"
   xmlns:inkscape="http://www.inkscape.org/namespaces/inkscape"
   height="16"
   version="1.1"
   viewBox="0 0 16 16"
   width="16"
   id="svg2"
   inkscape:version="0.91 r13725"
   sodipodi:docname="export_fse.svg"
   inkscape:export-filename="D:\saisie_carhab\resources\img\export_fse.png"
   inkscape:export-xdpi="202.5"
   inkscape:export-ydpi="202.5">
  <metadata
     id="metadata16">
    <rdf:RDF>
      <cc:Work
         rdf:about="">
        <dc:format>image/svg+xml</dc:format>
        <dc:type
           rdf:resource="http://purl.org/dc/dcmitype/StillImage" />
        <dc:title></dc:title>
      </cc:Work>
    </rdf:RDF>
  </metadata>
  <sodipodi:namedview
     pagecolor="#ffffff"
     bordercolor="#666666"
     borderopacity="1"
     objecttolerance="10"
     gridtolerance="10"
     guidetolerance="10"
     inkscape:pageopacity="0"
     inkscape:pageshadow="2"
     inkscape:window-width="1280"
     inkscape:window-height="1002"
     id="namedview14"
     showgrid="false"
     inkscape:zoom="8.8167377"
     inkscape:cx="24.62979"
     inkscape:cy="20.153985"
     inkscape:window-x="1672"
     inkscape:window-y="-8"
     inkscape:window-maximized="1"
     inkscape:current-layer="svg2" />
  <desc
     id="desc6" />
  <defs
     id="defs8">
    <marker
       inkscape:stockid="TriangleOutL"
       orient="auto"
       refY="0.0"
       refX="0.0"
       id="TriangleOutL"
       style="overflow:visible"
       inkscape:isstock="true">
      <path
         id="path4637"
         d="M 5.77,0.0 L -2.88,5.0 L -2.88,-5.0 L 5.77,0.0 z "
         style="fill-rule:evenodd;stroke:#000000;stroke-width:1pt;stroke-opacity:1;fill:#000000;fill-opacity:1"
         transform="scale(0.8)" />
    </marker>
    <marker
       style="overflow:visible"
       id="Arrow2Lend"
       refX="0"
       refY="0"
       orient="auto"
       inkscape:stockid="Arrow2Lend">
      <path
         transform="matrix(-1.1,0,0,-1.1,-1.1,0)"
         d="M 8.7185878,4.0337352 -2.2072895,0.01601326 8.7185884,-4.0017078 c -1.7454984,2.3720609 -1.7354408,5.6174519 -6e-7,8.035443 z"
         style="font-size:12px;fill-rule:evenodd;stroke-width:0.625;stroke-linejoin:round"
         id="path17866"
         inkscape:connector-curvature="0" />
    </marker>
    <marker
       style="overflow:visible"
       id="Arrow2Mend"
       refX="0"
       refY="0"
       orient="auto"
       inkscape:stockid="Arrow2Mend">
      <path
         transform="scale(-0.6,-0.6)"
         d="M 8.7185878,4.0337352 -2.2072895,0.01601326 8.7185884,-4.0017078 c -1.7454984,2.3720609 -1.7354408,5.6174519 -6e-7,8.035443 z"
         style="font-size:12px;fill-rule:evenodd;stroke-width:0.625;stroke-linejoin:round"
         id="path17872"
         inkscape:connector-curvature="0" />
    </marker>
    <linearGradient
       y2="-112"
       x2="-80"
       y1="123"
       x1="105"
       gradientTransform="translate(20.006091,922.65507)"
       gradientUnits="userSpaceOnUse"
       id="linearGradient3376"
       xlink:href="#linearGradient3600"
       inkscape:collect="always" />
    <linearGradient
       y2="957.36218"
       x2="80"
       y1="944.36218"
       x1="93"
       gradientTransform="translate(19.646256,-0.86872002)"
       gradientUnits="userSpaceOnUse"
       id="linearGradient3373"
       xlink:href="#linearGradient3608"
       inkscape:collect="always" />
    <linearGradient
       y2="957.36218"
       x2="80"
       y1="944.36218"
       x1="93"
       gradientTransform="translate(28.756537,-135.969)"
       gradientUnits="userSpaceOnUse"
       id="linearGradient3142"
       xlink:href="#linearGradient3608"
       inkscape:collect="always" />
    <linearGradient
       y2="-112"
       x2="-80"
       y1="123"
       x1="105"
       gradientTransform="translate(28.491372,788.30479)"
       gradientUnits="userSpaceOnUse"
       id="linearGradient3140"
       xlink:href="#linearGradient3600"
       inkscape:collect="always" />
    <linearGradient
       y2="957.36218"
       x2="80"
       y1="944.36218"
       x1="93"
       gradientTransform="translate(28.756537,-135.969)"
       gradientUnits="userSpaceOnUse"
       id="linearGradient3134"
       xlink:href="#linearGradient3608"
       inkscape:collect="always" />
    <linearGradient
       y2="-112"
       x2="-80"
       y1="123"
       x1="105"
       gradientTransform="translate(28.491372,788.30479)"
       gradientUnits="userSpaceOnUse"
       id="linearGradient3132"
       xlink:href="#linearGradient3600"
       inkscape:collect="always" />
    <linearGradient
       y2="957.36218"
       x2="80"
       y1="944.36218"
       x1="93"
       gradientTransform="translate(-156.7706,-4.5355338)"
       gradientUnits="userSpaceOnUse"
       id="linearGradient3129"
       xlink:href="#linearGradient3608"
       inkscape:collect="always" />
    <linearGradient
       y2="957.36218"
       x2="80"
       y1="944.36218"
       x1="93"
       gradientTransform="translate(14.727922,-2)"
       gradientUnits="userSpaceOnUse"
       id="linearGradient4042"
       xlink:href="#linearGradient3608"
       inkscape:collect="always" />
    <linearGradient
       y2="-112"
       x2="-80"
       y1="123"
       x1="105"
       gradientTransform="translate(14.727922,922.36218)"
       gradientUnits="userSpaceOnUse"
       id="linearGradient4040"
       xlink:href="#linearGradient3600"
       inkscape:collect="always" />
    <marker
       style="overflow:visible"
       id="Arrow2Lend-7"
       refX="0"
       refY="0"
       orient="auto"
       inkscape:stockid="Arrow2Lend">
      <path
         transform="matrix(-1.1,0,0,-1.1,-1.1,0)"
         d="M 8.7185878,4.0337352 -2.2072895,0.01601326 8.7185884,-4.0017078 c -1.7454984,2.3720609 -1.7354408,5.6174519 -6e-7,8.035443 z"
         style="font-size:12px;fill-rule:evenodd;stroke-width:0.625;stroke-linejoin:round"
         id="path17866-4"
         inkscape:connector-curvature="0" />
    </marker>
    <marker
       style="overflow:visible"
       id="Arrow2Mend-0"
       refX="0"
       refY="0"
       orient="auto"
       inkscape:stockid="Arrow2Mend">
      <path
         transform="scale(-0.6,-0.6)"
         d="M 8.7185878,4.0337352 -2.2072895,0.01601326 8.7185884,-4.0017078 c -1.7454984,2.3720609 -1.7354408,5.6174519 -6e-7,8.035443 z"
         style="font-size:12px;fill-rule:evenodd;stroke-width:0.625;stroke-linejoin:round"
         id="path17872-9"
         inkscape:connector-curvature="0" />
    </marker>
    <marker
       style="overflow:visible"
       id="Arrow2Lend-6"
       refX="0"
       refY="0"
       orient="auto"
       inkscape:stockid="Arrow2Lend">
      <path
         transform="matrix(-1.1,0,0,-1.1,-1.1,0)"
         d="M 8.7185878,4.0337352 -2.2072895,0.01601326 8.7185884,-4.0017078 c -1.7454984,2.3720609 -1.7354408,5.6174519 -6e-7,8.035443 z"
         style="font-size:12px;fill-rule:evenodd;stroke-width:0.625;stroke-linejoin:round"
         id="path17866-8"
         inkscape:connector-curvature="0" />
    </marker>
    <marker
       style="overflow:visible"
       id="Arrow2Mend-2"
       refX="0"
       refY="0"
       orient="auto"
       inkscape:stockid="Arrow2Mend">
      <path
         transform="scale(-0.6,-0.6)"
         d="M 8.7185878,4.0337352 -2.2072895,0.01601326 8.7185884,-4.0017078 c -1.7454984,2.3720609 -1.7354408,5.6174519 -6e-7,8.035443 z"
         style="font-size:12px;fill-rule:evenodd;stroke-width:0.625;stroke-linejoin:round"
         id="path17872-1"
         inkscape:connector-curvature="0" />
    </marker>
    <linearGradient
       gradientTransform="translate(2,-2)"
       gradientUnits="userSpaceOnUse"
       y2="957.36218"
       x2="80"
       y1="944.36218"
       x1="93"
       id="linearGradient3614"
       xlink:href="#linearGradient3608"
       inkscape:collect="always" />
    <linearGradient
       gradientTransform="translate(2,922.36218)"
       gradientUnits="userSpaceOnUse"
       y2="-112"
       x2="-80"
       y1="123"
       x1="105"
       id="linearGradient3606"
       xlink:href="#linearGradient3600"
       inkscape:collect="always" />
    <linearGradient
       id="linearGradient3600"
       inkscape:collect="always">
      <stop
         id="stop3602"
         offset="0"
         style="stop-color:#e6e6e6;stop-opacity:1;" />
      <stop
         id="stop3604"
         offset="1"
         style="stop-color:#f9f9f9;stop-opacity:1" />
    </linearGradient>
    <linearGradient
       id="linearGradient3608"
       inkscape:collect="always">
      <stop
         id="stop3610"
         offset="0"
         style="stop-color:#cccccc;stop-opacity:1" />
      <stop
         style="stop-color:#e6e6e6;stop-opacity:1"
         offset="0.22007781"
         id="stop3616" />
      <stop
         id="stop3618"
         offset="0.46932641"
         style="stop-color:#ffffff;stop-opacity:1" />
      <stop
         id="stop3612"
         offset="1"
         style="stop-color:#e6e6e6;stop-opacity:1" />
    </linearGradient>
    <marker
       style="overflow:visible;"
       id="Arrow2Mend-07"
       refX="0.0"
       refY="0.0"
       orient="auto"
       inkscape:stockid="Arrow2Mend">
      <path
         transform="scale(0.6) rotate(180) translate(0,0)"
         d="M 8.7185878,4.0337352 L -2.2072895,0.016013256 L 8.7185884,-4.0017078 C 6.9730900,-1.6296469 6.9831476,1.6157441 8.7185878,4.0337352 z "
         style="font-size:12.0;fill-rule:evenodd;stroke-width:0.62500000;stroke-linejoin:round;"
         id="path17872-6" />
    </marker>
    <marker
       style="overflow:visible;"
       id="Arrow2Lend-8"
       refX="0.0"
       refY="0.0"
       orient="auto"
       inkscape:stockid="Arrow2Lend">
      <path
         transform="scale(1.1) rotate(180) translate(1,0)"
         d="M 8.7185878,4.0337352 L -2.2072895,0.016013256 L 8.7185884,-4.0017078 C 6.9730900,-1.6296469 6.9831476,1.6157441 8.7185878,4.0337352 z "
         style="font-size:12.0;fill-rule:evenodd;stroke-width:0.62500000;stroke-linejoin:round;"
         id="path17866-0" />
    </marker>
  </defs>
  <path
     sodipodi:type="arc"
     style="opacity:0.29069764;fill:none;stroke:none"
     id="path4098"
     sodipodi:cx="-7.8596492"
     sodipodi:cy="-30.716791"
     sodipodi:rx="6.5764413"
     sodipodi:ry="45.072681"
     d="m -1.2832079,-30.716791 a 6.5764413,45.072681 0 1 1 -13.1528821,0 6.5764413,45.072681 0 1 1 13.1528821,0 z"
     transform="translate(0,-16)" />
  <path
     id="document-file-gif"
     d="m 10.160142,6.4333597 0,-1.5691318 0,0 -3.1382626,-3.6613066 -5.7520395,0 c -0.57853542,0 -1.04753117,0.4698699 -1.04753117,1.0499216 l 0,12.0223401 c 0,0.579857 0.46599325,1.049922 1.04473957,1.049922 l 7.8483536,0 c 0.5769943,0 1.0447401,-0.469804 1.0447401,-1.041272 l 0,-1.050903 4.180767,0 c 0.868587,0 1.572714,-0.702063 1.572714,-1.568496 l 0,-3.6625778 c 0,-0.866257 -0.698781,-1.5684965 -1.572714,-1.5684965 z m -0.5230444,6.7995703 0,1.049541 c 0,0.286862 -0.2341651,0.519591 -0.5230225,0.519591 l -7.8456993,0 c -0.28519061,0 -0.52302334,-0.233111 -0.52302334,-0.520668 l 0,-12.0347613 c 0,-0.2825458 0.23313898,-0.5206677 0.52073064,-0.5206677 l 5.2327516,0 0,2.6121232 c 0,0.5854765 0.4678615,1.0491836 1.0449966,1.0491836 l 2.0932663,0 0,1.0460879 -4.1807684,0 c -0.8685853,0 -1.5727137,0.702063 -1.5727137,1.5684965 l 0,3.6625778 c 0,0.866256 0.6987829,1.568496 1.5727137,1.568496 z M 7.0218794,1.9874865 l 0,2.3491032 c 0,0.2914066 0.2357094,0.5276382 0.5213378,0.5276382 l 1.9369424,0 z M 5.449903,6.9564035 c -0.576167,0 -1.0432437,0.4708315 -1.0432437,1.0419122 l 0,3.6696583 c 0,0.575432 0.4719662,1.041912 1.0432437,1.041912 l 8.897433,0 c 0.576168,0 1.043243,-0.470831 1.043243,-1.041912 l 0,-3.6696583 c 0,-0.5754326 -0.471965,-1.0419122 -1.043243,-1.0419122 z"
     inkscape:connector-curvature="0"
     style="fill:#448258;fill-opacity:1;fill-rule:evenodd;stroke:#448258;stroke-width:0.3;stroke-opacity:1;stroke-miterlimit:4;stroke-dasharray:none"
     sodipodi:nodetypes="ccccsssssscsssscsccsssssscssccsssccsccssscccsss" />
  <text
     xml:space="preserve"
     style="font-style:normal;font-weight:normal;font-size:6.05322695px;line-height:125%;font-family:Sans;letter-spacing:0px;word-spacing:0px;fill:#000000;fill-opacity:1;stroke:none;stroke-width:1px;stroke-linecap:butt;stroke-linejoin:miter;stroke-opacity:1"
     x="4.3479795"
     y="11.836279"
     id="text4330"
     sodipodi:linespacing="125%"><tspan
       sodipodi:role="line"
       id="tspan4332"
       x="4.3479795"
       y="11.836279">FSE</tspan></text>
  <g
     id="Icons with numbers"
     style="fill:none;fill-rule:evenodd;stroke:none;stroke-width:1"
     transform="matrix(0.44943734,0,0,0.44943734,8.9565036,-0.85852019)">
    <g
       transform="translate(-144,-96)"
       id="Group"
       style="fill:#000000">
      <path
         id="Shape"
         d="m 154,107 -10,0 0,-6 10,0 0,-3 6,6 -6,6 0,-3 0,0 z m 0,0"
         inkscape:connector-curvature="0" />
    </g>
  </g>
</svg>
