<?xml version="1.0" encoding="UTF-8" standalone="no"?>
<svg
   xmlns:dc="http://purl.org/dc/elements/1.1/"
   xmlns:cc="http://creativecommons.org/ns#"
   xmlns:rdf="http://www.w3.org/1999/02/22-rdf-syntax-ns#"
   xmlns:svg="http://www.w3.org/2000/svg"
   xmlns="http://www.w3.org/2000/svg"
   xmlns:sodipodi="http://sodipodi.sourceforge.net/DTD/sodipodi-0.dtd"
   xmlns:inkscape="http://www.inkscape.org/namespaces/inkscape"
   height="32"
   version="1.1"
   viewBox="0 0 32 32"
   width="32"
   id="svg2"
   inkscape:version="0.91 r13725"
   sodipodi:docname="form_uvc.svg"
   inkscape:export-filename="D:\saisie_carhab\resources\img\form_uvc.png"
   inkscape:export-xdpi="90"
   inkscape:export-ydpi="90">
  <metadata
     id="metadata16">
    <rdf:RDF>
      <cc:Work
         rdf:about="">
        <dc:format>image/svg+xml</dc:format>
        <dc:type
           rdf:resource="http://purl.org/dc/dcmitype/StillImage" />
      </cc:Work>
    </rdf:RDF>
  </metadata>
  <sodipodi:namedview
     pagecolor="#ffffff"
     bordercolor="#666666"
     borderopacity="1"
     objecttolerance="10"
     gridtolerance="10"
     guidetolerance="10"
     inkscape:pageopacity="0"
     inkscape:pageshadow="2"
     inkscape:window-width="1280"
     inkscape:window-height="1002"
     id="namedview14"
     showgrid="false"
     inkscape:zoom="5.6568543"
     inkscape:cx="-9.6548649"
     inkscape:cy="-6.9609314"
     inkscape:window-x="1672"
     inkscape:window-y="-8"
     inkscape:window-maximized="1"
     inkscape:current-layer="svg2" />
  <title
     id="title4" />
  <desc
     id="desc6" />
  <defs
     id="defs8">
    <marker
       style="overflow:visible;"
       id="Arrow2Lend"
       refX="0.0"
       refY="0.0"
       orient="auto"
       inkscape:stockid="Arrow2Lend">
      <path
         transform="scale(1.1) rotate(180) translate(1,0)"
         d="M 8.7185878,4.0337352 L -2.2072895,0.016013256 L 8.7185884,-4.0017078 C 6.9730900,-1.6296469 6.9831476,1.6157441 8.7185878,4.0337352 z "
         style="font-size:12.0;fill-rule:evenodd;stroke-width:0.62500000;stroke-linejoin:round;"
         id="path17866" />
    </marker>
    <marker
       style="overflow:visible;"
       id="Arrow2Mend"
       refX="0.0"
       refY="0.0"
       orient="auto"
       inkscape:stockid="Arrow2Mend">
      <path
         transform="scale(0.6) rotate(180) translate(0,0)"
         d="M 8.7185878,4.0337352 L -2.2072895,0.016013256 L 8.7185884,-4.0017078 C 6.9730900,-1.6296469 6.9831476,1.6157441 8.7185878,4.0337352 z "
         style="font-size:12.0;fill-rule:evenodd;stroke-width:0.62500000;stroke-linejoin:round;"
         id="path17872" />
    </marker>
  </defs>
  <path
     id="path3025-4-5"
     d="M 27.378474,0.15346235 H 4.8197037 c -2.6301469,0 -4.69926614,2.05344645 -4.69926614,4.66881245 V 27.254889 c 0,2.615366 2.06911924,4.713557 4.69926614,4.713557 H 27.378474 c 2.630147,0 4.723101,-2.098191 4.723101,-4.713557 V 4.8222748 c 0,-2.615366 -2.092954,-4.66881245 -4.723101,-4.66881245 z M 29.386196,27.254889 c 0,1.076915 -0.924738,1.953353 -2.007722,1.953353 H 4.8197037 c -1.082984,0 -1.9838865,-0.876438 -1.9838865,-1.953353 V 4.8222748 c 0,-1.0769154 0.9009025,-1.9086085 1.9838865,-1.9086085 H 27.378474 c 1.082984,0 2.007722,0.8316931 2.007722,1.9086085 V 27.254889 z"
     inkscape:connector-curvature="0"
     style="fill:#86b37b;fill-opacity:1" />
  <path
     id="path3027-0-2"
     d="M 23.824061,11.987392 H 13.695709 c -0.749093,0 -1.356417,0.519125 -1.356417,1.264103 0,0.744978 0.607179,1.264103 1.356417,1.264103 h 10.128352 c 0.749093,0 1.356418,-0.519125 1.356418,-1.264103 0,-0.744978 -0.607325,-1.264103 -1.356418,-1.264103 z"
     inkscape:connector-curvature="0"
     style="fill:#86b37b;fill-opacity:1" />
  <ellipse
     id="ellipse3029-9-7"
     ry="9.6029997"
     rx="9.3000002"
     cy="228.036"
     cx="198.892"
     sodipodi:cx="198.892"
     sodipodi:cy="228.036"
     sodipodi:rx="9.3000002"
     sodipodi:ry="9.6029997"
     d="m 208.192,228.036 c 0,5.30359 -4.16375,9.603 -9.3,9.603 -5.13625,0 -9.3,-4.29941 -9.3,-9.603 0,-5.30359 4.16375,-9.603 9.3,-9.603 5.13625,0 9.3,4.29941 9.3,9.603 z"
     style="fill:#86b37b;fill-opacity:1"
     transform="matrix(0.14585131,0,0,0.14045586,-20.351821,-18.772441)" />
  <path
     id="path3031-4-6"
     d="M 23.824061,17.184259 H 13.695709 c -0.749093,0 -1.356417,0.589493 -1.356417,1.334331 0,0.744837 0.607179,1.33433 1.356417,1.33433 h 10.128352 c 0.749093,0 1.356418,-0.589493 1.356418,-1.33433 0,-0.744838 -0.607325,-1.334331 -1.356418,-1.334331 z"
     inkscape:connector-curvature="0"
     style="fill:#86b37b;fill-opacity:1" />
  <ellipse
     id="ellipse3033-8-1"
     ry="9.6029997"
     rx="9.3000002"
     cy="265.80701"
     cx="198.892"
     sodipodi:cx="198.892"
     sodipodi:cy="265.80701"
     sodipodi:rx="9.3000002"
     sodipodi:ry="9.6029997"
     d="m 208.192,265.80701 c 0,5.30359 -4.16375,9.603 -9.3,9.603 -5.13625,0 -9.3,-4.29941 -9.3,-9.603 0,-5.30359 4.16375,-9.603 9.3,-9.603 5.13625,0 9.3,4.29941 9.3,9.603 z"
     style="fill:#86b37b;fill-opacity:1"
     transform="matrix(0.14585131,0,0,0.14045586,-20.351821,-18.772441)" />
  <path
     id="path3035-8-4"
     d="M 23.824061,22.521582 H 13.695709 c -0.749093,0 -1.356417,0.589493 -1.356417,1.334331 0,0.744837 0.607179,1.33433 1.356417,1.33433 h 10.128352 c 0.749093,0 1.356418,-0.589493 1.356418,-1.33433 0,-0.744838 -0.607325,-1.334331 -1.356418,-1.334331 z"
     inkscape:connector-curvature="0"
     style="fill:#86b37b;fill-opacity:1" />
  <ellipse
     id="ellipse3037-2-2"
     ry="9.6029997"
     rx="9.3000002"
     cy="303.57901"
     cx="198.892"
     sodipodi:cx="198.892"
     sodipodi:cy="303.57901"
     sodipodi:rx="9.3000002"
     sodipodi:ry="9.6029997"
     d="m 208.192,303.57901 c 0,5.30359 -4.16375,9.603 -9.3,9.603 -5.13625,0 -9.3,-4.29941 -9.3,-9.603 0,-5.30359 4.16375,-9.603 9.3,-9.603 5.13625,0 9.3,4.29941 9.3,9.603 z"
     style="fill:#86b37b;fill-opacity:1"
     transform="matrix(0.14585131,0,0,0.14045586,-20.351821,-18.772441)" />
  <text
     xml:space="preserve"
     style="font-style:normal;font-weight:normal;font-size:9.59560299px;line-height:125%;font-family:Sans;letter-spacing:0px;word-spacing:0px;fill:#000000;fill-opacity:1;stroke:#000000;stroke-width:0.7;stroke-linecap:butt;stroke-linejoin:miter;stroke-opacity:1;stroke-miterlimit:4;stroke-dasharray:none"
     x="7.7541809"
     y="10.139744"
     id="text3357"
     sodipodi:linespacing="125%"
     transform="scale(0.91940116,1.0876645)"><tspan
       sodipodi:role="line"
       id="tspan3359"
       x="7.7541809"
       y="10.139744">UVC</tspan></text>
</svg>
