<?xml version="1.0" encoding="UTF-8" standalone="no"?>
<!-- Created with Inkscape (http://www.inkscape.org/) -->

<svg
   xmlns:dc="http://purl.org/dc/elements/1.1/"
   xmlns:cc="http://creativecommons.org/ns#"
   xmlns:rdf="http://www.w3.org/1999/02/22-rdf-syntax-ns#"
   xmlns:svg="http://www.w3.org/2000/svg"
   xmlns="http://www.w3.org/2000/svg"
   xmlns:sodipodi="http://sodipodi.sourceforge.net/DTD/sodipodi-0.dtd"
   xmlns:inkscape="http://www.inkscape.org/namespaces/inkscape"
   width="32px"
   height="32px"
   id="svg17117"
   version="1.1"
   inkscape:version="0.91 r13725"
   sodipodi:docname="import_features.svg"
   inkscape:export-filename="D:\saisie_carhab\resources\img\import_features_gde.png"
   inkscape:export-xdpi="728.44"
   inkscape:export-ydpi="728.44">
  <defs
     id="defs17119">
    <marker
       inkscape:stockid="Arrow2Mend"
       orient="auto"
       refY="0.0"
       refX="0.0"
       id="Arrow2Mend"
       style="overflow:visible;">
      <path
         id="path17872"
         style="font-size:12.0;fill-rule:evenodd;stroke-width:0.62500000;stroke-linejoin:round;"
         d="M 8.7185878,4.0337352 L -2.2072895,0.016013256 L 8.7185884,-4.0017078 C 6.9730900,-1.6296469 6.9831476,1.6157441 8.7185878,4.0337352 z "
         transform="scale(0.6) rotate(180) translate(0,0)" />
    </marker>
    <marker
       inkscape:stockid="Arrow2Lend"
       orient="auto"
       refY="0.0"
       refX="0.0"
       id="Arrow2Lend"
       style="overflow:visible;">
      <path
         id="path17866"
         style="font-size:12.0;fill-rule:evenodd;stroke-width:0.62500000;stroke-linejoin:round;"
         d="M 8.7185878,4.0337352 L -2.2072895,0.016013256 L 8.7185884,-4.0017078 C 6.9730900,-1.6296469 6.9831476,1.6157441 8.7185878,4.0337352 z "
         transform="scale(1.1) rotate(180) translate(1,0)" />
    </marker>
  </defs>
  <sodipodi:namedview
     id="base"
     pagecolor="#ffffff"
     bordercolor="#666666"
     borderopacity="1.0"
     inkscape:pageopacity="0.0"
     inkscape:pageshadow="2"
     inkscape:zoom="11.197802"
     inkscape:cx="2.5465367"
     inkscape:cy="10.71851"
     inkscape:current-layer="layer1"
     showgrid="true"
     inkscape:grid-bbox="true"
     inkscape:document-units="px"
     inkscape:window-width="1280"
     inkscape:window-height="1002"
     inkscape:window-x="1672"
     inkscape:window-y="-8"
     inkscape:window-maximized="1" />
  <metadata
     id="metadata17122">
    <rdf:RDF>
      <cc:Work
         rdf:about="">
        <dc:format>image/svg+xml</dc:format>
        <dc:type
           rdf:resource="http://purl.org/dc/dcmitype/StillImage" />
        <dc:title />
      </cc:Work>
    </rdf:RDF>
  </metadata>
  <g
     id="layer1"
     inkscape:label="Layer 1"
     inkscape:groupmode="layer">
    <path
       style="fill:#86b37b;fill-opacity:1;stroke:#000000;stroke-width:0.3618879px;stroke-linecap:butt;stroke-linejoin:miter;stroke-opacity:1"
       d="M 1.9630527,14.232231 5.7214627,3.8245829"
       id="path3500"
       inkscape:connector-curvature="0"
       sodipodi:nodetypes="cc" />
    <path
       style="fill:#86b37b;fill-opacity:1;stroke:#000000;stroke-width:0.3618879px;stroke-linecap:butt;stroke-linejoin:miter;stroke-opacity:1"
       d="M 30.241923,1.1478663 6.3828687,2.9101915"
       id="path3500-7"
       inkscape:connector-curvature="0" />
    <path
       style="fill:#86b37b;fill-opacity:1;stroke:#000000;stroke-width:0.3618879px;stroke-linecap:butt;stroke-linejoin:miter;stroke-opacity:1"
       d="m 30.718582,1.6738312 -1.63614,7.3225229"
       id="path3500-0"
       inkscape:connector-curvature="0"
       sodipodi:nodetypes="cc" />
    <path
       style="fill:#86b37b;fill-opacity:1;stroke:#000000;stroke-width:0.3618879px;stroke-linecap:butt;stroke-linejoin:miter;stroke-opacity:1"
       d="M 28.316625,10.141741 14.849874,18.891934"
       id="path3500-7-8"
       inkscape:connector-curvature="0"
       sodipodi:nodetypes="cc" />
    <path
       style="fill:#86b37b;fill-opacity:1;stroke:#000000;stroke-width:0.3618879px;stroke-linecap:butt;stroke-linejoin:miter;stroke-opacity:1"
       d="M 2.3930877,15.100019 13.562042,18.920931"
       id="path3500-8"
       inkscape:connector-curvature="0"
       sodipodi:nodetypes="cc" />
    <path
       style="opacity:0.33720931;fill:#86b37b;fill-opacity:1;stroke:#000000;stroke-width:0.13289064;stroke-linecap:butt;stroke-linejoin:bevel;stroke-miterlimit:4;stroke-opacity:1;stroke-dasharray:none;stroke-dashoffset:0"
       d="m 6.6643247,3.6867931 c -0.04337,0.224292 -0.225672,0.4341487 -0.405014,0.4663277 -0.44187,0.079286 -3.942388,9.8369112 -3.707854,10.3355472 0.292949,0.622832 10.1150293,3.859657 11.5156753,3.794943 1.073452,-0.0496 1.726207,-0.411867 7.592826,-4.213931 3.543086,-2.29622 6.393099,-4.3025742 6.361922,-4.4786728 -0.03106,-0.1754539 0.132525,-0.4193379 0.363528,-0.5419635 0.427865,-0.2271244 2.145469,-7.2336166 1.827748,-7.4557601 -0.14255,-0.099672 -22.0179813,1.4301349 -23.0515433,1.6120555 -0.230094,0.0405 -0.453877,0.2571551 -0.497288,0.481454 z"
       id="path4498"
       inkscape:connector-curvature="0" />
    <g
       id="g4502"
       transform="translate(30.273797,-40.597973)">
      <g
         transform="matrix(0.11614704,0,0,0.11614635,-14.183892,56.812587)"
         id="g3194"
         style="fill:#687e4c;fill-opacity:0.03639431;stroke:#000000;stroke-width:1.22851372;stroke-miterlimit:4;stroke-opacity:1;stroke-dasharray:none;overflow:visible">
        <g
           style="fill:#687e4c;fill-opacity:0.03639431;stroke:#000000;stroke-width:1.22851372;stroke-miterlimit:4;stroke-opacity:1;stroke-dasharray:none"
           id="g3">
          <path
             inkscape:connector-curvature="0"
             d="m 52.021,131.806 c 0,2.605 28.656,1.382 31.602,0.817 4.888,-0.935 -9.083,-3.122 -10.272,-3.176 -1.909,-0.085 -21.333,-0.904 -21.33,2.359"
             id="path5"
             style="fill:#687e4c;fill-opacity:0.03639431;stroke:#000000;stroke-width:1.22851372;stroke-miterlimit:4;stroke-opacity:1;stroke-dasharray:none" />
          <radialGradient
             gradientTransform="matrix(3.3955194,0,0,3.3955399,670.22551,-854.68131)"
             cx="52.408199"
             cy="36.194801"
             gradientUnits="userSpaceOnUse"
             id="radialGradient3282"
             r="105.1645">
            <stop
               id="stop3284"
               offset="0"
               style="stop-color:#D1F593" />
            <stop
               id="stop3286"
               offset="1"
               style="stop-color:#81CE09" />
          </radialGradient>
          <path
             inkscape:connector-curvature="0"
             d="m 88.759,126.635 c 0,-8.091 0,-16.184 0,-24.274 0,-4.036 0,-8.071 0,-12.105 0,-2.35 1.353,-1.482 3.599,-1.482 9.931,0 19.864,0 29.797,-0.002 3.059,0 6.41,0.399 9.089,-1.409 4.131,-2.791 3.64,-7.45 3.64,-11.765 0,-6.67 2.961,-22.258 -3.643,-26.719 -5.771,-3.898 -18.467,-1.411 -24.9,-1.411 -2.933,0 -17.579,1.794 -17.579,-1.483 0,-9.625 0,-19.249 -0.002,-28.873 0,-7.948 -0.023,-15.768 -10.349,-15.768 -4.741,0 -9.482,0 -14.226,0 -3.513,0 -8.332,-0.769 -11.684,0.65 -7.721,3.266 -5.047,17.326 -5.047,23.847 0,1.712 0.272,21.627 -0.249,21.627 -8.859,0 -17.717,0 -26.576,0 -7.028,0 -19.301,-1.94 -19.299,8.622 0,8.11 10e-4,16.221 10e-4,24.331 0,10.633 13.667,8.354 20.558,8.354 2.072,0 25.565,-0.267 25.565,0.25 0,10.036 10e-4,20.071 10e-4,30.106 0,3.248 -0.659,7.626 0.648,10.721 2.284,5.405 7.696,5.046 12.526,5.046 7.361,-0.002 28.135,3.73 28.13,-8.263"
             id="path12"
             style="fill:#687e4c;fill-opacity:0.03639431;stroke:#000000;stroke-width:1.22851372;stroke-miterlimit:4;stroke-opacity:1;stroke-dasharray:none" />
          <path
             inkscape:connector-curvature="0"
             d="m 7.252,52.4 c 2.606,0 1.384,28.656 0.819,31.603 C 7.133,88.892 4.947,74.92 4.893,73.732 4.808,71.825 3.991,52.397 7.252,52.4"
             id="path14"
             style="fill:#687e4c;fill-opacity:0.03639431;stroke:#000000;stroke-width:1.22851372;stroke-miterlimit:4;stroke-opacity:1;stroke-dasharray:none" />
          <path
             inkscape:connector-curvature="0"
             d="m 131.424,52.4 c 2.605,0 1.385,28.656 0.821,31.603 -0.938,4.889 -3.126,-9.083 -3.18,-10.271 -0.085,-1.907 -0.899,-21.335 2.359,-21.332"
             id="path16"
             style="fill:#687e4c;fill-opacity:0.03639431;stroke:#000000;stroke-width:1.22851372;stroke-miterlimit:4;stroke-opacity:1;stroke-dasharray:none" />
          <path
             inkscape:connector-curvature="0"
             d="m 52.523,84.487 c 2.662,0.003 1.336,41.25 0.805,45.053 -0.355,2.529 -1.286,2.272 -1.821,-0.051 -1.221,-5.301 -1.267,-10.991 -1.39,-16.4 -0.051,-2.197 -0.788,-28.605 2.406,-28.602"
             id="path18"
             style="fill:#687e4c;fill-opacity:0.03639431;stroke:#000000;stroke-width:1.22851372;stroke-miterlimit:4;stroke-opacity:1;stroke-dasharray:none" />
          <path
             inkscape:connector-curvature="0"
             d="m 90.715,52.665 c 0,2.655 35.874,1.289 39.165,0.886 1.56,-0.192 3.561,-0.983 0.977,-1.775 -4.489,-1.373 -9.612,-1.36 -14.254,-1.5 -2.092,-0.063 -25.888,-0.848 -25.888,2.389"
             id="path20"
             style="fill:#687e4c;fill-opacity:0.03639431;stroke:#000000;stroke-width:1.22851372;stroke-miterlimit:4;stroke-opacity:1;stroke-dasharray:none" />
          <path
             inkscape:connector-curvature="0"
             d="m 7.252,52.4 c 0.003,-2.251 42.618,-1.799 42.62,0.001 0,1.925 -42.614,5.579 -42.62,-0.001"
             id="path22-2"
             style="fill:#687e4c;fill-opacity:0.03639431;stroke:#000000;stroke-width:1.22851372;stroke-miterlimit:4;stroke-opacity:1;stroke-dasharray:none" />
          <path
             inkscape:connector-curvature="0"
             d="m 52.021,7.633 c 0,2.606 28.656,1.382 31.602,0.818 C 88.51,7.516 74.54,5.328 73.35,5.274 71.442,5.189 52.018,4.371 52.021,7.633"
             id="path24"
             style="fill:#687e4c;fill-opacity:0.03639431;stroke:#000000;stroke-width:1.22851372;stroke-miterlimit:4;stroke-opacity:1;stroke-dasharray:none" />
          <path
             inkscape:connector-curvature="0"
             d="m 52.021,7.633 c -2.248,0 -1.804,42.302 -10e-4,42.302 1.96,10e-4 5.559,-42.302 10e-4,-42.302"
             id="path26"
             style="fill:#687e4c;fill-opacity:0.03639431;stroke:#000000;stroke-width:1.22851372;stroke-miterlimit:4;stroke-opacity:1;stroke-dasharray:none" />
          <path
             inkscape:connector-curvature="0"
             d="m 84.796,6.671 c -2.252,0 -1.262,24.248 -1.252,26.235 0.018,3.709 -0.439,8.161 0.687,11.765 0.868,2.78 2.254,-4.511 2.307,-4.922 0.425,-3.336 3.336,-33.084 -1.742,-33.078"
             id="path28"
             style="fill:#687e4c;fill-opacity:0.03639431;stroke:#000000;stroke-width:1.22851372;stroke-miterlimit:4;stroke-opacity:1;stroke-dasharray:none" />
          <path
             inkscape:connector-curvature="0"
             d="m 84.795,85.796 c -1.948,-0.005 -1.256,23.107 -1.256,25.114 0,5.748 -0.267,11.604 0.327,17.332 0.328,3.175 1.466,3.464 2.171,0.211 0.702,-3.228 3.572,-42.668 -1.242,-42.657"
             id="path30"
             style="fill:#687e4c;fill-opacity:0.03639431;stroke:#000000;stroke-width:1.22851372;stroke-miterlimit:4;stroke-opacity:1;stroke-dasharray:none" />
          <path
             inkscape:connector-curvature="0"
             d="m 7.702,83.765 c -0.003,-2.246 24.25,-1.262 26.234,-1.25 3.711,0.018 8.162,-0.439 11.765,0.685 2.782,0.868 -4.512,2.256 -4.92,2.308 -3.334,0.424 -33.09,3.329 -33.079,-1.743"
             id="path32"
             style="fill:#687e4c;fill-opacity:0.03639431;stroke:#000000;stroke-width:1.22851372;stroke-miterlimit:4;stroke-opacity:1;stroke-dasharray:none" />
          <path
             inkscape:connector-curvature="0"
             d="m 87,83.769 c -0.002,-1.971 22.219,-1.261 24.128,-1.261 5.747,0 11.603,-0.263 17.332,0.33 3.173,0.328 3.465,1.465 0.212,2.172 C 125.435,85.713 87,88.664 87,83.769"
             id="path34"
             style="fill:#687e4c;fill-opacity:0.03639431;stroke:#000000;stroke-width:1.22851372;stroke-miterlimit:4;stroke-opacity:1;stroke-dasharray:none" />
          <path
             inkscape:connector-curvature="0"
             d="M 87.034,3.068 C 82.509,-1.456 72.53,0.36 66.782,0.36 c -6.962,0 -18.207,-1.921 -20.12,7.384 -1.219,5.928 -0.188,12.916 -0.188,18.911 0,6.611 0,13.222 0,19.832 -8.833,-0.008 -17.665,-0.001 -26.499,0 -7.965,0 -19.625,-1.492 -19.625,10.034 0,7.876 -0.785,16.157 0,23.991 0,11.92 15.899,9.243 23.558,9.243 2.705,0 22.568,-1.096 22.568,0.987 0,9.688 0,19.378 0,29.068 0,8.969 1.344,16.066 12.167,16.066 4.877,0 9.755,0 14.632,0 3.909,0.002 8.925,0.745 12.349,-1.544 6.667,-4.459 4.118,-18.015 4.118,-24.75 0,-5.028 0,-10.056 0,-15.086 0,-3.111 -1.063,-4.742 2.208,-4.742 9.972,0 19.946,0 29.917,0 3.367,0 6.975,0.41 9.92,-1.581 4.464,-3.017 4.08,-7.903 4.08,-12.576 0,-7.165 2.961,-22.769 -4.08,-27.53 -2.945,-1.994 -6.557,-1.582 -9.92,-1.582 -5.479,0 -10.956,0 -16.436,0 -4.494,0 -8.987,0 -13.481,0 -3.271,0 -2.208,-1.633 -2.208,-4.743 0,-9.967 0,-19.933 0,-29.899 C 89.741,8.606 89.511,5.544 87.034,3.068 M 2.313,80.511 c 0,-7.999 -0.001,-15.994 -0.001,-23.993 0,-10.355 12.502,-8.07 19.41,-8.07 8.824,0 17.647,0 26.47,0 0.51,0 0.244,-19.771 0.244,-21.453 0,-5.939 -2.714,-20.589 4.082,-23.931 2.918,-1.435 7.306,-0.742 10.422,-0.742 5.158,0.002 10.314,0.003 15.471,0.003 10.646,0 9.368,9.181 9.368,16.95 0,9.408 0,18.817 0,28.227 0,3.364 37.98,-1.799 43.395,2.547 5.7,4.578 2.729,20.288 2.729,26.59 0,4.008 0.2,8.305 -4.083,10.41 -2.694,1.323 -6.632,0.741 -9.521,0.741 -9.923,0 -19.847,0 -29.768,0 -2.088,0 -2.753,-0.648 -2.753,1.454 0,4.422 0,8.845 0,13.268 0,7.827 0.983,16.351 0,24.124 0,10.686 -19.483,7.277 -26.028,7.277 -4.356,-0.002 -9.753,0.843 -12.347,-3.645 -1.585,-2.744 -0.967,-6.932 -0.967,-9.959 0,-10.356 0,-20.712 0,-31.065 C 48.437,82.271 2.3,96.488 2.313,80.511"
             id="path36"
             style="fill:#687e4c;fill-opacity:0.03639431;stroke:#000000;stroke-width:1.22851372;stroke-miterlimit:4;stroke-opacity:1;stroke-dasharray:none" />
        </g>
      </g>
      <path
         inkscape:connector-curvature="0"
         id="path4500"
         d="m -7.8272494,69.175173 c -0.034722,-1.773053 -0.118381,-2.616624 -0.2643022,-2.665102 -0.1174251,-0.03901 -0.2528834,0.07782 -0.3010195,0.25963 -0.07636,0.288408 -0.1043917,0.278026 -0.2198336,-0.08142 -0.1273646,-0.396566 -0.2133535,-0.411978 -2.2985993,-0.411978 l -2.166283,0 0.01876,-1.443649 0.01876,-1.44365 2.235226,-0.07441 c 1.8024599,-0.06001 2.2962496,-0.135438 2.5504119,-0.389601 0.381529,-0.381528 0.7184939,-2.560436 0.6072993,-3.926963 l -0.07822,-0.961282 1.5256498,0 1.5256504,0 0,1.923774 c 0,1.823823 0.023784,1.944454 0.4577531,2.321787 0.2517644,0.218906 0.4577536,0.495401 0.4577536,0.614433 0,0.297941 1.7806758,0.484059 3.22018257,0.336577 l 1.17424898,-0.120305 0,1.292019 c 0,0.710611 0.0500127,1.422352 0.11114083,1.581647 0.0979757,0.255321 -0.18274459,0.289627 -2.36993468,0.289627 -3.1592,0 -3.0511444,-0.111679 -3.0511444,3.153464 l 0,2.339576 -1.5513339,0 -1.5513343,0 -0.050802,-2.594172 z"
         style="fill:#86b37b;fill-opacity:1;stroke:#000000;stroke-width:0.09411408;stroke-linecap:butt;stroke-linejoin:bevel;stroke-miterlimit:4;stroke-opacity:1;stroke-dasharray:none;stroke-dashoffset:0" />
    </g>
    <path
       sodipodi:type="arc"
       style="fill:#86b37b;fill-opacity:1;stroke:#000000;stroke-width:0.514;stroke-linecap:butt;stroke-linejoin:bevel;stroke-miterlimit:4;stroke-opacity:1;stroke-dasharray:none;stroke-dashoffset:0"
       id="path3502-4-1"
       sodipodi:cx="-160.01431"
       sodipodi:cy="-54.258698"
       sodipodi:rx="1.8944077"
       sodipodi:ry="1.8944077"
       d="m -158.1199,-54.258698 a 1.8944077,1.8944077 0 1 1 -3.78882,0 1.8944077,1.8944077 0 1 1 3.78882,0 z"
       transform="matrix(0.7160636,-0.92135834,-0.92135834,-0.7160636,72.362851,-183.26209)" />
    <path
       sodipodi:type="arc"
       style="fill:#86b37b;fill-opacity:1;stroke:#000000;stroke-width:0.514;stroke-linecap:butt;stroke-linejoin:bevel;stroke-miterlimit:4;stroke-opacity:1;stroke-dasharray:none;stroke-dashoffset:0"
       id="path3502-4-1-1"
       sodipodi:cx="-160.01431"
       sodipodi:cy="-54.258698"
       sodipodi:rx="1.8944077"
       sodipodi:ry="1.8944077"
       d="m -158.1199,-54.258698 a 1.8944077,1.8944077 0 1 1 -3.78882,0 1.8944077,1.8944077 0 1 1 3.78882,0 z"
       transform="matrix(0.7160636,-0.92135834,-0.92135834,-0.7160636,67.089212,-171.60803)" />
    <path
       sodipodi:type="arc"
       style="fill:#86b37b;fill-opacity:1;stroke:#000000;stroke-width:0.514;stroke-linecap:butt;stroke-linejoin:bevel;stroke-miterlimit:4;stroke-opacity:1;stroke-dasharray:none;stroke-dashoffset:0"
       id="path3502-4-1-5"
       sodipodi:cx="-160.01431"
       sodipodi:cy="-54.258698"
       sodipodi:rx="1.8944077"
       sodipodi:ry="1.8944077"
       d="m -158.1199,-54.258698 a 1.8944077,1.8944077 0 1 1 -3.78882,0 1.8944077,1.8944077 0 1 1 3.78882,0 z"
       transform="matrix(0.7160636,-0.92135834,-0.92135834,-0.7160636,78.877239,-167.41078)" />
    <path
       sodipodi:type="arc"
       style="fill:#86b37b;fill-opacity:1;stroke:#000000;stroke-width:0.514;stroke-linecap:butt;stroke-linejoin:bevel;stroke-miterlimit:4;stroke-opacity:1;stroke-dasharray:none;stroke-dashoffset:0"
       id="path3502-4-1-2"
       sodipodi:cx="-160.01431"
       sodipodi:cy="-54.258698"
       sodipodi:rx="1.8944077"
       sodipodi:ry="1.8944077"
       d="m -158.1199,-54.258698 a 1.8944077,1.8944077 0 1 1 -3.78882,0 1.8944077,1.8944077 0 1 1 3.78882,0 z"
       transform="matrix(0.7160636,-0.92135834,-0.92135834,-0.7160636,92.272725,-175.44807)" />
    <path
       sodipodi:type="arc"
       style="fill:#86b37b;fill-opacity:1;stroke:#000000;stroke-width:0.514;stroke-linecap:butt;stroke-linejoin:bevel;stroke-miterlimit:4;stroke-opacity:1;stroke-dasharray:none;stroke-dashoffset:0"
       id="path3502-4-1-7"
       sodipodi:cx="-160.01431"
       sodipodi:cy="-54.258698"
       sodipodi:rx="1.8944077"
       sodipodi:ry="1.8944077"
       d="m -158.1199,-54.258698 a 1.8944077,1.8944077 0 1 1 -3.78882,0 1.8944077,1.8944077 0 1 1 3.78882,0 z"
       transform="matrix(0.7160636,-0.92135834,-0.92135834,-0.7160636,93.969486,-183.66397)" />
  </g>
</svg>
