<?xml version="1.0" encoding="UTF-8" standalone="no"?>
<!-- Created with Inkscape (http://www.inkscape.org/) -->

<svg
   xmlns:dc="http://purl.org/dc/elements/1.1/"
   xmlns:cc="http://creativecommons.org/ns#"
   xmlns:rdf="http://www.w3.org/1999/02/22-rdf-syntax-ns#"
   xmlns:svg="http://www.w3.org/2000/svg"
   xmlns="http://www.w3.org/2000/svg"
   xmlns:xlink="http://www.w3.org/1999/xlink"
   xmlns:sodipodi="http://sodipodi.sourceforge.net/DTD/sodipodi-0.dtd"
   xmlns:inkscape="http://www.inkscape.org/namespaces/inkscape"
   width="128"
   height="128"
   id="svg2"
   version="1.1"
   inkscape:version="0.48.2 r9819"
   sodipodi:docname="nouveau_chantier.svg"
   inkscape:export-filename="D:\saisie_carhab\resources\img\nouveau_chantier.png"
   inkscape:export-xdpi="26.02"
   inkscape:export-ydpi="26.02">
  <defs
     id="defs4">
    <linearGradient
       inkscape:collect="always"
       id="linearGradient3608">
      <stop
         style="stop-color:#cccccc;stop-opacity:1"
         offset="0"
         id="stop3610" />
      <stop
         id="stop3616"
         offset="0.22007781"
         style="stop-color:#e6e6e6;stop-opacity:1" />
      <stop
         style="stop-color:#ffffff;stop-opacity:1"
         offset="0.46932641"
         id="stop3618" />
      <stop
         style="stop-color:#e6e6e6;stop-opacity:1"
         offset="1"
         id="stop3612" />
    </linearGradient>
    <linearGradient
       inkscape:collect="always"
       id="linearGradient3600">
      <stop
         style="stop-color:#e6e6e6;stop-opacity:1;"
         offset="0"
         id="stop3602" />
      <stop
         style="stop-color:#f9f9f9;stop-opacity:1"
         offset="1"
         id="stop3604" />
    </linearGradient>
    <linearGradient
       inkscape:collect="always"
       xlink:href="#linearGradient3600"
       id="linearGradient3606"
       x1="105"
       y1="123"
       x2="-80"
       y2="-112"
       gradientUnits="userSpaceOnUse"
       gradientTransform="translate(2,922.36218)" />
    <linearGradient
       inkscape:collect="always"
       xlink:href="#linearGradient3608"
       id="linearGradient3614"
       x1="93"
       y1="944.36218"
       x2="80"
       y2="957.36218"
       gradientUnits="userSpaceOnUse"
       gradientTransform="translate(2,-2)" />
    <marker
       inkscape:stockid="Arrow2Mend"
       orient="auto"
       refY="0.0"
       refX="0.0"
       id="Arrow2Mend"
       style="overflow:visible;">
      <path
         id="path17872"
         style="font-size:12.0;fill-rule:evenodd;stroke-width:0.62500000;stroke-linejoin:round;"
         d="M 8.7185878,4.0337352 L -2.2072895,0.016013256 L 8.7185884,-4.0017078 C 6.9730900,-1.6296469 6.9831476,1.6157441 8.7185878,4.0337352 z "
         transform="scale(0.6) rotate(180) translate(0,0)" />
    </marker>
    <marker
       inkscape:stockid="Arrow2Lend"
       orient="auto"
       refY="0.0"
       refX="0.0"
       id="Arrow2Lend"
       style="overflow:visible;">
      <path
         id="path17866"
         style="font-size:12.0;fill-rule:evenodd;stroke-width:0.62500000;stroke-linejoin:round;"
         d="M 8.7185878,4.0337352 L -2.2072895,0.016013256 L 8.7185884,-4.0017078 C 6.9730900,-1.6296469 6.9831476,1.6157441 8.7185878,4.0337352 z "
         transform="scale(1.1) rotate(180) translate(1,0)" />
    </marker>
    <marker
       inkscape:stockid="Arrow2Mend"
       orient="auto"
       refY="0.0"
       refX="0.0"
       id="Arrow2Mend-0"
       style="overflow:visible;">
      <path
         id="path17872-9"
         style="font-size:12.0;fill-rule:evenodd;stroke-width:0.62500000;stroke-linejoin:round;"
         d="M 8.7185878,4.0337352 L -2.2072895,0.016013256 L 8.7185884,-4.0017078 C 6.9730900,-1.6296469 6.9831476,1.6157441 8.7185878,4.0337352 z "
         transform="scale(0.6) rotate(180) translate(0,0)" />
    </marker>
    <marker
       inkscape:stockid="Arrow2Lend"
       orient="auto"
       refY="0.0"
       refX="0.0"
       id="Arrow2Lend-7"
       style="overflow:visible;">
      <path
         id="path17866-4"
         style="font-size:12.0;fill-rule:evenodd;stroke-width:0.62500000;stroke-linejoin:round;"
         d="M 8.7185878,4.0337352 L -2.2072895,0.016013256 L 8.7185884,-4.0017078 C 6.9730900,-1.6296469 6.9831476,1.6157441 8.7185878,4.0337352 z "
         transform="scale(1.1) rotate(180) translate(1,0)" />
    </marker>
    <linearGradient
       inkscape:collect="always"
       xlink:href="#linearGradient3600"
       id="linearGradient4040"
       gradientUnits="userSpaceOnUse"
       gradientTransform="translate(14.727922,922.36218)"
       x1="105"
       y1="123"
       x2="-80"
       y2="-112" />
    <linearGradient
       inkscape:collect="always"
       xlink:href="#linearGradient3608"
       id="linearGradient4042"
       gradientUnits="userSpaceOnUse"
       gradientTransform="translate(14.727922,-2)"
       x1="93"
       y1="944.36218"
       x2="80"
       y2="957.36218" />
    <filter
       inkscape:collect="always"
       id="filter5315">
      <feGaussianBlur
         inkscape:collect="always"
         stdDeviation="0.38464685"
         id="feGaussianBlur5317" />
    </filter>
  </defs>
  <sodipodi:namedview
     id="base"
     pagecolor="#ffffff"
     bordercolor="#666666"
     borderopacity="1.0"
     inkscape:pageopacity="0.0"
     inkscape:pageshadow="2"
     inkscape:zoom="1.4142136"
     inkscape:cx="52.664782"
     inkscape:cy="72.511898"
     inkscape:document-units="px"
     inkscape:current-layer="layer1"
     showgrid="false"
     inkscape:window-width="1280"
     inkscape:window-height="1002"
     inkscape:window-x="1672"
     inkscape:window-y="-8"
     inkscape:window-maximized="1"
     inkscape:snap-global="false">
    <inkscape:grid
       type="xygrid"
       id="grid2816"
       empspacing="5"
       visible="true"
       enabled="true"
       snapvisiblegridlinesonly="true" />
  </sodipodi:namedview>
  <metadata
     id="metadata7">
    <rdf:RDF>
      <cc:Work
         rdf:about="">
        <dc:format>image/svg+xml</dc:format>
        <dc:type
           rdf:resource="http://purl.org/dc/dcmitype/StillImage" />
        <dc:title />
      </cc:Work>
    </rdf:RDF>
  </metadata>
  <g
     inkscape:label="Layer 1"
     inkscape:groupmode="layer"
     id="layer1"
     transform="translate(0,-924.36218)">
    <path
       style="fill:#ffff00;fill-opacity:0.54117647;stroke:none"
       d=""
       id="path3087-8"
       inkscape:connector-curvature="0" />
    <g
       id="g4023"
       transform="translate(-19.470563,1.7071068)"
       style="stroke:#000000;stroke-opacity:1;filter:url(#filter5315)">
      <path
         sodipodi:nodetypes="cccccc"
         id="path2826"
         d="m 82,930.36218 -60,0 0,115.00002 85,0 0,-90.00002 -25,-25 z"
         style="fill:url(#linearGradient4040);fill-opacity:1;fill-rule:evenodd;stroke:#000000;stroke-width:1px;stroke-linecap:butt;stroke-linejoin:round;stroke-opacity:1"
         inkscape:connector-curvature="0" />
      <path
         sodipodi:nodetypes="cccc"
         id="rect2822"
         d="m 107,955.36218 -25,-25 c 1.863343,8.33333 2.132867,16.66667 0,25 9.905529,-1.93501 17.12777,-0.56751 25,0 z"
         style="fill:url(#linearGradient4042);fill-opacity:1;fill-rule:evenodd;stroke:#000000;stroke-width:1px;stroke-linecap:butt;stroke-linejoin:round;stroke-opacity:1"
         inkscape:connector-curvature="0" />
      <path
         inkscape:connector-curvature="0"
         id="path3963-5-1"
         d="M 105.80499,977.66928 C 84.000279,989.49832 87.719081,973.4523 60.417276,976.55187 33.115429,979.65136 24.576212,998.763 24.576212,998.763 c 0,0 -7.803625,3.7056 5.703555,20.6409 13.507174,16.9354 -6.86491,25.3007 -6.86491,25.3007"
         style="fill:none;stroke:#000000;stroke-width:1px;stroke-linecap:butt;stroke-linejoin:miter;stroke-opacity:1" />
      <path
         inkscape:connector-curvature="0"
         id="path3965-1-4"
         d="m 107.17218,962.70249 c 0,0 0.9848,14.98944 -23.902137,29.43829 -24.886947,14.44882 -29.578067,25.68602 -34.192266,35.24342 -4.614215,9.5574 -27.593828,18.8394 -27.593828,18.8394"
         style="fill:none;stroke:#000000;stroke-width:1px;stroke-linecap:butt;stroke-linejoin:miter;stroke-opacity:1" />
      <path
         inkscape:connector-curvature="0"
         id="path3965-1-4-2"
         d="m 22.694269,957.60886 c 0,0 15.0075,-0.65405 28.9041,24.54542 13.89661,25.19952 25.02755,30.13722 34.48097,34.96102 9.45331,4.8238 18.226381,28.0025 18.226381,28.0025"
         style="fill:none;stroke:#000000;stroke-width:1px;stroke-linecap:butt;stroke-linejoin:miter;stroke-opacity:1" />
      <path
         transform="translate(0,924.36218)"
         inkscape:connector-curvature="0"
         id="path3151"
         d="m 32.861944,114.66864 c 0,-0.19587 0.636396,-1.54349 1.414213,-2.99473 2.837693,-5.29452 1.638125,-10.37971 -4.439233,-18.818725 -4.46331,-6.19775 -7.11205,-12.346548 -6.451792,-14.977226 0.515598,-2.054307 25.539456,-22.067488 26.387908,-21.104099 0.301136,0.341931 2.036538,3.111925 3.856448,6.155544 2.876474,4.810617 5.50763,8.559299 10.521753,14.990634 1.194628,1.532283 1.181323,1.623613 -0.386149,2.65066 -2.889238,1.893101 -9.455091,10.594634 -13.192393,17.483494 -4.25132,7.836328 -5.682102,9.464338 -12.105057,13.773678 -4.604948,3.08958 -5.605698,3.59673 -5.605698,2.84077 z"
         style="fill:#1f730b;fill-opacity:0.54117647;stroke:#000000;stroke-width:0.949;stroke-linecap:butt;stroke-linejoin:bevel;stroke-miterlimit:4;stroke-opacity:1;stroke-dasharray:none;stroke-dashoffset:0" />
      <path
         transform="translate(0,924.36218)"
         inkscape:connector-curvature="0"
         id="path3153"
         d="M 47.444161,49.697386 C 42.926359,43.13774 35.345752,36.395098 29.927211,34.116772 L 27.766314,33.208183 44.55764,20.0228 61.348967,6.8374165 l 10.095391,0 10.095391,0 0.506028,4.7252195 c 0.543652,5.076547 0.05227,16.704128 -0.797414,18.869197 -0.489925,1.248375 -0.199672,1.292353 5.310325,0.804607 3.205717,-0.283771 8.818028,-0.291818 12.471798,-0.01788 l 6.643224,0.498062 -5.46996,4.383435 c -3.008479,2.410887 -8.994995,7.143957 -13.303367,10.517931 L 79.06698,52.752484 76.293782,51.95232 c -5.164732,-1.490204 -18.192123,-0.849218 -25.100458,1.235017 -0.74693,0.225347 -1.982426,-0.924728 -3.749163,-3.489951 z"
         style="fill:#1f730b;fill-opacity:0.54117647;stroke:#000000;stroke-width:0.949;stroke-linecap:butt;stroke-linejoin:bevel;stroke-miterlimit:4;stroke-opacity:1;stroke-dasharray:none;stroke-dashoffset:0" />
      <path
         transform="translate(0,924.36218)"
         inkscape:connector-curvature="0"
         id="path3155"
         d="M 99.185459,107.77368 C 94.590441,98.74319 90.446024,94.329611 82.161287,89.643861 75.710539,85.995394 68.884608,80.858779 69.631496,80.215007 c 0.194455,-0.167608 4.967426,-3.871159 10.606602,-8.230115 5.639177,-4.358956 12.038831,-9.368638 14.221452,-11.132627 3.191816,-2.579615 10.31993,-6.638694 11.65816,-6.638694 0.15584,0 0.28334,12.915566 0.28334,28.701258 l 0,28.701261 -1.59099,1.32725 c -0.87505,0.72999 -1.75009,1.33639 -1.94454,1.34755 -0.19446,0.0112 -1.85048,-2.92159 -3.680061,-6.51721 z"
         style="fill:#ff2a2a;fill-opacity:0.54117647;stroke:#000000;stroke-width:0.949;stroke-linecap:butt;stroke-linejoin:bevel;stroke-miterlimit:4;stroke-opacity:1;stroke-dasharray:none;stroke-dashoffset:0" />
      <path
         transform="translate(0,924.36218)"
         inkscape:connector-curvature="0"
         id="path3157"
         d="m 33.361242,117.12986 c 2.80252,-1.55426 7.056195,-4.33429 9.45261,-6.17783 4.299623,-3.30767 5.322721,-4.71957 11.968402,-16.516688 1.809838,-3.212743 3.868925,-5.494567 7.66271,-8.491603 l 5.187838,-4.098317 4.619782,3.54087 c 2.54088,1.947478 6.411215,4.455267 8.600745,5.572863 8.107849,4.138469 12.149066,8.560323 17.304729,18.934635 l 2.896902,5.8292 -2.453482,2.09702 -2.453477,2.09702 -33.941126,0.0194 -33.941126,0.0194 5.095493,-2.82595 0,0 z"
         style="fill:#ff7f2a;fill-opacity:0.54117647;stroke:#000000;stroke-width:0.949;stroke-linecap:butt;stroke-linejoin:bevel;stroke-miterlimit:4;stroke-opacity:1;stroke-dasharray:none;stroke-dashoffset:0" />
      <path
         transform="translate(0,924.36218)"
         inkscape:connector-curvature="0"
         id="path3159"
         d="m 24.199885,32.512941 c -1.120467,-0.292808 -1.237436,-1.521594 -1.237436,-12.99945 l 0,-12.6760745 18.502627,0 c 10.176445,0 18.367193,0.1354343 18.201662,0.3009651 C 57.69926,9.1058609 26.66465,32.965819 26.144429,32.910928 25.75552,32.869892 24.880476,32.690798 24.199885,32.512941 z"
         style="fill:#ff7f2a;fill-opacity:0.54117647;stroke:#000000;stroke-width:0.949;stroke-linecap:butt;stroke-linejoin:bevel;stroke-miterlimit:4;stroke-opacity:1;stroke-dasharray:none;stroke-dashoffset:0" />
      <path
         transform="translate(0,924.36218)"
         inkscape:connector-curvature="0"
         id="path3161"
         d="M 63.196423,73.653557 C 61.485445,71.51156 58.060735,66.54102 55.585954,62.607912 52.136127,57.125184 51.306975,55.320454 52.031995,54.872367 54.07429,53.61016 63.15977,52.627954 69.276362,53.008127 c 4.839306,0.300784 8.026966,1.001346 13.294915,2.921865 3.811156,1.389421 8.051693,2.52622 9.423418,2.52622 l 2.494045,0 -1.998797,1.678879 c -1.099338,0.923383 -6.135371,4.390967 -11.191185,7.705743 -5.055813,3.314775 -10.288351,6.854954 -11.627862,7.867063 -1.339509,1.012109 -2.644302,1.840198 -2.899539,1.840198 -0.255237,0 -1.863957,-1.752542 -3.574934,-3.894538 l 0,0 z"
         style="fill:#3771c8;fill-opacity:0.54117647;stroke:#000000;stroke-width:0.949;stroke-linecap:butt;stroke-linejoin:bevel;stroke-miterlimit:4;stroke-opacity:1;stroke-dasharray:none;stroke-dashoffset:0" />
      <path
         transform="translate(0,924.36218)"
         inkscape:connector-curvature="0"
         id="path3163"
         d="m 22.962449,102.58877 0,-16.678634 5.3033,7.901415 c 2.916816,4.345779 5.361496,8.748729 5.432623,9.784339 0.406914,5.92467 -1.219035,9.32937 -6.312712,13.21868 -1.766801,1.34906 -3.484805,2.45283 -3.817788,2.45283 -0.332983,0 -0.605423,-7.50539 -0.605423,-16.67863 z"
         style="fill:#3771c8;fill-opacity:0.54117647;stroke:#000000;stroke-width:0.949;stroke-linecap:butt;stroke-linejoin:bevel;stroke-miterlimit:4;stroke-opacity:1;stroke-dasharray:none;stroke-dashoffset:0" />
      <path
         transform="translate(0,924.36218)"
         inkscape:connector-curvature="0"
         id="path3165"
         d="M 88.369826,56.007515 C 86.425283,55.465248 83.767451,54.568388 82.463534,54.014492 L 80.092775,53.007408 93.070136,42.72734 106.0475,32.447271 l 0.21799,3.581366 c 0.29175,4.793186 -1.44668,9.810747 -5.24714,15.144576 -1.718124,2.411344 -3.360148,4.530294 -3.648939,4.708776 -1.513487,0.935386 -5.877202,0.996251 -8.999585,0.125526 z"
         style="fill:#ff00cc;fill-opacity:0.54117647;stroke:#000000;stroke-width:0.949;stroke-linecap:butt;stroke-linejoin:bevel;stroke-miterlimit:4;stroke-opacity:1;stroke-dasharray:none;stroke-dashoffset:0" />
      <path
         transform="translate(0,924.36218)"
         inkscape:connector-curvature="0"
         id="path3167"
         d="m 23.008194,55.627785 -0.0013,-18.73833 1.674216,-1.216644 c 1.615225,-1.173775 1.826837,-1.140378 6.005692,0.94782 4.632504,2.31489 12.071584,9.117661 15.291908,13.983899 1.066689,1.611875 1.81332,3.030037 1.659181,3.15147 -0.15414,0.121433 -2.765255,1.543907 -5.802478,3.161053 -6.38472,3.399496 -11.339868,7.37174 -14.310317,11.47172 -4.967798,6.856832 -4.515443,8.134808 -4.516898,-12.760988 z"
         style="fill:#ff00cc;fill-opacity:0.54117647;stroke:#000000;stroke-width:0.949;stroke-linecap:butt;stroke-linejoin:bevel;stroke-miterlimit:4;stroke-opacity:1;stroke-dasharray:none;stroke-dashoffset:0" />
      <path
         transform="translate(0,924.36218)"
         inkscape:connector-curvature="0"
         id="path3169"
         d="m 102.42064,112.0567 c -0.38226,-0.62028 -1.88924,-3.26528 -3.348826,-5.87778 C 95.995547,100.67275 92.514361,96.077098 89.768439,93.897157 88.707235,93.054685 85.363978,90.822012 82.338978,88.93566 76.439421,85.25677 72.202059,82.270104 71.243504,81.115116 70.751628,80.522441 72.892298,78.647325 83.665775,70.233848 94.527218,61.751675 103.96785,55.178923 105.28958,55.178923 c 0.16467,0 0.2994,12.686623 0.2994,28.192495 l 0,28.192492 -1.23665,0.81029 c -1.17532,0.77009 -1.27113,0.75434 -1.93169,-0.3175 z"
         style="fill:#7dab72;fill-opacity:1;stroke:#000000;stroke-width:0.949;stroke-linecap:butt;stroke-linejoin:bevel;stroke-miterlimit:4;stroke-opacity:1;stroke-dasharray:none;stroke-dashoffset:0" />
    </g>
    <g
       style="stroke:#000000;stroke-width:1.22851372;stroke-miterlimit:4;stroke-opacity:1;stroke-dasharray:none;overflow:visible"
       id="g3194"
       transform="matrix(0.39778074,0,0,0.39777835,72.28837,947.45015)">
      <g
         id="g3"
         style="stroke:#000000;stroke-width:1.22851372;stroke-miterlimit:4;stroke-opacity:1;stroke-dasharray:none">
        <path
           style="fill:#67ba06;stroke:#000000;stroke-width:1.22851372;stroke-miterlimit:4;stroke-opacity:1;stroke-dasharray:none"
           id="path5"
           d="m 52.021,131.806 c 0,2.605 28.656,1.382 31.602,0.817 4.888,-0.935 -9.083,-3.122 -10.272,-3.176 -1.909,-0.085 -21.333,-0.904 -21.33,2.359"
           inkscape:connector-curvature="0" />
        <radialGradient
           r="105.1645"
           id="XMLID_2_"
           gradientUnits="userSpaceOnUse"
           cy="36.194801"
           cx="52.408199"
           gradientTransform="matrix(3.3955194,0,0,3.3955399,670.22551,-854.68131)">
          <stop
             style="stop-color:#D1F593"
             offset="0"
             id="stop8" />
          <stop
             style="stop-color:#81CE09"
             offset="1"
             id="stop10" />
        </radialGradient>
        <path
           style="fill:url(#XMLID_2_);stroke:#000000;stroke-width:1.22851372;stroke-miterlimit:4;stroke-opacity:1;stroke-dasharray:none"
           id="path12"
           d="m 88.759,126.635 c 0,-8.091 0,-16.184 0,-24.274 0,-4.036 0,-8.071 0,-12.105 0,-2.35 1.353,-1.482 3.599,-1.482 9.931,0 19.864,0 29.797,-0.002 3.059,0 6.41,0.399 9.089,-1.409 4.131,-2.791 3.64,-7.45 3.64,-11.765 0,-6.67 2.961,-22.258 -3.643,-26.719 -5.771,-3.898 -18.467,-1.411 -24.9,-1.411 -2.933,0 -17.579,1.794 -17.579,-1.483 0,-9.625 0,-19.249 -0.002,-28.873 0,-7.948 -0.023,-15.768 -10.349,-15.768 -4.741,0 -9.482,0 -14.226,0 -3.513,0 -8.332,-0.769 -11.684,0.65 -7.721,3.266 -5.047,17.326 -5.047,23.847 0,1.712 0.272,21.627 -0.249,21.627 -8.859,0 -17.717,0 -26.576,0 -7.028,0 -19.301,-1.94 -19.299,8.622 0,8.11 10e-4,16.221 10e-4,24.331 0,10.633 13.667,8.354 20.558,8.354 2.072,0 25.565,-0.267 25.565,0.25 0,10.036 10e-4,20.071 10e-4,30.106 0,3.248 -0.659,7.626 0.648,10.721 2.284,5.405 7.696,5.046 12.526,5.046 7.361,-0.002 28.135,3.73 28.13,-8.263"
           inkscape:connector-curvature="0" />
        <path
           style="fill:#b2ed21;stroke:#000000;stroke-width:1.22851372;stroke-miterlimit:4;stroke-opacity:1;stroke-dasharray:none"
           id="path14"
           d="m 7.252,52.4 c 2.606,0 1.384,28.656 0.819,31.603 C 7.133,88.892 4.947,74.92 4.893,73.732 4.808,71.825 3.991,52.397 7.252,52.4"
           inkscape:connector-curvature="0" />
        <path
           style="fill:#b2ed21;stroke:#000000;stroke-width:1.22851372;stroke-miterlimit:4;stroke-opacity:1;stroke-dasharray:none"
           id="path16"
           d="m 131.424,52.4 c 2.605,0 1.385,28.656 0.821,31.603 -0.938,4.889 -3.126,-9.083 -3.18,-10.271 -0.085,-1.907 -0.899,-21.335 2.359,-21.332"
           inkscape:connector-curvature="0" />
        <path
           style="fill:#67ba06;stroke:#000000;stroke-width:1.22851372;stroke-miterlimit:4;stroke-opacity:1;stroke-dasharray:none"
           id="path18"
           d="m 52.523,84.487 c 2.662,0.003 1.336,41.25 0.805,45.053 -0.355,2.529 -1.286,2.272 -1.821,-0.051 -1.221,-5.301 -1.267,-10.991 -1.39,-16.4 -0.051,-2.197 -0.788,-28.605 2.406,-28.602"
           inkscape:connector-curvature="0" />
        <path
           style="fill:#b2ed21;stroke:#000000;stroke-width:1.22851372;stroke-miterlimit:4;stroke-opacity:1;stroke-dasharray:none"
           id="path20"
           d="m 90.715,52.665 c 0,2.655 35.874,1.289 39.165,0.886 1.56,-0.192 3.561,-0.983 0.977,-1.775 -4.489,-1.373 -9.612,-1.36 -14.254,-1.5 -2.092,-0.063 -25.888,-0.848 -25.888,2.389"
           inkscape:connector-curvature="0" />
        <path
           style="fill:#b2ed21;stroke:#000000;stroke-width:1.22851372;stroke-miterlimit:4;stroke-opacity:1;stroke-dasharray:none"
           id="path22-2"
           d="m 7.252,52.4 c 0.003,-2.251 42.618,-1.799 42.62,0.001 0,1.925 -42.614,5.579 -42.62,-0.001"
           inkscape:connector-curvature="0" />
        <path
           style="fill:#b2ed21;stroke:#000000;stroke-width:1.22851372;stroke-miterlimit:4;stroke-opacity:1;stroke-dasharray:none"
           id="path24"
           d="m 52.021,7.633 c 0,2.606 28.656,1.382 31.602,0.818 C 88.51,7.516 74.54,5.328 73.35,5.274 71.442,5.189 52.018,4.371 52.021,7.633"
           inkscape:connector-curvature="0" />
        <path
           style="fill:#b2ed21;stroke:#000000;stroke-width:1.22851372;stroke-miterlimit:4;stroke-opacity:1;stroke-dasharray:none"
           id="path26"
           d="m 52.021,7.633 c -2.248,0 -1.804,42.302 -10e-4,42.302 1.96,10e-4 5.559,-42.302 10e-4,-42.302"
           inkscape:connector-curvature="0" />
        <path
           style="fill:#b2ed21;stroke:#000000;stroke-width:1.22851372;stroke-miterlimit:4;stroke-opacity:1;stroke-dasharray:none"
           id="path28"
           d="m 84.796,6.671 c -2.252,0 -1.262,24.248 -1.252,26.235 0.018,3.709 -0.439,8.161 0.687,11.765 0.868,2.78 2.254,-4.511 2.307,-4.922 0.425,-3.336 3.336,-33.084 -1.742,-33.078"
           inkscape:connector-curvature="0" />
        <path
           style="fill:#67ba06;stroke:#000000;stroke-width:1.22851372;stroke-miterlimit:4;stroke-opacity:1;stroke-dasharray:none"
           id="path30"
           d="m 84.795,85.796 c -1.948,-0.005 -1.256,23.107 -1.256,25.114 0,5.748 -0.267,11.604 0.327,17.332 0.328,3.175 1.466,3.464 2.171,0.211 0.702,-3.228 3.572,-42.668 -1.242,-42.657"
           inkscape:connector-curvature="0" />
        <path
           style="fill:#67ba06;stroke:#000000;stroke-width:1.22851372;stroke-miterlimit:4;stroke-opacity:1;stroke-dasharray:none"
           id="path32"
           d="m 7.702,83.765 c -0.003,-2.246 24.25,-1.262 26.234,-1.25 3.711,0.018 8.162,-0.439 11.765,0.685 2.782,0.868 -4.512,2.256 -4.92,2.308 -3.334,0.424 -33.09,3.329 -33.079,-1.743"
           inkscape:connector-curvature="0" />
        <path
           style="fill:#67ba06;stroke:#000000;stroke-width:1.22851372;stroke-miterlimit:4;stroke-opacity:1;stroke-dasharray:none"
           id="path34"
           d="m 87,83.769 c -0.002,-1.971 22.219,-1.261 24.128,-1.261 5.747,0 11.603,-0.263 17.332,0.33 3.173,0.328 3.465,1.465 0.212,2.172 C 125.435,85.713 87,88.664 87,83.769"
           inkscape:connector-curvature="0" />
        <path
           style="fill:#5a9908;stroke:#000000;stroke-width:1.22851372;stroke-miterlimit:4;stroke-opacity:1;stroke-dasharray:none"
           id="path36"
           d="M 87.034,3.068 C 82.509,-1.456 72.53,0.36 66.782,0.36 c -6.962,0 -18.207,-1.921 -20.12,7.384 -1.219,5.928 -0.188,12.916 -0.188,18.911 0,6.611 0,13.222 0,19.832 -8.833,-0.008 -17.665,-0.001 -26.499,0 -7.965,0 -19.625,-1.492 -19.625,10.034 0,7.876 -0.785,16.157 0,23.991 0,11.92 15.899,9.243 23.558,9.243 2.705,0 22.568,-1.096 22.568,0.987 0,9.688 0,19.378 0,29.068 0,8.969 1.344,16.066 12.167,16.066 4.877,0 9.755,0 14.632,0 3.909,0.002 8.925,0.745 12.349,-1.544 6.667,-4.459 4.118,-18.015 4.118,-24.75 0,-5.028 0,-10.056 0,-15.086 0,-3.111 -1.063,-4.742 2.208,-4.742 9.972,0 19.946,0 29.917,0 3.367,0 6.975,0.41 9.92,-1.581 4.464,-3.017 4.08,-7.903 4.08,-12.576 0,-7.165 2.961,-22.769 -4.08,-27.53 -2.945,-1.994 -6.557,-1.582 -9.92,-1.582 -5.479,0 -10.956,0 -16.436,0 -4.494,0 -8.987,0 -13.481,0 -3.271,0 -2.208,-1.633 -2.208,-4.743 0,-9.967 0,-19.933 0,-29.899 C 89.741,8.606 89.511,5.544 87.034,3.068 M 2.313,80.511 c 0,-7.999 -0.001,-15.994 -0.001,-23.993 0,-10.355 12.502,-8.07 19.41,-8.07 8.824,0 17.647,0 26.47,0 0.51,0 0.244,-19.771 0.244,-21.453 0,-5.939 -2.714,-20.589 4.082,-23.931 2.918,-1.435 7.306,-0.742 10.422,-0.742 5.158,0.002 10.314,0.003 15.471,0.003 10.646,0 9.368,9.181 9.368,16.95 0,9.408 0,18.817 0,28.227 0,3.364 37.98,-1.799 43.395,2.547 5.7,4.578 2.729,20.288 2.729,26.59 0,4.008 0.2,8.305 -4.083,10.41 -2.694,1.323 -6.632,0.741 -9.521,0.741 -9.923,0 -19.847,0 -29.768,0 -2.088,0 -2.753,-0.648 -2.753,1.454 0,4.422 0,8.845 0,13.268 0,7.827 0.983,16.351 0,24.124 0,10.686 -19.483,7.277 -26.028,7.277 -4.356,-0.002 -9.753,0.843 -12.347,-3.645 -1.585,-2.744 -0.967,-6.932 -0.967,-9.959 0,-10.356 0,-20.712 0,-31.065 C 48.437,82.271 2.3,96.488 2.313,80.511"
           inkscape:connector-curvature="0" />
      </g>
    </g>
    <path
       style="fill:#f8b284;fill-opacity:1;stroke:#000000;stroke-width:0.10362499999999999;stroke-linecap:butt;stroke-linejoin:bevel;stroke-miterlimit:4;stroke-opacity:1;stroke-dasharray:none;stroke-dashoffset:0"
       d="m 7.9359747,78.081065 c 0.2317976,-0.810485 0.9029504,-1.719293 1.589987,-2.153001 0.188403,-0.118933 0.3135856,-0.298964 0.6235103,-0.896699 1.777926,-3.428991 5.166221,-7.494752 8.756636,-10.507464 4.226855,-3.546748 8.918636,-6.203088 14.251584,-8.068804 l 1.032832,-0.361333 0.324663,0.54614 c 0.178563,0.300376 0.343835,0.596104 0.367268,0.657171 0.0369,0.09615 0.02513,0.101679 -0.08776,0.04126 -0.249249,-0.133394 -0.650937,-0.08052 -1.129086,0.148629 -3.314422,1.588394 -19.085961,14.04909 -24.3256709,19.2191 -0.4006418,0.395313 -0.890487,0.901563 -1.0885447,1.125 -0.257541,0.290543 -0.3473773,0.361748 -0.3154177,0.25 l 0,0 z"
       id="path3831"
       inkscape:connector-curvature="0"
       transform="translate(0,924.36218)" />
  </g>
</svg>
