<?xml version="1.0" encoding="UTF-8" standalone="no"?>
<!-- Created with Inkscape (http://www.inkscape.org/) -->

<svg
   xmlns:dc="http://purl.org/dc/elements/1.1/"
   xmlns:cc="http://creativecommons.org/ns#"
   xmlns:rdf="http://www.w3.org/1999/02/22-rdf-syntax-ns#"
   xmlns:svg="http://www.w3.org/2000/svg"
   xmlns="http://www.w3.org/2000/svg"
   xmlns:xlink="http://www.w3.org/1999/xlink"
   xmlns:sodipodi="http://sodipodi.sourceforge.net/DTD/sodipodi-0.dtd"
   xmlns:inkscape="http://www.inkscape.org/namespaces/inkscape"
   width="128"
   height="128"
   id="svg2"
   version="1.1"
   inkscape:version="0.91 r13725"
   sodipodi:docname="nouveau_chantier.svg"
   inkscape:export-filename="D:\saisie_carhab\resources\img\nouveau_chantier_gde.png"
   inkscape:export-xdpi="182.11"
   inkscape:export-ydpi="182.11">
  <defs
     id="defs4">
    <linearGradient
       inkscape:collect="always"
       id="linearGradient3608">
      <stop
         style="stop-color:#cccccc;stop-opacity:1"
         offset="0"
         id="stop3610" />
      <stop
         id="stop3616"
         offset="0.22007781"
         style="stop-color:#e6e6e6;stop-opacity:1" />
      <stop
         style="stop-color:#ffffff;stop-opacity:1"
         offset="0.46932641"
         id="stop3618" />
      <stop
         style="stop-color:#e6e6e6;stop-opacity:1"
         offset="1"
         id="stop3612" />
    </linearGradient>
    <linearGradient
       inkscape:collect="always"
       id="linearGradient3600">
      <stop
         style="stop-color:#e6e6e6;stop-opacity:1;"
         offset="0"
         id="stop3602" />
      <stop
         style="stop-color:#f9f9f9;stop-opacity:1"
         offset="1"
         id="stop3604" />
    </linearGradient>
    <linearGradient
       inkscape:collect="always"
       xlink:href="#linearGradient3600"
       id="linearGradient3606"
       x1="105"
       y1="123"
       x2="-80"
       y2="-112"
       gradientUnits="userSpaceOnUse"
       gradientTransform="translate(2,922.36218)" />
    <linearGradient
       inkscape:collect="always"
       xlink:href="#linearGradient3608"
       id="linearGradient3614"
       x1="93"
       y1="944.36218"
       x2="80"
       y2="957.36218"
       gradientUnits="userSpaceOnUse"
       gradientTransform="translate(2,-2)" />
    <marker
       inkscape:stockid="Arrow2Mend"
       orient="auto"
       refY="0.0"
       refX="0.0"
       id="Arrow2Mend"
       style="overflow:visible;">
      <path
         id="path17872"
         style="font-size:12.0;fill-rule:evenodd;stroke-width:0.62500000;stroke-linejoin:round;"
         d="M 8.7185878,4.0337352 L -2.2072895,0.016013256 L 8.7185884,-4.0017078 C 6.9730900,-1.6296469 6.9831476,1.6157441 8.7185878,4.0337352 z "
         transform="scale(0.6) rotate(180) translate(0,0)" />
    </marker>
    <marker
       inkscape:stockid="Arrow2Lend"
       orient="auto"
       refY="0.0"
       refX="0.0"
       id="Arrow2Lend"
       style="overflow:visible;">
      <path
         id="path17866"
         style="font-size:12.0;fill-rule:evenodd;stroke-width:0.62500000;stroke-linejoin:round;"
         d="M 8.7185878,4.0337352 L -2.2072895,0.016013256 L 8.7185884,-4.0017078 C 6.9730900,-1.6296469 6.9831476,1.6157441 8.7185878,4.0337352 z "
         transform="scale(1.1) rotate(180) translate(1,0)" />
    </marker>
    <marker
       inkscape:stockid="Arrow2Mend"
       orient="auto"
       refY="0.0"
       refX="0.0"
       id="Arrow2Mend-0"
       style="overflow:visible;">
      <path
         id="path17872-9"
         style="font-size:12.0;fill-rule:evenodd;stroke-width:0.62500000;stroke-linejoin:round;"
         d="M 8.7185878,4.0337352 L -2.2072895,0.016013256 L 8.7185884,-4.0017078 C 6.9730900,-1.6296469 6.9831476,1.6157441 8.7185878,4.0337352 z "
         transform="scale(0.6) rotate(180) translate(0,0)" />
    </marker>
    <marker
       inkscape:stockid="Arrow2Lend"
       orient="auto"
       refY="0.0"
       refX="0.0"
       id="Arrow2Lend-7"
       style="overflow:visible;">
      <path
         id="path17866-4"
         style="font-size:12.0;fill-rule:evenodd;stroke-width:0.62500000;stroke-linejoin:round;"
         d="M 8.7185878,4.0337352 L -2.2072895,0.016013256 L 8.7185884,-4.0017078 C 6.9730900,-1.6296469 6.9831476,1.6157441 8.7185878,4.0337352 z "
         transform="scale(1.1) rotate(180) translate(1,0)" />
    </marker>
    <linearGradient
       inkscape:collect="always"
       xlink:href="#linearGradient3600"
       id="linearGradient4040"
       gradientUnits="userSpaceOnUse"
       gradientTransform="translate(14.727922,922.36218)"
       x1="105"
       y1="123"
       x2="-80"
       y2="-112" />
    <linearGradient
       inkscape:collect="always"
       xlink:href="#linearGradient3608"
       id="linearGradient4042"
       gradientUnits="userSpaceOnUse"
       gradientTransform="translate(14.727922,-2)"
       x1="93"
       y1="944.36218"
       x2="80"
       y2="957.36218" />
    <filter
       inkscape:collect="always"
       id="filter5315">
      <feGaussianBlur
         inkscape:collect="always"
         stdDeviation="0.38464685"
         id="feGaussianBlur5317" />
    </filter>
    <linearGradient
       inkscape:collect="always"
       xlink:href="#linearGradient3608"
       id="linearGradient3129"
       gradientUnits="userSpaceOnUse"
       gradientTransform="translate(-156.7706,-4.5355338)"
       x1="93"
       y1="944.36218"
       x2="80"
       y2="957.36218" />
    <linearGradient
       inkscape:collect="always"
       xlink:href="#linearGradient3600"
       id="linearGradient3132"
       gradientUnits="userSpaceOnUse"
       gradientTransform="translate(28.491372,788.30479)"
       x1="105"
       y1="123"
       x2="-80"
       y2="-112" />
    <linearGradient
       inkscape:collect="always"
       xlink:href="#linearGradient3608"
       id="linearGradient3134"
       gradientUnits="userSpaceOnUse"
       gradientTransform="translate(28.756537,-135.969)"
       x1="93"
       y1="944.36218"
       x2="80"
       y2="957.36218" />
    <linearGradient
       inkscape:collect="always"
       xlink:href="#linearGradient3600"
       id="linearGradient3140"
       gradientUnits="userSpaceOnUse"
       gradientTransform="translate(28.491372,788.30479)"
       x1="105"
       y1="123"
       x2="-80"
       y2="-112" />
    <linearGradient
       inkscape:collect="always"
       xlink:href="#linearGradient3608"
       id="linearGradient3142"
       gradientUnits="userSpaceOnUse"
       gradientTransform="translate(28.756537,-135.969)"
       x1="93"
       y1="944.36218"
       x2="80"
       y2="957.36218" />
    <linearGradient
       inkscape:collect="always"
       xlink:href="#linearGradient3608"
       id="linearGradient3373"
       gradientUnits="userSpaceOnUse"
       gradientTransform="translate(19.646256,-0.86872002)"
       x1="93"
       y1="944.36218"
       x2="80"
       y2="957.36218" />
    <linearGradient
       inkscape:collect="always"
       xlink:href="#linearGradient3600"
       id="linearGradient3376"
       gradientUnits="userSpaceOnUse"
       gradientTransform="translate(20.006091,922.65507)"
       x1="105"
       y1="123"
       x2="-80"
       y2="-112" />
  </defs>
  <sodipodi:namedview
     id="base"
     pagecolor="#ffffff"
     bordercolor="#666666"
     borderopacity="1.0"
     inkscape:pageopacity="0.0"
     inkscape:pageshadow="2"
     inkscape:zoom="1"
     inkscape:cx="328.26069"
     inkscape:cy="-191.35607"
     inkscape:document-units="px"
     inkscape:current-layer="layer1"
     showgrid="false"
     inkscape:window-width="1280"
     inkscape:window-height="1002"
     inkscape:window-x="1672"
     inkscape:window-y="-8"
     inkscape:window-maximized="1"
     inkscape:snap-global="false">
    <inkscape:grid
       type="xygrid"
       id="grid2816"
       empspacing="5"
       visible="true"
       enabled="true"
       snapvisiblegridlinesonly="true" />
  </sodipodi:namedview>
  <metadata
     id="metadata7">
    <rdf:RDF>
      <cc:Work
         rdf:about="">
        <dc:format>image/svg+xml</dc:format>
        <dc:type
           rdf:resource="http://purl.org/dc/dcmitype/StillImage" />
        <dc:title />
      </cc:Work>
    </rdf:RDF>
  </metadata>
  <g
     inkscape:label="Layer 1"
     inkscape:groupmode="layer"
     id="layer1"
     transform="translate(0,-924.36218)">
    <path
       style="fill:#ffff00;fill-opacity:0.54117647;stroke:none"
       d=""
       id="path3087-8"
       inkscape:connector-curvature="0" />
    <path
       inkscape:connector-curvature="0"
       style="fill:url(#linearGradient3376);fill-opacity:1;fill-rule:evenodd;stroke:#000000;stroke-width:1px;stroke-linecap:butt;stroke-linejoin:round;stroke-opacity:1;filter:url(#filter5315)"
       d="m 87.278171,930.65507 -60,0 0,115.00003 84.999999,0 0,-90.00003 -24.999999,-25 z"
       id="path2826"
       sodipodi:nodetypes="cccccc" />
    <path
       inkscape:connector-curvature="0"
       style="fill:url(#linearGradient3373);fill-opacity:1;fill-rule:evenodd;stroke:#000000;stroke-width:1px;stroke-linecap:butt;stroke-linejoin:round;stroke-opacity:1;filter:url(#filter5315)"
       d="m 111.91834,956.49346 -25.000004,-25 c 1.863343,8.33333 2.132867,16.66667 0,25 9.905533,-1.93501 17.127774,-0.56751 25.000004,0 z"
       id="rect2822"
       sodipodi:nodetypes="cccc" />
    <path
       style="fill:#1f730b;fill-opacity:0.54117647;stroke:#000000;stroke-width:0.36345288;stroke-linecap:butt;stroke-linejoin:bevel;stroke-miterlimit:4;stroke-opacity:1;stroke-dasharray:none;stroke-dashoffset:0"
       d="m 26.952354,63.757862 c -5.2e-5,-31.501606 0.08676,-44.491911 0.192908,-28.867345 0.106152,15.624566 0.106195,41.398608 9.5e-5,57.275649 -0.106099,15.877034 -0.192951,3.093302 -0.193003,-28.408304 z"
       id="path3230"
       inkscape:connector-curvature="0"
       transform="translate(0,924.36218)" />
    <path
       style="fill:#1f730b;fill-opacity:0.54117647;stroke:#000000;stroke-width:0.36345288;stroke-linecap:butt;stroke-linejoin:bevel;stroke-miterlimit:4;stroke-opacity:1;stroke-dasharray:none;stroke-dashoffset:0"
       d="m 28.736526,93.506685 0,-26.466161 L 57.90468,44.065845 C 89.320058,19.321111 88.391011,19.85487 86.753203,27.491704 c -0.526695,2.455899 -0.546471,3.863094 -0.06111,4.348456 0.437946,0.437946 4.785188,0.646109 11.155759,0.534182 5.740998,-0.100865 10.995028,0.0324 11.675618,0.296144 1.12315,0.435247 1.23744,1.829812 1.23744,15.099525 l 0,14.619988 -36.58968,28.791422 -36.589679,28.791429 -4.422513,0 -4.422514,0 0,-26.466165 z"
       id="path3232"
       inkscape:connector-curvature="0"
       transform="translate(0,924.36218)" />
    <path
       style="fill:#1f730b;fill-opacity:0.54117647;stroke:#000000;stroke-width:0.36345288;stroke-linecap:butt;stroke-linejoin:bevel;stroke-miterlimit:4;stroke-opacity:1;stroke-dasharray:none;stroke-dashoffset:0"
       d="m 28.736526,46.564767 0,-19.73068 12.197592,-9.620028 12.197591,-9.6200274 16.36458,-0.025579 c 18.946974,-0.029615 17.166904,-0.8957957 17.748655,8.6364794 0.320573,5.252729 0.213821,6.187184 -0.706826,6.187184 -1.825146,0 -14.648878,9.685657 -51.260854,38.716895 l -6.540738,5.186436 0,-19.73068 z"
       id="path3234"
       inkscape:connector-curvature="0"
       transform="translate(0,924.36218)" />
    <path
       style="fill:#1f730b;fill-opacity:0.54117647;stroke:#000000;stroke-width:0.36345288;stroke-linecap:butt;stroke-linejoin:bevel;stroke-miterlimit:4;stroke-opacity:1;stroke-dasharray:none;stroke-dashoffset:0"
       d="m 28.736526,16.796146 0,-9.2532717 11.703603,0 11.703602,0 -6.930632,5.4883407 c -3.811847,3.018586 -9.078468,7.182559 -11.703602,9.253272 l -4.772971,3.764932 0,-9.253273 z"
       id="path3236"
       inkscape:connector-curvature="0"
       transform="translate(0,924.36218)" />
    <path
       style="fill:#1f730b;fill-opacity:0.54117647;stroke:#000000;stroke-width:0.36345288;stroke-linecap:butt;stroke-linejoin:bevel;stroke-miterlimit:4;stroke-opacity:1;stroke-dasharray:none;stroke-dashoffset:0"
       d="m 73.759962,92.299086 c 19.37825,-15.22057 35.630928,-27.987454 36.117068,-28.370852 0.704,-0.555223 0.88388,5.076706 0.88388,27.673763 l 0,28.370853 -36.117064,0 -36.117065,0 35.233181,-27.673764 z"
       id="path3238"
       inkscape:connector-curvature="0"
       transform="translate(0,924.36218)" />
    <path
       style="fill:#1f730b;fill-opacity:0.54117647;stroke:#000000;stroke-width:0.36345288;stroke-linecap:butt;stroke-linejoin:bevel;stroke-miterlimit:4;stroke-opacity:1;stroke-dasharray:none;stroke-dashoffset:0"
       d="m 89.792594,27.935445 c 0.2436,-0.909833 0.447255,-2.916164 0.452565,-4.458514 l 0.0097,-2.804272 3.871594,3.823501 c 2.129376,2.102925 3.799916,3.881856 3.71231,3.95318 -0.0876,0.07132 -2.033477,0.357079 -4.324158,0.635013 -4.118523,0.49971 -4.159946,0.486923 -3.721966,-1.148908 l 0,0 z"
       id="path3240"
       inkscape:connector-curvature="0"
       transform="translate(0,924.36218)" />
    <path
       style="fill:#1f730b;fill-opacity:0.54117647;stroke:#000000;stroke-width:0.36345288;stroke-linecap:butt;stroke-linejoin:bevel;stroke-miterlimit:4;stroke-opacity:1;stroke-dasharray:none;stroke-dashoffset:0"
       d="m 95.279551,23.52827 c -2.856104,-2.875294 -5.073764,-5.585267 -4.928132,-6.022162 0.145632,-0.436895 2.96068,1.915618 6.255663,5.227807 3.294983,3.31219 5.512638,6.022162 4.928128,6.022162 -0.58451,0 -3.399554,-2.352513 -6.255659,-5.227807 z"
       id="path3242"
       inkscape:connector-curvature="0"
       transform="translate(0,924.36218)" />
    <path
       style="fill:#1f730b;fill-opacity:0.54117647;stroke:#000000;stroke-width:0.36345288;stroke-linecap:butt;stroke-linejoin:bevel;stroke-miterlimit:4;stroke-opacity:1;stroke-dasharray:none;stroke-dashoffset:0"
       d="m 97.050693,22.470776 c -3.831393,-3.845824 -6.846945,-7.350082 -6.701226,-7.78724 0.14572,-0.437157 3.758336,2.709426 8.028038,6.992408 4.269705,4.282982 7.285255,7.78724 6.701225,7.78724 -0.58403,0 -4.19664,-3.146583 -8.028037,-6.992408 z"
       id="path3244"
       inkscape:connector-curvature="0"
       transform="translate(0,924.36218)" />
    <path
       style="fill:#1f730b;fill-opacity:0.54117647;stroke:#000000;stroke-width:0.09086322;stroke-linecap:butt;stroke-linejoin:bevel;stroke-miterlimit:4;stroke-opacity:1;stroke-dasharray:none;stroke-dashoffset:0"
       d="m 107.58897,29.265154 c -0.29168,-0.132505 -4.32741,-4.047204 -8.968278,-8.699333 -7.147912,-7.165251 -8.455084,-8.553007 -8.550045,-9.077133 -0.09944,-0.548878 0.937829,0.428817 9.189247,8.661426 5.115736,5.10408 9.301346,9.300316 9.301346,9.324971 0,0.114509 -0.49187,0.0083 -0.97227,-0.209931 z"
       id="path3246"
       inkscape:connector-curvature="0"
       transform="translate(0,924.36218)" />
    <path
       style="fill:#1f730b;fill-opacity:0.54117647;stroke:#000000;stroke-width:0.09086322;stroke-linecap:butt;stroke-linejoin:bevel;stroke-miterlimit:4;stroke-opacity:1;stroke-dasharray:none;stroke-dashoffset:0"
       d="m 106.56319,29.3051 c -0.55375,-0.146852 -1.32028,-0.85879 -4.34945,-4.039704 -2.02247,-2.123789 -5.502689,-5.604451 -7.733808,-7.734803 -3.342786,-3.19181 -4.093856,-3.997777 -4.268413,-4.580398 -0.355301,-1.185888 -0.256522,-1.160361 1.00972,0.260944 1.238936,1.390652 13.583111,13.703437 15.429071,15.389834 1.04237,0.952268 1.03621,1.002028 -0.0871,0.704127 l 0,0 z"
       id="path3248"
       inkscape:connector-curvature="0"
       transform="translate(0,924.36218)" />
    <path
       style="fill:#1f730b;fill-opacity:0.54117647;stroke:#000000;stroke-width:0.09086322;stroke-linecap:butt;stroke-linejoin:bevel;stroke-miterlimit:4;stroke-opacity:1;stroke-dasharray:none;stroke-dashoffset:0"
       d=""
       id="path3250"
       inkscape:connector-curvature="0"
       transform="translate(0,924.36218)" />
    <path
       style="fill:#1f730b;fill-opacity:0.54117647;stroke:#000000;stroke-width:0.09086322;stroke-linecap:butt;stroke-linejoin:bevel;stroke-miterlimit:4;stroke-opacity:1;stroke-dasharray:none;stroke-dashoffset:0"
       d="m 98.838521,29.007224 c -0.63909,-0.08518 -0.789878,-0.171592 -0.766928,-0.439479 0.01743,-0.203469 -0.58551,-0.968211 -1.546796,-1.961882 -0.866449,-0.89564 -1.575363,-1.695951 -1.575363,-1.77847 0,-0.08252 0.934707,0.773124 2.077126,1.901429 1.766647,1.744819 2.182822,2.068864 2.784233,2.167882 0.388907,0.06403 0.826427,0.141669 0.972277,0.17253 0.46599,0.09861 -1.118653,0.04807 -1.944549,-0.06201 z"
       id="path3252"
       inkscape:connector-curvature="0"
       transform="translate(0,924.36218)" />
    <path
       style="fill:#1f730b;fill-opacity:0.54117647;stroke:#000000;stroke-width:0.09086322;stroke-linecap:butt;stroke-linejoin:bevel;stroke-miterlimit:4;stroke-opacity:1;stroke-dasharray:none;stroke-dashoffset:0"
       d="m 99.415042,28.580417 c -0.385919,-0.214396 -1.935362,-1.58842 -6.566784,-5.823333 l -2.272827,-2.078243 -0.121976,-1.078125 c -0.129977,-1.148852 -0.03325,-1.589795 0.15787,-0.719646 0.07042,0.320624 0.573428,0.970639 1.298453,1.677937 3.319073,3.23792 8.229962,8.253035 8.076135,8.247532 -0.09632,-0.0034 -0.353208,-0.1052 -0.570871,-0.226122 z"
       id="path3254"
       inkscape:connector-curvature="0"
       transform="translate(0,924.36218)" />
    <path
       style="fill:#1f730b;fill-opacity:0.54117647;stroke:#000000;stroke-width:0.09086322;stroke-linecap:butt;stroke-linejoin:bevel;stroke-miterlimit:4;stroke-opacity:1;stroke-dasharray:none;stroke-dashoffset:0"
       d="m 98.838521,26.446823 c -0.923658,-0.813042 -1.950961,-1.764133 -2.282896,-2.113536 -0.551986,-0.581035 -0.622844,-0.609365 -0.82985,-0.331784 -0.197943,0.265428 -0.06801,0.463601 1.035899,1.579955 0.694227,0.702053 1.214552,1.32414 1.156277,1.382414 -0.05828,0.05828 -0.720182,-0.453957 -1.470904,-1.138292 -1.140908,-1.040018 -1.419362,-1.215127 -1.696447,-1.066836 -0.182322,0.09758 -0.339335,0.114951 -0.348915,0.03861 -0.0096,-0.07634 -0.02947,-0.306541 -0.0442,-0.511555 -0.01633,-0.227364 -0.716274,-1.001622 -1.794541,-1.985074 -1.722365,-1.570912 -1.984627,-1.943712 -2.009935,-2.857085 -0.01153,-0.416062 -9.55e-4,-0.421238 0.180555,-0.08839 0.10604,0.194455 0.994645,1.166441 1.974678,2.159971 1.2944,1.312226 1.880976,1.790803 2.144115,1.749346 0.19923,-0.03139 0.2628,-0.02306 0.141266,0.01851 -0.121534,0.04157 -0.22097,0.144598 -0.22097,0.228958 0,0.277852 0.26402,0.323361 0.57152,0.09851 0.27778,-0.203118 0.260798,-0.261073 -0.208146,-0.71035 l -0.510603,-0.489188 -0.07909,0.416666 c -0.06981,0.367764 -0.08191,0.357462 -0.103162,-0.08777 -0.01704,-0.35698 -0.399089,-0.925408 -1.306969,-1.944543 -1.854553,-2.081819 -1.967628,-2.225984 -1.843384,-2.350228 0.247738,-0.247738 4.66322,3.87383 7.41404,6.920529 2.719381,3.011886 2.766731,3.400664 0.131656,1.081165 z m -2.438627,-3.689141 c -0.128899,-0.155315 -0.11424,-0.351506 0.04906,-0.656644 0.228966,-0.427826 0.232887,-0.424098 0.232887,0.221491 0,0.727204 -0.01735,0.75398 -0.281952,0.435153 l 0,0 z"
       id="path3256"
       inkscape:connector-curvature="0"
       transform="translate(0,924.36218)" />
    <path
       style="fill:#1f730b;fill-opacity:0.54117647;stroke:#000000;stroke-width:0.032125;stroke-linecap:butt;stroke-linejoin:bevel;stroke-miterlimit:4;stroke-opacity:1;stroke-dasharray:none;stroke-dashoffset:0"
       d="m 89.913064,29.038404 c -0.119327,-0.08725 -0.11853,-0.101494 0.05167,-0.922842 0.359269,-1.733792 0.429547,-2.45817 0.476119,-4.907475 l 0.03827,-2.012688 2.782419,2.762688 c 2.789703,2.769921 4.229981,4.271122 4.162514,4.338588 -0.04836,0.04836 -0.403463,0.103569 -2.319933,0.360675 -3.436895,0.461079 -4.931567,0.570796 -5.191055,0.381054 l 0,0 z"
       id="path3350"
       inkscape:connector-curvature="0"
       transform="translate(0,924.36218)" />
    <path
       style="fill:#1f730b;fill-opacity:0.54117647;stroke:#000000;stroke-width:0.032125;stroke-linecap:butt;stroke-linejoin:bevel;stroke-miterlimit:4;stroke-opacity:1;stroke-dasharray:none;stroke-dashoffset:0"
       d="M 104.41209,28.858335 C 101.50141,26.773254 93.614305,18.918406 91.168649,15.669058 90.968797,15.40353 90.82198,15.169581 90.842389,15.149172 c 0.05018,-0.05018 0.896185,0.616524 1.919503,1.512695 3.636141,3.18435 9.547678,9.20861 11.465288,11.683908 0.55389,0.714981 0.58401,0.798455 0.18491,0.51256 l 0,0 z"
       id="path3352"
       inkscape:connector-curvature="0"
       transform="translate(0,924.36218)" />
    <path
       style="fill:#1f730b;fill-opacity:0.54117647;stroke:#000000;stroke-width:0.032125;stroke-linecap:butt;stroke-linejoin:bevel;stroke-miterlimit:4;stroke-opacity:1;stroke-dasharray:none;stroke-dashoffset:0"
       d="m 106.71625,29.257159 c -0.6939,-0.198506 -1.03498,-0.515859 -5.52847,-5.143777 -1.359033,-1.399691 -3.776012,-3.816102 -5.371065,-5.369802 -4.794851,-4.670542 -5.39157,-5.306733 -5.55206,-5.919319 -0.137171,-0.52358 -0.146533,-0.58839 -0.08158,-0.564759 0.03594,0.01308 0.597258,0.586273 1.24737,1.273773 2.415627,2.554549 10.139295,10.265357 14.727825,14.703296 0.72691,0.703056 1.13441,1.138746 1.0625,1.136001 -0.0642,-0.0025 -0.29119,-0.05438 -0.50452,-0.115413 l 0,0 z"
       id="path3354"
       inkscape:connector-curvature="0"
       transform="translate(0,924.36218)" />
    <path
       style="fill:#1f730b;fill-opacity:0.54117647;stroke:#000000;stroke-width:0.032125;stroke-linecap:butt;stroke-linejoin:bevel;stroke-miterlimit:4;stroke-opacity:1;stroke-dasharray:none;stroke-dashoffset:0"
       d="m 104.83855,29.533869 c -0.85398,-0.371176 -3.44395,-2.620002 -6.812556,-5.915215 -1.24673,-1.219568 -1.390625,-1.38129 -1.390625,-1.562923 0,-0.182298 -0.0082,-0.191384 -0.08184,-0.09068 -0.07422,0.101503 -0.20131,-0.0123 -1.365141,-1.222429 -2.544769,-2.646003 -4.268191,-4.649569 -4.802002,-5.582574 -0.173015,-0.302398 -0.193378,-0.378897 -0.134976,-0.507076 0.03783,-0.08302 0.1186,-0.150472 0.179493,-0.149886 0.481958,0.0046 2.724674,1.909673 6.356766,5.399637 0.763296,0.733428 1.186229,1.098267 1.226483,1.058013 0.04025,-0.04025 -1.041901,-1.148275 -3.138188,-3.213203 -3.425472,-3.374229 -4.221683,-4.216316 -4.455478,-4.71219 -0.39076,-0.828794 -0.295265,-0.75899 1.5362,1.122927 0.97015,0.996875 2.805135,2.859343 4.077746,4.138818 2.165004,2.176683 2.320927,2.319901 2.424077,2.226553 0.103335,-0.09352 -0.07882,-0.29206 -2.908336,-3.170069 -1.660217,-1.688666 -3.391382,-3.464052 -3.847033,-3.945302 -0.885665,-0.935422 -1.53206,-1.732134 -1.495156,-1.842848 0.06803,-0.204098 2.750154,2.401341 11.771136,11.434595 6.59855,6.607528 6.57399,6.581086 5.80647,6.252222 -0.38516,-0.16503 -2.62167,-2.291615 -7.28993,-6.931635 -1.760969,-1.750321 -1.864115,-1.841547 -1.966454,-1.739207 -0.133626,0.133625 -0.57539,-0.323376 4.535294,4.691727 2.78351,2.731451 3.98967,3.954275 3.91507,3.969164 -0.17355,0.03464 -0.63463,-0.16995 -0.98662,-0.437786 -0.17948,-0.13657 -2.01556,-1.952934 -4.08018,-4.036363 -2.455308,-2.477684 -3.780147,-3.7718 -3.829878,-3.741064 -0.05054,0.03123 0.464251,0.606045 1.535097,1.714093 2.761311,2.857244 4.314481,4.583929 5.182241,5.761219 0.44199,0.599633 0.54752,0.887251 0.38514,1.049633 -0.0916,0.09154 -0.0948,0.09137 -0.34682,-0.01816 l 0,0 z m -0.0237,-0.484969 c -0.7691,-1.443896 -7.707285,-8.655812 -11.806849,-12.272663 -1.248186,-1.101216 -2.435142,-2.009125 -2.435142,-1.862654 0,0.06932 0.560832,0.845312 1.054771,1.459439 0.694898,0.863984 2.37728,2.737871 3.560804,3.96613 0.566602,0.588017 1.159108,1.203542 1.31668,1.367831 0.665833,0.694216 4.050366,3.955412 4.912776,4.73374 1.56663,1.413898 3.22445,2.748802 3.41374,2.748802 0.032,0 0.0244,-0.06328 -0.0168,-0.140625 l 0,0 z"
       id="path3356"
       inkscape:connector-curvature="0"
       transform="translate(0,924.36218)" />
    <path
       style="fill:#1f730b;fill-opacity:0.54117647;stroke:#000000;stroke-width:0.032125;stroke-linecap:butt;stroke-linejoin:bevel;stroke-miterlimit:4;stroke-opacity:1;stroke-dasharray:none;stroke-dashoffset:0"
       d="m 104.60331,29.342915 c -0.46372,-0.278918 -0.89009,-0.59909 -1.65544,-1.243118 -0.81472,-0.685571 -2.38971,-2.107827 -3.218751,-2.906614 -0.99787,-0.961452 -1.171937,-1.112582 -1.146839,-0.99572 0.05619,0.261648 3.91451,3.76281 5.23866,4.753732 0.24333,0.182095 0.4184,0.339088 0.38905,0.348872 -0.082,0.02733 -1.52086,-0.217378 -1.71525,-0.291717 -0.10978,-0.04199 -0.17187,-0.111751 -0.17187,-0.193126 0,-0.214784 -0.321,-0.688199 -0.46663,-0.688199 -0.0974,0 -0.49012,-0.422878 -1.06482,-1.146643 -0.49925,-0.628748 -1.884265,-2.200565 -2.179646,-2.473627 -0.340786,-0.315035 -0.143666,-0.0462 0.374344,0.510533 0.677645,0.728304 1.706482,1.935492 2.170912,2.547237 0.4542,0.598271 0.62888,0.952217 0.5753,1.165689 -0.0373,0.148436 -0.062,0.159577 -0.28726,0.129361 -0.40563,-0.05441 -1.510437,-0.848279 -2.996544,-2.153206 -0.358074,-0.31442 -0.60295,-0.489048 -0.617969,-0.44069 -0.177716,0.572222 -0.361855,0.899221 -0.361855,0.642596 0,-0.05156 0.02118,-0.09375 0.04706,-0.09375 0.0556,0 0.264271,-0.602598 0.234097,-0.676032 -0.01141,-0.02776 -0.46623,-0.482249 -1.010716,-1.009974 -0.759816,-0.736427 -1.002981,-0.938953 -1.045918,-0.871122 -0.04364,0.06895 -0.05615,0.06052 -0.0569,-0.03834 -0.0013,-0.173226 0.170482,-0.404741 0.299462,-0.403575 0.08103,7.31e-4 0.08648,0.01323 0.02325,0.05332 -0.139437,0.08841 2.622486,2.648984 4.113833,3.813924 0.656,0.512425 1.29369,0.921445 1.34953,0.865602 0.0513,-0.05135 -0.56608,-0.926437 -1.1351,-1.608799 -0.921522,-1.105081 -1.91357,-2.187686 -1.971746,-2.151731 -0.127871,0.07903 -0.0181,0.24644 0.667252,1.017601 0.910012,1.023955 1.588594,1.837336 1.589424,1.905162 9.9e-4,0.08077 -0.45588,-0.272002 -1.304179,-1.007018 -0.425461,-0.368645 -0.882492,-0.764003 -1.015625,-0.878573 -0.174738,-0.150372 -0.242061,-0.180792 -0.242061,-0.109375 0,0.05441 -0.0222,0.09893 -0.04934,0.09893 -0.02714,0 -0.04823,-0.06469 -0.04687,-0.143749 0.0034,-0.200726 -1.776074,-1.918751 -1.987424,-1.918751 -0.181179,0 -0.353862,-0.18074 -0.353862,-0.370373 0,-0.196935 -0.792537,-1.014635 -0.960393,-0.990886 -0.09208,0.01303 -0.21517,-0.110448 -0.480985,-0.482491 -0.196479,-0.275 -0.894735,-1.116583 -1.551678,-1.870183 -1.359678,-1.559729 -1.469487,-1.730573 -0.796567,-1.239318 0.894878,0.65329 3.614826,3.197238 5.324569,4.980028 0.82916,0.864587 1.065107,1.078082 1.107578,1.00219 0.0544,-0.09721 -0.484826,-0.735922 -1.262449,-1.495368 -0.303,-0.295916 -0.317184,-0.3246 -0.309064,-0.625 0.0047,-0.173167 0.02122,-0.247606 0.03675,-0.16542 0.01605,0.08491 0.392019,0.516665 0.870806,1 0.463412,0.467814 0.81436,0.794321 0.779887,0.725571 -0.03447,-0.06875 -0.402042,-0.462061 -0.816817,-0.874023 -0.414776,-0.411963 -0.754138,-0.777211 -0.754138,-0.811663 0,-0.03445 0.39375,0.330357 0.875,0.810686 0.48125,0.480329 0.875,0.832684 0.875,0.783011 0,-0.04967 -0.407812,-0.501407 -0.90625,-1.003853 -0.526007,-0.530236 -0.90625,-0.963196 -0.90625,-1.031891 0,-0.131089 -0.06492,-0.189765 1.90759,1.724185 2.503022,2.42872 3.947182,3.72859 5.377822,4.840534 0.6111,0.474964 0.90209,0.630283 0.90209,0.4815 0,-0.204406 -1.13122,-1.598061 -2.59523,-3.197304 -1.02951,-1.124603 -2.964251,-3.146025 -3.043176,-3.179515 -0.207443,-0.08803 0.143315,0.327357 1.380566,1.634922 2.049,2.165442 3.93434,4.32399 3.85021,4.408128 -0.10016,0.100157 -2.93574,-2.373912 -4.904194,-4.278955 -0.462137,-0.447249 -0.817437,-0.744276 -0.868753,-0.726267 -0.0522,0.01832 -0.06974,0.0028 -0.04397,-0.03887 0.02478,-0.0401 -0.221154,-0.322746 -0.583083,-0.670133 -0.843308,-0.809428 -3.985777,-4.097461 -4.953534,-5.182991 -0.858691,-0.96319 -2.051339,-2.408711 -2.051339,-2.486277 0,-0.0924 0.217884,0.06807 1.068696,0.787066 1.355393,1.14541 3.068832,2.741724 5.095527,4.747217 1.311623,1.297901 1.893792,1.835081 1.918628,1.77036 0.06709,-0.174845 -5.047216,-5.096134 -6.926601,-6.66518 -0.709778,-0.592574 -1.511071,-1.184436 -1.603551,-1.184436 -0.326068,0 1.347105,2.06524 3.78973,4.677759 0.653852,0.699329 1.41025,1.50915 1.680886,1.799602 0.475446,0.510257 0.580641,0.708581 0.266756,0.502916 -0.161211,-0.10563 -2.565904,-2.634542 -3.547046,-3.730277 -1.206215,-1.347095 -2.199157,-2.604868 -2.457146,-3.112499 -0.118055,-0.232291 -0.08036,-0.450296 0.07771,-0.449414 0.16944,9.45e-4 0.68693,0.328847 1.314722,0.833061 1.328314,1.06684 5.142776,4.583746 6.642354,6.124201 0.759859,0.780572 0.856595,0.860382 0.895245,0.738605 0.03746,-0.11804 -0.475741,-0.654805 -3.789412,-3.963367 -4.053159,-4.046911 -4.827414,-4.864086 -5.042841,-5.322387 -0.07351,-0.156385 -0.133655,-0.297939 -0.133655,-0.314562 0,-0.01662 3.716559,3.682137 8.259019,8.219466 4.542462,4.537331 8.245862,8.262848 8.229782,8.278927 -0.0161,0.01608 -0.18186,-0.04512 -0.36839,-0.136005 -0.27659,-0.134754 -0.95774,-0.781704 -3.69202,-3.506637 -2.950081,-2.939993 -3.358102,-3.324889 -3.396478,-3.203978 -0.05247,0.165325 -0.01548,0.209212 1.618738,1.920617 2.09094,2.1897 3.79862,4.179492 4.10892,4.787739 0.13731,0.269146 0.13274,0.501965 -0.0104,0.529198 -0.052,0.0099 -0.26294,-0.08329 -0.46875,-0.207075 l 0,0 z"
       id="path3358"
       inkscape:connector-curvature="0"
       transform="translate(0,924.36218)" />
    <path
       style="fill:#1f730b;fill-opacity:0.54117647;stroke:#000000;stroke-width:0.032125;stroke-linecap:butt;stroke-linejoin:bevel;stroke-miterlimit:4;stroke-opacity:1;stroke-dasharray:none;stroke-dashoffset:0"
       d="m 103.04162,29.346337 c -0.37813,-0.04318 -1.01094,-0.11291 -1.40625,-0.154948 -0.39531,-0.04204 -0.73523,-0.103067 -0.75537,-0.13562 -0.0201,-0.03255 -0.22322,-0.09011 -0.45129,-0.127902 -0.22807,-0.03779 -0.40143,-0.09014 -0.38525,-0.116319 0.0277,-0.04487 -0.891525,-1.116681 -1.116298,-1.301551 -0.0905,-0.07444 -0.104293,-0.07097 -0.104293,0.02625 0,0.06161 0.186458,0.305161 0.414352,0.541218 0.618971,0.641143 0.455107,0.647437 -0.324469,0.01246 l -0.354399,-0.288662 -0.126154,0.126154 -0.126154,0.126155 0.228863,0.200944 c 0.476183,0.418094 0.780994,0.603685 1.131711,0.689067 l 0.1875,0.04565 -0.18914,0.0064 c -0.363046,0.01228 -1.249464,-0.126424 -1.388985,-0.217344 -0.07783,-0.05072 -0.140625,-0.155188 -0.140625,-0.233944 0,-0.07827 -0.121925,-0.30965 -0.270944,-0.514184 -0.268724,-0.368831 -1.31092,-1.544835 -1.627009,-1.8359 -0.0905,-0.08334 -0.164547,-0.1772 -0.164547,-0.208587 0,-0.03139 0.485156,0.408391 1.078125,0.977284 l 1.078125,1.03435 0.125,-0.127471 0.125,-0.127471 -0.40625,-0.369139 c -0.38633,-0.35104 -0.397616,-0.369191 -0.230163,-0.370168 0.152804,-8.92e-4 0.170719,-0.01962 0.135489,-0.141653 -0.02579,-0.08934 0.108367,0.01892 0.367896,0.296875 0.292547,0.313321 0.409314,0.404081 0.411386,0.31976 0.0016,-0.06476 -0.196225,-0.327358 -0.439591,-0.583559 -0.243365,-0.2562 -0.427317,-0.480984 -0.408782,-0.49952 0.01854,-0.01853 0.245435,0.155801 0.504222,0.387413 0.320956,0.287255 0.502774,0.408737 0.57199,0.382176 0.07081,-0.02717 0.09116,-0.01208 0.06736,0.04996 -0.0547,0.142548 1.455894,1.319214 2.113944,1.646635 0.28002,0.139329 1.40442,0.355923 1.85937,0.358171 0.16329,8.07e-4 0.29688,0.02256 0.29688,0.04834 0,0.02578 0.10547,0.04896 0.23437,0.05151 0.12891,0.0025 0.36094,0.02715 0.51563,0.05468 l 0.28125,0.05004 -0.3125,4.87e-4 c -0.17188,2.69e-4 -0.62188,-0.03485 -1,-0.07803 l 0,-10e-7 z"
       id="path3360"
       inkscape:connector-curvature="0"
       transform="translate(0,924.36218)" />
    <path
       style="fill:#1f730b;fill-opacity:0.54117647;stroke:#000000;stroke-width:0.032125;stroke-linecap:butt;stroke-linejoin:bevel;stroke-miterlimit:4;stroke-opacity:1;stroke-dasharray:none;stroke-dashoffset:0"
       d="m 103.82287,29.209942 c -0.53361,-0.08558 -1.23355,-0.231917 -1.31851,-0.275658 -0.0549,-0.02825 -0.14935,-0.18121 -0.20995,-0.339911 -0.0761,-0.199368 -0.19401,-0.349981 -0.38139,-0.487323 -0.14915,-0.109326 -0.711,-0.719088 -1.24856,-1.355025 -0.53755,-0.635938 -1.106842,-1.289196 -1.265087,-1.451685 -0.509584,-0.523251 -0.233701,-0.386556 0.375741,0.186174 1.004666,0.944143 2.415456,2.188734 3.297756,2.909265 0.98099,0.801121 1.04711,0.859116 0.96652,0.847734 -0.0331,-0.0047 -0.13058,-0.01979 -0.21652,-0.03357 z"
       id="path3362"
       inkscape:connector-curvature="0"
       transform="translate(0,924.36218)" />
    <path
       style="fill:#1f730b;fill-opacity:0.54117647;stroke:#000000;stroke-width:0.032125;stroke-linecap:butt;stroke-linejoin:bevel;stroke-miterlimit:4;stroke-opacity:1;stroke-dasharray:none;stroke-dashoffset:0"
       d=""
       id="path3364"
       inkscape:connector-curvature="0"
       transform="translate(0,924.36218)" />
    <path
       style="fill:#1f730b;fill-opacity:0.54117647;stroke:#000000;stroke-width:0.032125;stroke-linecap:butt;stroke-linejoin:bevel;stroke-miterlimit:4;stroke-opacity:1;stroke-dasharray:none;stroke-dashoffset:0"
       d="m 95.883564,21.715552 c -1.649725,-1.678393 -4.322321,-3.97417 -5.031209,-4.321841 -0.306384,-0.150265 -0.322652,-0.171196 -0.395267,-0.508575 -0.08944,-0.415544 -0.192061,-1.203791 -0.194789,-1.496174 -0.0026,-0.277112 0.101534,-0.199378 0.154736,0.115522 0.06645,0.393337 0.204449,0.622541 0.374808,0.622541 0.1119,0 0.308964,0.191587 0.81966,0.796875 1.235836,1.464741 2.349005,2.677366 4.331728,4.71875 0.25875,0.266406 0.442178,0.484375 0.407616,0.484375 -0.03456,0 -0.244839,-0.185163 -0.467283,-0.411473 z"
       id="path3366"
       inkscape:connector-curvature="0"
       transform="translate(0,924.36218)" />
    <path
       style="fill:#1f730b;fill-opacity:0.54117647;stroke:#000000;stroke-width:0.032125;stroke-linecap:butt;stroke-linejoin:bevel;stroke-miterlimit:4;stroke-opacity:1;stroke-dasharray:none;stroke-dashoffset:0"
       d="m 93.822869,19.712055 c -0.952599,-0.870241 -2.443708,-2.07068 -2.886677,-2.323961 -0.336807,-0.192579 -0.358836,-0.220293 -0.420507,-0.529022 -0.192133,-0.961838 -0.252377,-1.668324 -0.100894,-1.183191 0.09816,0.314364 0.195199,0.444589 0.385086,0.516784 0.07612,0.02894 0.625115,0.609603 1.219995,1.290364 0.59488,0.68076 1.320186,1.490871 1.61179,1.800246 0.291605,0.309375 0.642588,0.682031 0.779962,0.828125 0.448473,0.476939 0.145528,0.271455 -0.588755,-0.399345 z"
       id="path3368"
       inkscape:connector-curvature="0"
       transform="translate(0,924.36218)" />
    <path
       style="fill:#1f730b;fill-opacity:0.54117647;stroke:#000000;stroke-width:0.0160625;stroke-linecap:butt;stroke-linejoin:bevel;stroke-miterlimit:4;stroke-opacity:1;stroke-dasharray:none;stroke-dashoffset:0"
       d="m 102.31827,29.235876 c -1.07897,-0.124031 -1.32418,-0.161378 -1.43466,-0.218508 -0.0467,-0.02415 -0.23787,-0.076 -0.42484,-0.115233 -0.19444,-0.0408 -0.3563,-0.09191 -0.37817,-0.119408 -0.437379,-0.549843 -0.587059,-0.726415 -0.85535,-1.009017 -0.175409,-0.184766 -0.337491,-0.335938 -0.360182,-0.335938 -0.02269,0 -0.157125,-0.137109 -0.298741,-0.304687 -0.141616,-0.167579 -0.314541,-0.364454 -0.384278,-0.4375 -0.06974,-0.07305 -0.116371,-0.132813 -0.103631,-0.132813 0.01274,0 0.16684,0.120923 0.342444,0.268717 0.175604,0.147795 0.361468,0.290389 0.41303,0.316876 0.05156,0.02649 0.229542,0.178175 0.39551,0.337086 0.428738,0.410506 1.319818,1.069786 1.810018,1.339166 0.31861,0.175084 1.18357,0.368258 1.84336,0.41168 0.18157,0.01195 0.37141,0.03993 0.42187,0.06219 l 0.0917,0.04046 -0.0937,-3.45e-4 c -0.0516,-1.9e-4 -0.49453,-0.04641 -0.98437,-0.102725 l 0,0 z"
       id="path3370"
       inkscape:connector-curvature="0"
       transform="translate(0,924.36218)" />
    <path
       style="fill:#1f730b;fill-opacity:0.54117647;stroke:#000000;stroke-width:0.06425;stroke-linecap:butt;stroke-linejoin:bevel;stroke-miterlimit:4;stroke-opacity:1;stroke-dasharray:none;stroke-dashoffset:0"
       d="m 89.502643,21.079586 c 1.95e-4,-0.9625 0.01982,-1.339726 0.0436,-0.838281 0.02379,0.501445 0.02363,1.288945 -3.55e-4,1.75 -0.02398,0.461055 -0.04344,0.05078 -0.04325,-0.911719 z"
       id="path3378"
       inkscape:connector-curvature="0"
       transform="translate(0,924.36218)" />
    <path
       style="fill:#1f730b;fill-opacity:0.54117647;stroke:#000000;stroke-width:0.06425;stroke-linecap:butt;stroke-linejoin:bevel;stroke-miterlimit:4;stroke-opacity:1;stroke-dasharray:none;stroke-dashoffset:0"
       d="m 88.7228,30.544411 c -0.178327,-0.05944 -0.190251,-0.556551 -0.01749,-0.729309 0.125977,-0.125976 0.875544,-4.948493 0.862332,-5.548016 -0.0063,-0.284324 -0.01618,-0.289959 -0.109993,-0.0625 -0.05812,0.140927 -0.07354,-0.281733 -0.03535,-0.96875 0.04672,-0.840405 0.0253,-1.21875 -0.06902,-1.21875 -0.09015,0 -0.152608,-0.585889 -0.18322,-1.71875 -0.02751,-1.018103 -0.132108,-2.075423 -0.256589,-2.593703 -0.214874,-0.894638 -0.285688,-2.312546 -0.115495,-2.312546 0.05206,0 0.07416,0.257704 0.0491,0.572675 -0.02505,0.314972 0.01398,0.80716 0.08674,1.09375 0.07276,0.286591 0.197618,0.830449 0.277472,1.208574 0.07985,0.378125 0.201552,0.828125 0.270439,1 l 0.125249,0.3125 0.115804,-0.306005 c 0.142334,-0.376112 -0.006,-2.103646 -0.159755,-1.86102 -0.07051,0.111232 -0.106512,0.03132 -0.107787,-0.239225 -0.0011,-0.223437 -0.05816,-0.40625 -0.126914,-0.40625 -0.06875,0 -0.125313,-0.154687 -0.125697,-0.34375 -3.83e-4,-0.189062 -0.05362,-0.540625 -0.11831,-0.78125 -0.140936,-0.524259 -0.51143,-3.358791 -0.49293,-3.771257 0.01399,-0.311895 0.293198,1.36458 0.425122,2.552583 0.0439,0.395354 0.160146,0.799149 0.258319,0.897321 0.213281,0.213282 0.239525,0.498826 0.03418,0.371917 -0.09013,-0.0557 -0.110353,-0.03424 -0.05386,0.05716 0.04975,0.08049 0.141726,0.114663 0.204396,0.07593 0.06267,-0.03873 0.150347,0.157225 0.194838,0.435461 0.04449,0.278235 0.126923,0.505882 0.183181,0.505882 0.12162,0 -0.228113,-1.243135 -0.41367,-1.470403 -0.07606,-0.09316 -0.103199,-0.528804 -0.06618,-1.0625 0.04022,-0.579913 0.02295,-0.814865 -0.04811,-0.654596 -0.07881,0.177733 -0.09315,0.105467 -0.04961,-0.25 0.03566,-0.291096 0.01785,-0.430477 -0.04261,-0.333599 -0.07034,0.112704 -0.129684,0.01186 -0.183891,-0.3125 -0.04402,-0.263396 -0.111712,-0.619526 -0.150433,-0.791401 l -0.0704,-0.3125 0.17058,0.28517 c 0.09382,0.156844 0.200831,0.254919 0.237806,0.217944 0.03697,-0.03697 0.134747,0.158136 0.217272,0.43358 0.106374,0.355045 0.21887,0.500806 0.386515,0.500806 0.130059,0 0.361358,0.182812 0.513998,0.40625 0.15264,0.223437 0.590647,0.729687 0.973349,1.125 0.382702,0.395312 0.630589,0.71875 0.550861,0.71875 -0.07973,0 -0.181133,-0.05853 -0.225344,-0.130065 -0.120725,-0.195338 -1.02894,-0.744935 -1.231012,-0.744935 -0.280511,0 -0.302426,0.232711 -0.146388,1.554455 0.135397,1.146899 0.129261,1.259314 -0.08018,1.46875 -0.281474,0.281474 -0.286396,0.431017 -0.01911,0.580598 0.165442,0.09259 0.202275,0.283332 0.181088,0.937791 -0.04886,1.509421 0.04871,1.682977 2.122983,3.775949 1.024785,1.034025 1.863244,1.933271 1.863244,1.998326 0,0.06505 -0.7875,-0.667712 -1.75,-1.62837 -0.9625,-0.960658 -1.75,-1.662615 -1.75,-1.559906 0,0.10271 1.434375,1.620292 3.1875,3.372406 1.753125,1.752114 3.1875,3.222489 3.1875,3.267499 0,0.176321 -5.179279,0.855871 -6.53125,0.856935 -0.837214,6.25e-4 -0.816841,0.05695 -0.52001,-1.436934 0.202139,-1.017322 0.425101,-4.437804 0.289263,-4.437608 -0.04097,6e-5 -0.111933,0.739756 -0.157686,1.64377 -0.04575,0.904012 -0.198597,2.209981 -0.339652,2.902149 -0.247188,1.212973 -0.248267,1.264703 -0.02981,1.430249 0.274984,0.208389 1.1517,0.152225 4.66358,-0.298756 2.682016,-0.344415 3.028916,-0.409419 2.974763,-0.557435 -0.02018,-0.05516 -0.730505,-0.835951 -1.578497,-1.735083 -0.847991,-0.899132 -1.487739,-1.634786 -1.421662,-1.634786 0.06608,0 0.834717,0.737548 1.708091,1.638993 1.315313,1.357591 1.575719,1.687732 1.516704,1.92287 -0.12094,0.481862 0.488147,0.628146 2.301166,0.55267 0.17188,-0.0071 0.5375,0.01701 0.8125,0.05369 0.275,0.03669 1.00176,0.101363 1.61503,0.143727 0.61326,0.04236 1.20389,0.123651 1.3125,0.180643 0.10861,0.05699 0.49279,0.1435 0.85372,0.192242 0.64134,0.08661 0.65625,0.08147 0.65625,-0.226034 0,-0.17306 -0.19687,-0.572575 -0.4375,-0.887811 -0.6191,-0.811072 -0.54308,-0.851769 0.21875,-0.117103 0.36094,0.348068 0.83232,0.752988 1.04752,0.899821 0.21519,0.146835 0.41751,0.404263 0.44959,0.572063 0.072,0.376766 -0.0812,0.427249 -1.52836,0.503535 -0.72972,0.03847 -0.9059,0.02472 -0.5625,-0.04391 0.59495,-0.118895 0.51219,-0.148107 -0.5625,-0.198534 -0.44687,-0.02097 -1.43125,-0.07773 -2.1875,-0.126135 -1.63093,-0.104393 -2.909484,-0.08275 -3.397001,0.0575 l -0.352995,0.10155 0.3125,0.132189 c 0.245367,0.103791 0.01711,0.132004 -1.0625,0.131326 -0.878053,-5e-4 -1.284646,-0.03969 -1.125,-0.108291 0.164825,-0.07083 -0.143937,-0.110422 -0.90625,-0.116214 -0.681643,-0.0052 -1.15625,-0.0601 -1.15625,-0.133786 0,-0.165609 -0.837606,-0.161631 -0.94026,0.0045 -0.04401,0.07121 -0.28639,0.126226 -0.538627,0.122265 -0.252237,-0.004 -0.824238,0.04826 -1.271113,0.116043 -1.511913,0.229332 -2.460426,0.33292 -2.605523,0.284554 z m 13.00396,-0.737714 c -0.0902,-0.03611 -0.19805,-0.03167 -0.23958,0.0099 -0.0415,0.04154 0.0323,0.07108 0.16406,0.06565 0.14562,-0.006 0.17524,-0.03562 0.0755,-0.07552 l 0,5e-6 z m -0.5,-0.125 c -0.0902,-0.03611 -0.19805,-0.03167 -0.23958,0.0099 -0.0415,0.04154 0.0323,0.07108 0.16406,0.06565 0.14562,-0.006 0.17524,-0.03562 0.0755,-0.07552 l 0,5e-6 z M 89.703323,29.267086 c -0.09914,-0.06127 -0.208385,-0.08328 -0.24276,-0.04891 -0.03437,0.03438 0.01862,0.112632 0.11776,0.173906 0.09914,0.06127 0.208385,0.08328 0.24276,0.04891 0.03437,-0.03438 -0.01862,-0.112632 -0.11776,-0.173906 z m 0.09106,-7.21875 c -0.02697,-0.257812 -0.04903,-0.04687 -0.04903,0.46875 0,0.515625 0.02206,0.726563 0.04903,0.46875 0.02697,-0.257812 0.02697,-0.679687 0,-0.9375 z m 0.73327,-0.885492 c -0.182438,-0.182439 -0.198905,-0.152043 -0.194324,0.358707 l 0.005,0.558035 0.194324,-0.358707 c 0.176387,-0.325597 0.175925,-0.377105 -0.005,-0.558035 l 0,0 z m -0.102975,-0.419195 c -0.07726,-0.231778 -0.346354,-0.27022 -0.346354,-0.04948 0,0.108854 0.08906,0.197916 0.197917,0.197916 0.108854,0 0.175651,-0.0668 0.148437,-0.148437 z m -0.956095,-4.560937 c -0.147355,-0.253402 -0.182939,-0.172295 -0.06232,0.142042 0.04287,0.111713 0.104274,0.176782 0.136458,0.144599 0.03218,-0.03218 -0.0012,-0.161172 -0.07414,-0.286641 z"
       id="path3380"
       inkscape:connector-curvature="0"
       transform="translate(0,924.36218)" />
    <path
       style="fill:#1f730b;fill-opacity:0.54117647;stroke:#000000;stroke-width:0.06425;stroke-linecap:butt;stroke-linejoin:bevel;stroke-miterlimit:4;stroke-opacity:1;stroke-dasharray:none;stroke-dashoffset:0"
       d="m 89.78626,15.985663 c -0.12626,-0.429592 -0.279797,-1.266574 -0.341192,-1.85996 -0.0614,-0.593386 -0.169029,-1.22986 -0.239186,-1.414387 -0.191457,-0.503568 -0.144091,-0.680702 0.07428,-0.277785 0.105505,0.19467 0.561349,0.716262 1.012985,1.159093 0.789987,0.774587 0.95912,1.093249 0.429937,0.810038 -0.138408,-0.07407 -0.346164,-0.09841 -0.46168,-0.05408 -0.184971,0.07098 -0.199573,0.220065 -0.12239,1.249552 0.0482,0.642925 0.0402,1.168877 -0.01778,1.168782 -0.05798,-9.5e-5 -0.208719,-0.351658 -0.334979,-0.78125 l 0,0 z"
       id="path3382"
       inkscape:connector-curvature="0"
       transform="translate(0,924.36218)" />
    <path
       style="fill:#1f730b;fill-opacity:0.54117647;stroke:#000000;stroke-width:0.06425;stroke-linecap:butt;stroke-linejoin:bevel;stroke-miterlimit:4;stroke-opacity:1;stroke-dasharray:none;stroke-dashoffset:0"
       d="m 108.76582,31.800595 c -0.74651,-0.105001 -0.5717,-0.261448 0.2354,-0.210666 l 0.8271,0.05204 0,-0.432302 c 0,-0.237768 -0.0984,-0.624695 -0.21875,-0.859839 -0.20246,-0.395705 -0.27379,-0.43333 -0.95809,-0.505374 -0.40664,-0.04281 -0.76724,-0.04995 -0.80132,-0.01587 -0.0341,0.03408 0.0401,0.174815 0.16497,0.312736 0.26161,0.289079 0.21211,0.300662 -0.73186,0.171276 -0.36764,-0.05039 -0.57995,-0.141911 -0.57995,-0.25 0,-0.195932 -0.1459,-0.222121 -0.31875,-0.05721 -0.1301,0.124133 -5.70418,0.02491 -5.62684,-0.100163 0.0577,-0.09324 -7.427694,-0.05651 -7.521114,0.03691 -0.03692,0.03692 0.03893,0.0505 0.168544,0.03018 0.129615,-0.02032 0.404413,0.0057 0.610663,0.05788 0.237012,0.05993 0.0089,0.08131 -0.619906,0.05809 -0.713564,-0.02634 -1.043056,0.01142 -1.165178,0.133542 -0.09365,0.09365 -0.292818,0.166318 -0.442594,0.161486 -0.263137,-0.0085 -0.26389,-0.01241 -0.02232,-0.116214 0.19362,-0.0832 0.130193,-0.10941 -0.28125,-0.116214 -0.292187,-0.0048 -0.53125,0.03603 -0.53125,0.0908 0,0.05477 -0.267187,0.107 -0.59375,0.116063 -0.326562,0.0091 -0.840929,0.05329 -1.143037,0.09828 l -0.549287,0.0818 0.07412,-0.416614 c 0.04077,-0.229138 0.163628,-0.831588 0.273023,-1.338778 0.18241,-0.845707 0.182136,-0.99752 -0.0033,-1.831031 -0.294491,-1.323682 -0.224139,-5.753984 0.09507,-5.987112 0.276572,-0.201987 0.300684,-1.257467 0.104446,-4.572193 -0.244147,-4.123986 -0.362118,-5.478748 -0.499427,-5.735311 -0.07258,-0.135618 -0.09732,-0.336851 -0.05498,-0.447184 0.06168,-0.160739 0.137138,-0.119066 0.37969,0.209695 0.166491,0.225665 0.3587,0.410301 0.427131,0.410301 0.160648,0 0.367339,0.333078 0.287177,0.462781 -0.0339,0.05485 -0.0021,0.09972 0.07075,0.09972 0.07281,0 0.132377,0.08485 0.132377,0.188559 0,0.155168 -0.04284,0.161805 -0.241914,0.03748 -0.133053,-0.08309 -0.208737,-0.204761 -0.168187,-0.270373 0.04293,-0.06947 0.0064,-0.07765 -0.08759,-0.0196 -0.121236,0.07493 -0.08796,0.155034 0.133924,0.322401 0.162383,0.122486 0.352847,0.212875 0.423254,0.200864 0.07041,-0.01201 0.110188,0.08225 0.0884,0.209457 -0.02673,0.156071 0.01017,0.20053 0.11344,0.136703 0.151151,-0.09342 0.14361,-0.03675 -0.09658,0.725753 -0.0379,0.120312 -0.01022,0.21875 0.06151,0.21875 0.07173,0 0.156138,-0.09844 0.187578,-0.21875 0.03799,-0.145392 0.06203,-0.111857 0.07167,0.1 0.008,0.175312 0.08481,0.393902 0.17075,0.485755 0.12808,0.136896 0.105544,0.154781 -0.125,0.0992 -0.35235,-0.08494 -0.354579,0.0021 -0.0095,0.369486 0.247245,0.26318 0.251282,0.289307 0.04469,0.289307 -0.204877,0 -0.218254,0.07644 -0.136727,0.78125 0.0497,0.429687 0.08705,1.118749 0.08298,1.531249 l -0.0074,0.75 0.737649,0.471689 c 1.218185,0.778966 5.290793,4.473683 5.119766,4.64471 -0.03305,0.03305 -0.8735,-0.702441 -1.867676,-1.634417 -1.982146,-1.858134 -3.771834,-3.276756 -3.847495,-3.049772 -0.06241,0.187232 1.441494,2.142923 2.721902,3.539584 0.863484,0.941883 1.14931,1.340706 0.960846,1.340706 -0.08734,0 -2.77643,-3.07154 -3.14394,-3.591081 -0.205648,-0.290719 -0.4121,-0.529782 -0.458784,-0.53125 -0.04668,-0.0015 -0.102933,0.517155 -0.125,1.152496 -0.03983,1.146879 -0.03743,1.157563 0.334793,1.489669 0.206203,0.183978 0.335881,0.373539 0.288173,0.421246 -0.04771,0.04771 -0.233881,-0.07203 -0.413718,-0.266073 -0.444952,-0.480112 -0.59564,-0.237838 -0.493927,0.79413 0.04237,0.4299 0.03036,1.358025 -0.0267,2.0625 l -0.103741,1.280863 -0.06912,-1.625 c -0.05044,-1.185813 -0.06733,-0.821452 -0.0625,1.348147 0.0045,2.025249 -0.03706,3.001632 -0.130402,3.062499 -0.07537,0.04914 -0.172089,0.351887 -0.214941,0.67276 l -0.07791,0.583407 0.482086,0.08145 c 0.501943,0.0848 2.79958,-0.142079 5.858878,-0.578537 1.166717,-0.166452 1.838589,-0.213019 1.9375,-0.134287 0.213412,0.169874 1.044415,0.273147 2.737485,0.340198 1.35548,0.05368 1.48379,0.08059 1.77557,0.372365 0.26801,0.268015 0.42846,0.314501 1.08549,0.314501 0.62185,0 0.74467,-0.03171 0.63494,-0.163917 -0.11038,-0.133 0.005,-0.153744 0.6097,-0.109977 0.79572,0.05756 0.83436,0.02326 0.61724,-0.547805 -0.0707,-0.185885 -0.1075,-0.358978 -0.0818,-0.384651 0.0257,-0.02567 0.30879,0.184044 0.62915,0.466039 0.51324,0.451767 0.64555,0.508445 1.11307,0.476776 0.29183,-0.01977 0.98669,0.0085 1.54415,0.06274 0.99645,0.09702 1.01702,0.105943 1.21875,0.52898 0.11286,0.236663 0.20519,0.681514 0.20519,0.988556 0,0.466992 -0.0392,0.558259 -0.23977,0.558259 -0.13188,0 -0.31469,0.01941 -0.40625,0.04313 -0.0916,0.02372 -0.33523,0.01939 -0.54148,-0.0096 l 0,6e-6 z m -7.5,-2.033509 c 0.0425,-0.06875 -0.0104,-0.125 -0.11762,-0.125 -0.10718,0 -0.19488,0.05625 -0.19488,0.125 0,0.06875 0.0529,0.125 0.11763,0.125 0.0647,0 0.15238,-0.05625 0.19487,-0.125 z M 89.718131,27.677215 c 0.126994,-0.603695 0.222863,-1.322629 0.213041,-1.597629 -0.01775,-0.496919 -0.01815,-0.497304 -0.06466,-0.0625 -0.05095,0.476304 -0.387091,2.285054 -0.499451,2.6875 -0.03839,0.1375 -0.02706,0.209559 0.02519,0.160129 0.05224,-0.04943 0.198887,-0.583804 0.325882,-1.1875 z m -0.428906,-1.642451 c -0.09805,-0.112848 -0.209304,-0.289553 -0.247222,-0.392678 -0.03792,-0.103125 -0.07338,-0.02274 -0.07881,0.178625 -0.0054,0.201369 0.05933,0.557493 0.143907,0.791385 l 0.153776,0.425259 0.103315,-0.398706 c 0.07442,-0.287187 0.05345,-0.456097 -0.07496,-0.603885 l 0,0 z m 0.332878,-1.243048 c 0.05076,-0.507715 0.03476,-0.760668 -0.045,-0.711373 -0.06808,0.04207 -0.123776,0.420053 -0.123776,0.839953 0,0.95108 0.06585,0.900913 0.16878,-0.12858 l 0,0 z m -0.07924,-2.880155 c 0.02647,-1.076336 0.08234,-2.0976 0.124139,-2.269475 0.06852,-0.281744 0.08659,-0.26329 0.183609,0.1875 0.05918,0.275 0.107956,0.689745 0.108385,0.921655 l 7.75e-4,0.421656 0.256775,-0.296065 c 0.236062,-0.272177 0.251675,-0.412097 0.193511,-1.734155 -0.0348,-0.79095 -0.06397,-1.803716 -0.06483,-2.250591 -0.0021,-1.073013 -0.153297,-2.655279 -0.245034,-2.563542 -0.03998,0.03998 -0.05696,0.534315 -0.03773,1.098512 0.01923,0.564197 0.0013,0.992152 -0.03983,0.951011 -0.04114,-0.04114 -0.155906,-0.434504 -0.255035,-0.874141 -0.367994,-1.632063 -0.460998,-1.986839 -0.520844,-1.986839 -0.06799,0 0.04964,2.966833 0.183372,4.624999 0.104459,1.295177 0.02001,4.069307 -0.100839,3.3125 l -0.07984,-0.5 -0.148064,0.351888 c -0.180962,0.430074 -0.199779,2.335612 -0.02306,2.335612 0.06875,0 0.124139,0.09844 0.123086,0.21875 -0.0016,0.186944 -0.01953,0.191488 -0.123086,0.03125 -0.13648,-0.211188 -0.163008,-0.119495 -0.05036,0.174064 0.06743,0.175721 0.09358,0.175571 0.270704,-0.0016 0.156761,-0.156761 0.205711,-0.58834 0.244198,-2.153037 l 0,-2e-6 z m 0.249989,0.261775 c -0.02864,-0.189062 -0.05207,-0.03438 -0.05207,0.34375 0,0.378125 0.02343,0.532813 0.05207,0.34375 0.02864,-0.189062 0.02864,-0.498437 0,-0.6875 z m -0.563837,-9.524648 c 0.02974,-0.202619 0.008,-0.339924 -0.04831,-0.305123 -0.10022,0.06194 -0.149317,0.673522 -0.05407,0.673522 0.02657,0 0.07264,-0.16578 0.102382,-0.368399 z m 0.474305,0.321204 c 0,-0.02596 -0.09844,-0.124394 -0.21875,-0.21875 -0.198257,-0.155484 -0.202678,-0.151062 -0.04719,0.0472 0.163296,0.208218 0.265944,0.274434 0.265944,0.171555 z m -0.377779,-1.921555 c -0.0015,-0.05156 -0.115441,-0.234375 -0.253138,-0.40625 -0.137697,-0.171875 -0.234884,-0.232113 -0.215971,-0.133862 0.03151,0.163696 0.35578,0.633862 0.437168,0.633862 0.0191,0 0.03347,-0.04219 0.03194,-0.09375 z m 17.815279,20.468749 c -0.0894,-0.144591 0.23602,-0.144591 0.6875,0 0.2807,0.0899 0.26555,0.101348 -0.14887,0.11254 -0.25375,0.0069 -0.49614,-0.04379 -0.53863,-0.11254 z m -1.3125,-0.391996 c -0.37263,-0.159703 -0.44058,-0.216334 -0.2013,-0.167779 0.45614,0.09256 1.20206,0.415314 0.9513,0.411618 -0.10312,-0.0015 -0.44062,-0.111248 -0.75,-0.243839 z m -2.125,-0.358004 c -0.16666,-0.107709 -0.16666,-0.121171 0,-0.121171 0.10313,0 0.27188,0.05453 0.375,0.121171 0.16667,0.107709 0.16667,0.121171 0,0.121171 -0.10312,0 -0.27187,-0.05453 -0.375,-0.121171 z m 0.65886,0.04948 c 0.0415,-0.04154 0.14935,-0.04598 0.23958,-0.0099 0.0997,0.0399 0.0701,0.06952 -0.0755,0.07552 -0.13177,0.0054 -0.2056,-0.02412 -0.16406,-0.06565 l 0,-5e-6 z m 0.5,0 c 0.0415,-0.04154 0.14935,-0.04598 0.23958,-0.0099 0.0997,0.0399 0.0701,0.06952 -0.0755,0.07552 -0.13177,0.0054 -0.2056,-0.02412 -0.16406,-0.06565 l 0,-5e-6 z m -1.65886,-0.174479 c 0,-0.06875 0.0248,-0.125 0.0551,-0.125 0.0303,0 0.0899,0.05625 0.13237,0.125 0.0425,0.06875 0.0177,0.125 -0.0551,0.125 -0.0728,0 -0.13238,-0.05625 -0.13238,-0.125 z m -4.934265,-0.10091 c -0.02111,-0.02113 -0.508603,-0.0842 -1.083311,-0.140175 -0.684993,-0.06671 0.116121,-0.08512 2.325734,-0.05343 1.853862,0.02658 3.411962,0.08966 3.462432,0.140177 0.0505,0.05051 -0.97883,0.09184 -2.28735,0.09184 -1.308514,0 -2.396392,-0.01728 -2.417505,-0.03841 l 0,0 z m -3.245816,-0.162425 c -0.703246,-0.167981 -0.670376,-0.196749 0.211135,-0.184777 0.430556,0.0058 0.781446,0.06674 0.781446,0.135612 0,0.170613 -0.400993,0.190475 -0.992581,0.04917 l 0,0 z m -3.911065,-0.06219 c 0.04154,-0.04154 0.149349,-0.04598 0.239584,-0.0099 0.09972,0.0399 0.0701,0.06952 -0.07552,0.07552 -0.131771,0.0054 -0.205599,-0.02412 -0.164063,-0.06565 l 0,-5e-6 z"
       id="path3384"
       inkscape:connector-curvature="0"
       transform="translate(0,924.36218)" />
    <path
       style="fill:#1f730b;fill-opacity:0.54117647;stroke:#000000;stroke-width:0.06425;stroke-linecap:butt;stroke-linejoin:bevel;stroke-miterlimit:4;stroke-opacity:1;stroke-dasharray:none;stroke-dashoffset:0"
       d="m 107.86218,30.691565 c 0.0415,-0.04154 0.14935,-0.04598 0.23958,-0.0099 0.0997,0.0399 0.0701,0.06952 -0.0755,0.07552 -0.13177,0.0054 -0.2056,-0.02412 -0.16406,-0.06565 z"
       id="path3386"
       inkscape:connector-curvature="0"
       transform="translate(0,924.36218)" />
    <path
       style="fill:#1f730b;fill-opacity:0.54117647;stroke:#000000;stroke-width:0.06425;stroke-linecap:butt;stroke-linejoin:bevel;stroke-miterlimit:4;stroke-opacity:1;stroke-dasharray:none;stroke-dashoffset:0"
       d=""
       id="path3388"
       inkscape:connector-curvature="0"
       transform="translate(0,924.36218)" />
    <path
       style="fill:#1f730b;fill-opacity:0.54117647;stroke:#000000;stroke-width:0.00200781;stroke-linecap:butt;stroke-linejoin:bevel;stroke-miterlimit:4;stroke-opacity:1;stroke-dasharray:none;stroke-dashoffset:0"
       d="m 108.78504,31.043964 c -0.12458,-0.0056 -0.2152,-0.01336 -0.31641,-0.0271 -0.0376,-0.0051 -0.0894,-0.01124 -0.11523,-0.01363 -0.0258,-0.0024 -0.0838,-0.0086 -0.12891,-0.01377 -0.0451,-0.0052 -0.10312,-0.01132 -0.1289,-0.01363 -0.0258,-0.0023 -0.0785,-0.0076 -0.11719,-0.01167 -0.0387,-0.0041 -0.10195,-0.0094 -0.14063,-0.01167 -0.0387,-0.0023 -0.0984,-0.0077 -0.13281,-0.01191 -0.0344,-0.0042 -0.11435,-0.01208 -0.17773,-0.01742 -0.0971,-0.0082 -0.25885,-0.02397 -0.59961,-0.05851 -0.1726,-0.0175 -0.22907,-0.02301 -0.38086,-0.03718 -0.0913,-0.0085 -0.18623,-0.01819 -0.21094,-0.02148 -0.0247,-0.0033 -0.0651,-0.0078 -0.0898,-0.01 -0.0247,-0.0022 -0.10469,-0.01001 -0.17774,-0.01737 -0.073,-0.0074 -0.18906,-0.0188 -0.25781,-0.02541 -0.0687,-0.0066 -0.16016,-0.0163 -0.20312,-0.02152 -0.043,-0.0052 -0.10625,-0.01137 -0.14063,-0.01366 -0.0344,-0.0023 -0.0862,-0.0067 -0.11523,-0.0098 -0.029,-0.0031 -0.15469,-0.01451 -0.2793,-0.02542 -0.12461,-0.01091 -0.2626,-0.02378 -0.30664,-0.02861 l -0.0801,-0.0088 -0.001,-0.01015 c -0.001,-0.0097 -5.3e-4,-0.01008 0.0156,-0.0085 0.009,9.03e-4 0.0898,0.0095 0.17893,0.0192 0.0892,0.0097 0.221,0.02277 0.29297,0.02914 0.072,0.0064 0.15722,0.01413 0.18945,0.01725 0.0322,0.0031 0.0797,0.0068 0.10547,0.0081 0.0258,0.0013 0.0847,0.0067 0.13086,0.01183 0.10745,0.01205 0.25974,0.0273 0.34961,0.03502 0.0944,0.0081 0.32674,0.03251 0.35351,0.03714 0.047,0.0081 0.0847,0.01223 0.23169,0.02531 0.0842,0.0075 0.17769,0.01623 0.20777,0.01941 0.0301,0.0032 0.0863,0.0085 0.125,0.01192 0.0387,0.0034 0.14941,0.01392 0.24609,0.02344 0.0967,0.0095 0.18633,0.01822 0.19922,0.01933 0.0576,0.005 0.33804,0.03421 0.39453,0.04114 0.0344,0.0042 0.0941,0.0094 0.13281,0.0116 0.0726,0.0041 0.21076,0.01664 0.36719,0.03343 0.0494,0.0053 0.11797,0.01238 0.15235,0.01572 0.0344,0.0033 0.088,0.0094 0.11914,0.01343 0.13362,0.01735 0.40778,0.03315 0.50461,0.02908 0.0589,-0.0025 0.14249,-0.01581 0.17998,-0.02871 0.0468,-0.01611 0.10313,-0.04878 0.12446,-0.0722 0.0102,-0.0112 0.011,-0.01452 0.0111,-0.04434 1e-4,-0.02599 0.001,-0.03223 0.006,-0.03223 0.005,0 0.006,-0.0061 0.006,-0.03108 0,-0.02747 -0.001,-0.03337 -0.0117,-0.05084 -0.006,-0.01087 -0.0213,-0.0393 -0.0332,-0.06318 -0.0119,-0.02388 -0.0274,-0.04992 -0.0346,-0.05785 -0.0182,-0.02015 -0.042,-0.05288 -0.0607,-0.08346 -0.009,-0.01428 -0.0234,-0.03253 -0.0326,-0.04054 -0.0267,-0.02333 -0.0498,-0.04754 -0.081,-0.08494 -0.0304,-0.03646 -0.0579,-0.06336 -0.0631,-0.06181 -0.002,4.99e-4 -0.0168,-0.01426 -0.0335,-0.03279 -0.0168,-0.01853 -0.13134,-0.134519 -0.2546,-0.257743 -0.20021,-0.20014 -0.22289,-0.224045 -0.21259,-0.224045 0.01,0 0.0189,0.0075 0.0542,0.04386 0.0235,0.02412 0.0557,0.0562 0.0717,0.07129 0.0597,0.05634 0.32012,0.317834 0.35128,0.352677 0.0178,0.0199 0.0337,0.03532 0.0355,0.03427 0.003,-0.0022 0.0458,0.04046 0.0814,0.08189 0.0129,0.01504 0.0371,0.04053 0.0537,0.05664 0.0166,0.01611 0.0365,0.03896 0.044,0.05078 0.018,0.02817 0.0446,0.06317 0.0682,0.08984 0.0111,0.01254 0.0278,0.03938 0.0401,0.06445 0.0116,0.02363 0.027,0.05194 0.0343,0.06289 0.0112,0.01688 0.0135,0.0245 0.0155,0.04981 0.002,0.02466 10e-4,0.02988 -0.003,0.02988 -0.005,0 -0.005,0.0051 -0.003,0.03027 10e-4,0.01665 0.003,0.03139 0.003,0.03275 2.7e-4,0.0014 -0.0127,0.01768 -0.0288,0.03626 -0.0211,0.02435 -0.0355,0.03698 -0.0514,0.04527 -0.0988,0.05127 -0.19385,0.06105 -0.472,0.04856 l 0,0 z"
       id="path3390"
       inkscape:connector-curvature="0"
       transform="translate(0,924.36218)" />
  </g>
</svg>
