<?xml version="1.0" encoding="UTF-8" standalone="no"?>
<!-- Created with Inkscape (http://www.inkscape.org/) -->

<svg
   xmlns:dc="http://purl.org/dc/elements/1.1/"
   xmlns:cc="http://creativecommons.org/ns#"
   xmlns:rdf="http://www.w3.org/1999/02/22-rdf-syntax-ns#"
   xmlns:svg="http://www.w3.org/2000/svg"
   xmlns="http://www.w3.org/2000/svg"
   xmlns:xlink="http://www.w3.org/1999/xlink"
   xmlns:sodipodi="http://sodipodi.sourceforge.net/DTD/sodipodi-0.dtd"
   xmlns:inkscape="http://www.inkscape.org/namespaces/inkscape"
   width="128"
   height="128"
   id="svg2"
   version="1.1"
   inkscape:version="0.48.2 r9819"
   sodipodi:docname="ouvrir_chantier.svg"
   inkscape:export-filename="D:\saisie_carhab\resources\img\ouvrir_chantier.png"
   inkscape:export-xdpi="26.02"
   inkscape:export-ydpi="26.02">
  <defs
     id="defs4">
    <linearGradient
       inkscape:collect="always"
       id="linearGradient3608">
      <stop
         style="stop-color:#cccccc;stop-opacity:1"
         offset="0"
         id="stop3610" />
      <stop
         id="stop3616"
         offset="0.22007781"
         style="stop-color:#e6e6e6;stop-opacity:1" />
      <stop
         style="stop-color:#ffffff;stop-opacity:1"
         offset="0.46932641"
         id="stop3618" />
      <stop
         style="stop-color:#e6e6e6;stop-opacity:1"
         offset="1"
         id="stop3612" />
    </linearGradient>
    <marker
       inkscape:stockid="Arrow2Mend"
       orient="auto"
       refY="0.0"
       refX="0.0"
       id="Arrow2Mend"
       style="overflow:visible;">
      <path
         id="path17872"
         style="font-size:12.0;fill-rule:evenodd;stroke-width:0.62500000;stroke-linejoin:round;"
         d="M 8.7185878,4.0337352 L -2.2072895,0.016013256 L 8.7185884,-4.0017078 C 6.9730900,-1.6296469 6.9831476,1.6157441 8.7185878,4.0337352 z "
         transform="scale(0.6) rotate(180) translate(0,0)" />
    </marker>
    <marker
       inkscape:stockid="Arrow2Lend"
       orient="auto"
       refY="0.0"
       refX="0.0"
       id="Arrow2Lend"
       style="overflow:visible;">
      <path
         id="path17866"
         style="font-size:12.0;fill-rule:evenodd;stroke-width:0.62500000;stroke-linejoin:round;"
         d="M 8.7185878,4.0337352 L -2.2072895,0.016013256 L 8.7185884,-4.0017078 C 6.9730900,-1.6296469 6.9831476,1.6157441 8.7185878,4.0337352 z "
         transform="scale(1.1) rotate(180) translate(1,0)" />
    </marker>
    <marker
       inkscape:stockid="Arrow2Mend"
       orient="auto"
       refY="0.0"
       refX="0.0"
       id="Arrow2Mend-0"
       style="overflow:visible;">
      <path
         id="path17872-9"
         style="font-size:12.0;fill-rule:evenodd;stroke-width:0.62500000;stroke-linejoin:round;"
         d="M 8.7185878,4.0337352 L -2.2072895,0.016013256 L 8.7185884,-4.0017078 C 6.9730900,-1.6296469 6.9831476,1.6157441 8.7185878,4.0337352 z "
         transform="scale(0.6) rotate(180) translate(0,0)" />
    </marker>
    <marker
       inkscape:stockid="Arrow2Lend"
       orient="auto"
       refY="0.0"
       refX="0.0"
       id="Arrow2Lend-7"
       style="overflow:visible;">
      <path
         id="path17866-4"
         style="font-size:12.0;fill-rule:evenodd;stroke-width:0.62500000;stroke-linejoin:round;"
         d="M 8.7185878,4.0337352 L -2.2072895,0.016013256 L 8.7185884,-4.0017078 C 6.9730900,-1.6296469 6.9831476,1.6157441 8.7185878,4.0337352 z "
         transform="scale(1.1) rotate(180) translate(1,0)" />
    </marker>
    <linearGradient
       inkscape:collect="always"
       xlink:href="#linearGradient3608"
       id="linearGradient4042"
       gradientUnits="userSpaceOnUse"
       gradientTransform="matrix(1.2104617,-0.52564371,0.52564371,1.2104617,-546.87243,-161.16288)"
       x1="93"
       y1="944.36218"
       x2="80"
       y2="957.36218" />
    <filter
       inkscape:collect="always"
       id="filter3832"
       x="-0.16012843"
       width="1.3202569"
       y="-0.094787767"
       height="1.1895755">
      <feGaussianBlur
         inkscape:collect="always"
         stdDeviation="2.4688481"
         id="feGaussianBlur3834" />
    </filter>
  </defs>
  <sodipodi:namedview
     id="base"
     pagecolor="#ffffff"
     bordercolor="#666666"
     borderopacity="1.0"
     inkscape:pageopacity="0.0"
     inkscape:pageshadow="2"
     inkscape:zoom="1.4142136"
     inkscape:cx="-82.187588"
     inkscape:cy="-1.1007877"
     inkscape:document-units="px"
     inkscape:current-layer="layer1"
     showgrid="false"
     inkscape:window-width="1280"
     inkscape:window-height="1002"
     inkscape:window-x="1672"
     inkscape:window-y="-8"
     inkscape:window-maximized="1"
     inkscape:snap-global="false">
    <inkscape:grid
       type="xygrid"
       id="grid2816"
       empspacing="5"
       visible="true"
       enabled="true"
       snapvisiblegridlinesonly="true" />
  </sodipodi:namedview>
  <metadata
     id="metadata7">
    <rdf:RDF>
      <cc:Work
         rdf:about="">
        <dc:format>image/svg+xml</dc:format>
        <dc:type
           rdf:resource="http://purl.org/dc/dcmitype/StillImage" />
        <dc:title></dc:title>
      </cc:Work>
    </rdf:RDF>
  </metadata>
  <g
     inkscape:label="Layer 1"
     inkscape:groupmode="layer"
     id="layer1"
     transform="translate(0,-924.36218)">
    <path
       style="fill:#ffff00;fill-opacity:0.54117647;stroke:none"
       d=""
       id="path3087-8"
       inkscape:connector-curvature="0" />
    <path
       style="fill:#ffffff;fill-opacity:1;stroke:#000000;stroke-width:3.88062382;stroke-linecap:round;stroke-linejoin:round;stroke-miterlimit:4;stroke-opacity:1;stroke-dashoffset:0"
       id="rect2324"
       d="m 10.468123,972.30445 0,7.1157 -6.5815447,0 0,69.59265 92.7901957,0 0,-69.59265 -64.785259,0 0,-7.1157 -21.423392,0 z"
       inkscape:connector-curvature="0" />
    <path
       style="fill:#86b37b;fill-opacity:1;stroke:#000000;stroke-width:0.949;stroke-linecap:butt;stroke-linejoin:bevel;stroke-miterlimit:4;stroke-opacity:1;stroke-dasharray:none;stroke-dashoffset:0;filter:url(#filter3832)"
       d="m 8.4697175,81.297096 -0.015204,-28.125 2.6499995,0 c 1.4575,0 2.92,-0.27 3.25,-0.6 0.33,-0.33 0.6,-1.905 0.6,-3.5 l 0,-2.9 8.25,0 8.25,0 0,2.53287 c 0,4.425063 0.07079,4.46713 7.517592,4.46713 3.565325,0 6.483765,0.16875 6.485424,0.375 0.0016,0.20625 -0.504592,1.55241 -1.125,2.991467 l -1.128016,2.616466 -5.819608,0.0085 c -4.823207,0.0071 -5.989411,0.158345 -6.811365,0.883533 -0.545466,0.48125 -5.547359,11.45 -11.115317,24.375 C 13.890265,97.347096 9.1434712,108.2596 8.9097924,108.6721 8.6726442,109.09072 8.4782041,96.995511 8.4697175,81.297096 z"
       id="path4086"
       inkscape:connector-curvature="0"
       transform="matrix(1.0348326,0,0,1.0348326,-2.9000004,926.51234)" />
    <g
       id="g4023"
       transform="matrix(0.73390754,0.31869977,-0.31869977,0.73390754,338.96811,236.86339)"
       style="stroke:#000000;stroke-width:2.18800664;stroke-miterlimit:4;stroke-opacity:1;stroke-dasharray:none"
       inkscape:export-filename="D:\saisie_carhab\resources\img\ouvrir_chantier.png"
       inkscape:export-xdpi="31.090099"
       inkscape:export-ydpi="31.090099">
      <path
         sodipodi:nodetypes="cccccc"
         id="path2826"
         d="m 82,930.36218 -60,0 0,115.00002 85,0 0,-90.00002 -25,-25 z"
         style="fill:#ffff00;fill-opacity:0.54117647;stroke:#000000;stroke-width:2.18800664;stroke-linecap:butt;stroke-linejoin:bevel;stroke-miterlimit:4;stroke-opacity:1;stroke-dasharray:none;stroke-dashoffset:0"
         inkscape:connector-curvature="0" />
      <path
         sodipodi:nodetypes="cccc"
         id="rect2822"
         d="m 107,955.36218 -25,-25 c 1.863343,8.33333 2.132867,16.66667 0,25 9.905529,-1.93501 17.12777,-0.56751 25,0 z"
         style="fill:url(#linearGradient4042);fill-opacity:1;fill-rule:evenodd;stroke:#000000;stroke-width:2.18800664;stroke-linecap:butt;stroke-linejoin:round;stroke-miterlimit:4;stroke-opacity:1;stroke-dasharray:none"
         inkscape:connector-curvature="0" />
      <path
         inkscape:connector-curvature="0"
         id="path3963-5-1"
         d="M 105.80499,977.66928 C 84.000279,989.49832 87.719081,973.4523 60.417276,976.55187 33.115429,979.65136 24.576212,998.763 24.576212,998.763 c 0,0 -7.803625,3.7056 5.703555,20.6409 13.507174,16.9354 -6.86491,25.3007 -6.86491,25.3007"
         style="fill:none;stroke:#000000;stroke-width:2.18800664;stroke-linecap:butt;stroke-linejoin:miter;stroke-miterlimit:4;stroke-opacity:1;stroke-dasharray:none" />
      <path
         inkscape:connector-curvature="0"
         id="path3965-1-4"
         d="m 107.17218,962.70249 c 0,0 0.9848,14.98944 -23.902137,29.43829 -24.886947,14.44882 -29.578067,25.68602 -34.192266,35.24342 -4.614215,9.5574 -27.593828,18.8394 -27.593828,18.8394"
         style="fill:none;stroke:#000000;stroke-width:2.18800664;stroke-linecap:butt;stroke-linejoin:miter;stroke-miterlimit:4;stroke-opacity:1;stroke-dasharray:none" />
      <path
         inkscape:connector-curvature="0"
         id="path3965-1-4-2"
         d="m 22.694269,957.60886 c 0,0 15.0075,-0.65405 28.9041,24.54542 13.89661,25.19952 25.02755,30.13722 34.48097,34.96102 9.45331,4.8238 18.226381,28.0025 18.226381,28.0025"
         style="fill:none;stroke:#000000;stroke-width:2.18800664;stroke-linecap:butt;stroke-linejoin:miter;stroke-miterlimit:4;stroke-opacity:1;stroke-dasharray:none" />
      <path
         transform="translate(0,924.36218)"
         inkscape:connector-curvature="0"
         id="path3151"
         d="m 32.861944,114.66864 c 0,-0.19587 0.636396,-1.54349 1.414213,-2.99473 2.837693,-5.29452 1.638125,-10.37971 -4.439233,-18.818725 -4.46331,-6.19775 -7.11205,-12.346548 -6.451792,-14.977226 0.515598,-2.054307 25.539456,-22.067488 26.387908,-21.104099 0.301136,0.341931 2.036538,3.111925 3.856448,6.155544 2.876474,4.810617 5.50763,8.559299 10.521753,14.990634 1.194628,1.532283 1.181323,1.623613 -0.386149,2.65066 -2.889238,1.893101 -9.455091,10.594634 -13.192393,17.483494 -4.25132,7.836328 -5.682102,9.464338 -12.105057,13.773678 -4.604948,3.08958 -5.605698,3.59673 -5.605698,2.84077 z"
         style="fill:#1f730b;fill-opacity:0.54117647;stroke:#000000;stroke-width:2.18800664;stroke-linecap:butt;stroke-linejoin:bevel;stroke-miterlimit:4;stroke-opacity:1;stroke-dasharray:none;stroke-dashoffset:0" />
      <path
         transform="translate(0,924.36218)"
         inkscape:connector-curvature="0"
         id="path3153"
         d="M 47.444161,49.697386 C 42.926359,43.13774 35.345752,36.395098 29.927211,34.116772 L 27.766314,33.208183 44.55764,20.0228 61.348967,6.8374165 l 10.095391,0 10.095391,0 0.506028,4.7252195 c 0.543652,5.076547 0.05227,16.704128 -0.797414,18.869197 -0.489925,1.248375 -0.199672,1.292353 5.310325,0.804607 3.205717,-0.283771 8.818028,-0.291818 12.471798,-0.01788 l 6.643224,0.498062 -5.46996,4.383435 c -3.008479,2.410887 -8.994995,7.143957 -13.303367,10.517931 L 79.06698,52.752484 76.293782,51.95232 c -5.164732,-1.490204 -18.192123,-0.849218 -25.100458,1.235017 -0.74693,0.225347 -1.982426,-0.924728 -3.749163,-3.489951 z"
         style="fill:#1f730b;fill-opacity:0.54117647;stroke:#000000;stroke-width:2.18800664;stroke-linecap:butt;stroke-linejoin:bevel;stroke-miterlimit:4;stroke-opacity:1;stroke-dasharray:none;stroke-dashoffset:0" />
      <path
         transform="translate(0,924.36218)"
         inkscape:connector-curvature="0"
         id="path3155"
         d="M 99.185459,107.77368 C 94.590441,98.74319 90.446024,94.329611 82.161287,89.643861 75.710539,85.995394 68.884608,80.858779 69.631496,80.215007 c 0.194455,-0.167608 4.967426,-3.871159 10.606602,-8.230115 5.639177,-4.358956 12.038831,-9.368638 14.221452,-11.132627 3.191816,-2.579615 10.31993,-6.638694 11.65816,-6.638694 0.15584,0 0.28334,12.915566 0.28334,28.701258 l 0,28.701261 -1.59099,1.32725 c -0.87505,0.72999 -1.75009,1.33639 -1.94454,1.34755 -0.19446,0.0112 -1.85048,-2.92159 -3.680061,-6.51721 z"
         style="fill:#ff2a2a;fill-opacity:0.54117647;stroke:#000000;stroke-width:2.18800664;stroke-linecap:butt;stroke-linejoin:bevel;stroke-miterlimit:4;stroke-opacity:1;stroke-dasharray:none;stroke-dashoffset:0" />
      <path
         transform="translate(0,924.36218)"
         inkscape:connector-curvature="0"
         id="path3157"
         d="m 33.361242,117.12986 c 2.80252,-1.55426 7.056195,-4.33429 9.45261,-6.17783 4.299623,-3.30767 5.322721,-4.71957 11.968402,-16.516688 1.809838,-3.212743 3.868925,-5.494567 7.66271,-8.491603 l 5.187838,-4.098317 4.619782,3.54087 c 2.54088,1.947478 6.411215,4.455267 8.600745,5.572863 8.107849,4.138469 12.149066,8.560323 17.304729,18.934635 l 2.896902,5.8292 -2.453482,2.09702 -2.453477,2.09702 -33.941126,0.0194 -33.941126,0.0194 5.095493,-2.82595 0,0 z"
         style="fill:#ff7f2a;fill-opacity:0.54117647;stroke:#000000;stroke-width:2.18800664;stroke-linecap:butt;stroke-linejoin:bevel;stroke-miterlimit:4;stroke-opacity:1;stroke-dasharray:none;stroke-dashoffset:0" />
      <path
         transform="translate(0,924.36218)"
         inkscape:connector-curvature="0"
         id="path3159"
         d="m 24.199885,32.512941 c -1.120467,-0.292808 -1.237436,-1.521594 -1.237436,-12.99945 l 0,-12.6760745 18.502627,0 c 10.176445,0 18.367193,0.1354343 18.201662,0.3009651 C 57.69926,9.1058609 26.66465,32.965819 26.144429,32.910928 25.75552,32.869892 24.880476,32.690798 24.199885,32.512941 z"
         style="fill:#ff7f2a;fill-opacity:0.54117647;stroke:#000000;stroke-width:2.18800664;stroke-linecap:butt;stroke-linejoin:bevel;stroke-miterlimit:4;stroke-opacity:1;stroke-dasharray:none;stroke-dashoffset:0" />
      <path
         transform="translate(0,924.36218)"
         inkscape:connector-curvature="0"
         id="path3161"
         d="M 63.196423,73.653557 C 61.485445,71.51156 58.060735,66.54102 55.585954,62.607912 52.136127,57.125184 51.306975,55.320454 52.031995,54.872367 54.07429,53.61016 63.15977,52.627954 69.276362,53.008127 c 4.839306,0.300784 8.026966,1.001346 13.294915,2.921865 3.811156,1.389421 8.051693,2.52622 9.423418,2.52622 l 2.494045,0 -1.998797,1.678879 c -1.099338,0.923383 -6.135371,4.390967 -11.191185,7.705743 -5.055813,3.314775 -10.288351,6.854954 -11.627862,7.867063 -1.339509,1.012109 -2.644302,1.840198 -2.899539,1.840198 -0.255237,0 -1.863957,-1.752542 -3.574934,-3.894538 l 0,0 z"
         style="fill:#3771c8;fill-opacity:0.54117647;stroke:#000000;stroke-width:2.18800664;stroke-linecap:butt;stroke-linejoin:bevel;stroke-miterlimit:4;stroke-opacity:1;stroke-dasharray:none;stroke-dashoffset:0" />
      <path
         transform="translate(0,924.36218)"
         inkscape:connector-curvature="0"
         id="path3163"
         d="m 22.962449,102.58877 0,-16.678634 5.3033,7.901415 c 2.916816,4.345779 5.361496,8.748729 5.432623,9.784339 0.406914,5.92467 -1.219035,9.32937 -6.312712,13.21868 -1.766801,1.34906 -3.484805,2.45283 -3.817788,2.45283 -0.332983,0 -0.605423,-7.50539 -0.605423,-16.67863 z"
         style="fill:#3771c8;fill-opacity:0.54117647;stroke:#000000;stroke-width:2.18800664;stroke-linecap:butt;stroke-linejoin:bevel;stroke-miterlimit:4;stroke-opacity:1;stroke-dasharray:none;stroke-dashoffset:0" />
      <path
         transform="translate(0,924.36218)"
         inkscape:connector-curvature="0"
         id="path3165"
         d="M 88.369826,56.007515 C 86.425283,55.465248 83.767451,54.568388 82.463534,54.014492 L 80.092775,53.007408 93.070136,42.72734 106.0475,32.447271 l 0.21799,3.581366 c 0.29175,4.793186 -1.44668,9.810747 -5.24714,15.144576 -1.718124,2.411344 -3.360148,4.530294 -3.648939,4.708776 -1.513487,0.935386 -5.877202,0.996251 -8.999585,0.125526 z"
         style="fill:#ff00cc;fill-opacity:0.54117647;stroke:#000000;stroke-width:2.18800664;stroke-linecap:butt;stroke-linejoin:bevel;stroke-miterlimit:4;stroke-opacity:1;stroke-dasharray:none;stroke-dashoffset:0" />
      <path
         transform="translate(0,924.36218)"
         inkscape:connector-curvature="0"
         id="path3167"
         d="m 23.008194,55.627785 -0.0013,-18.73833 1.674216,-1.216644 c 1.615225,-1.173775 1.826837,-1.140378 6.005692,0.94782 4.632504,2.31489 12.071584,9.117661 15.291908,13.983899 1.066689,1.611875 1.81332,3.030037 1.659181,3.15147 -0.15414,0.121433 -2.765255,1.543907 -5.802478,3.161053 -6.38472,3.399496 -11.339868,7.37174 -14.310317,11.47172 -4.967798,6.856832 -4.515443,8.134808 -4.516898,-12.760988 z"
         style="fill:#ff00cc;fill-opacity:0.54117647;stroke:#000000;stroke-width:2.18800664;stroke-linecap:butt;stroke-linejoin:bevel;stroke-miterlimit:4;stroke-opacity:1;stroke-dasharray:none;stroke-dashoffset:0" />
      <path
         transform="translate(0,924.36218)"
         inkscape:connector-curvature="0"
         id="path3169"
         d="m 102.42064,112.0567 c -0.38226,-0.62028 -1.88924,-3.26528 -3.348826,-5.87778 C 95.995547,100.67275 92.514361,96.077098 89.768439,93.897157 88.707235,93.054685 85.363978,90.822012 82.338978,88.93566 76.439421,85.25677 72.202059,82.270104 71.243504,81.115116 70.751628,80.522441 72.892298,78.647325 83.665775,70.233848 94.527218,61.751675 103.96785,55.178923 105.28958,55.178923 c 0.16467,0 0.2994,12.686623 0.2994,28.192495 l 0,28.192492 -1.23665,0.81029 c -1.17532,0.77009 -1.27113,0.75434 -1.93169,-0.3175 z"
         style="fill:#7dab72;fill-opacity:1;stroke:#000000;stroke-width:2.18800664;stroke-linecap:butt;stroke-linejoin:bevel;stroke-miterlimit:4;stroke-opacity:1;stroke-dasharray:none;stroke-dashoffset:0" />
    </g>
    <rect
       y="1078.7393"
       x="458.22299"
       width="92.790176"
       transform="matrix(1,0,-0.39710506,0.91777316,0,0)"
       style="fill:#ffffff;fill-opacity:1;stroke:#000000;stroke-width:3.73373842;stroke-linecap:round;stroke-linejoin:round;stroke-miterlimit:4;stroke-opacity:1;stroke-dasharray:none;stroke-dashoffset:0"
       id="rect2328"
       height="64.424034" />
    <path
       style="fill:#86b37b;fill-opacity:1;stroke:#000000;stroke-width:0.9820562;stroke-linecap:butt;stroke-linejoin:bevel;stroke-miterlimit:4;stroke-opacity:1;stroke-dasharray:none;stroke-dashoffset:0"
       d="m 7.8900159,1046.0842 c 1.067497,-2.6833 23.2982751,-53.84026 23.4725761,-54.01457 0.10483,-0.10482 19.970049,-0.13107 44.144929,-0.0584 l 43.954329,0.13227 -11.92057,27.5507 -11.920542,27.5506 -44.096937,0 -44.0969331,0 0.463148,-1.1642 z"
       id="path4084"
       inkscape:connector-curvature="0" />
  </g>
</svg>
