<?xml version="1.0" encoding="UTF-8" standalone="no"?>
<!-- Created with Inkscape (http://www.inkscape.org/) -->

<svg
   xmlns:dc="http://purl.org/dc/elements/1.1/"
   xmlns:cc="http://creativecommons.org/ns#"
   xmlns:rdf="http://www.w3.org/1999/02/22-rdf-syntax-ns#"
   xmlns:svg="http://www.w3.org/2000/svg"
   xmlns="http://www.w3.org/2000/svg"
   xmlns:sodipodi="http://sodipodi.sourceforge.net/DTD/sodipodi-0.dtd"
   xmlns:inkscape="http://www.inkscape.org/namespaces/inkscape"
   id="svg15805"
   version="1.1"
   inkscape:version="0.91 r13725"
   width="48"
   height="48"
   sodipodi:docname="pipette_icon.svg"
   inkscape:export-filename="D:\saisie_carhab\resources\img\pipette_icon.png"
   inkscape:export-xdpi="69.375"
   inkscape:export-ydpi="69.375">
  <metadata
     id="metadata15811">
    <rdf:RDF>
      <cc:Work
         rdf:about="">
        <dc:format>image/svg+xml</dc:format>
        <dc:type
           rdf:resource="http://purl.org/dc/dcmitype/StillImage" />
        <dc:title></dc:title>
      </cc:Work>
    </rdf:RDF>
  </metadata>
  <defs
     id="defs15809">
    <filter
       height="1.0711983"
       y="-0.035599224"
       width="1.0292081"
       x="-0.014604041"
       id="filter4200"
       style="color-interpolation-filters:sRGB"
       inkscape:collect="always">
      <feGaussianBlur
         id="feGaussianBlur4202"
         stdDeviation="7.2770242"
         inkscape:collect="always" />
    </filter>
    <filter
       height="1.1064152"
       y="-0.053207535"
       width="1.137561"
       x="-0.068780504"
       id="filter4224"
       style="color-interpolation-filters:sRGB"
       inkscape:collect="always">
      <feGaussianBlur
         id="feGaussianBlur4226"
         stdDeviation="3.3234026"
         inkscape:collect="always" />
    </filter>
    <filter
       height="1.0775156"
       y="-0.038757779"
       width="1.2655317"
       x="-0.13276581"
       id="filter4248"
       style="color-interpolation-filters:sRGB"
       inkscape:collect="always">
      <feGaussianBlur
         id="feGaussianBlur4250"
         stdDeviation="1.4864272"
         inkscape:collect="always" />
    </filter>
    <filter
       id="filter4291"
       inkscape:label="Drop Shadow"
       style="color-interpolation-filters:sRGB;">
      <feFlood
         id="feFlood4293"
         result="flood"
         flood-color="rgb(0,0,0)"
         flood-opacity="0.498039" />
      <feComposite
         id="feComposite4295"
         result="composite1"
         operator="in"
         in2="SourceGraphic"
         in="flood" />
      <feGaussianBlur
         id="feGaussianBlur4297"
         result="blur"
         stdDeviation="3"
         in="composite1" />
      <feOffset
         id="feOffset4299"
         result="offset"
         dy="4"
         dx="4" />
      <feComposite
         id="feComposite4301"
         result="composite2"
         operator="over"
         in2="offset"
         in="SourceGraphic" />
    </filter>
  </defs>
  <sodipodi:namedview
     pagecolor="#ffffff"
     bordercolor="#666666"
     borderopacity="1"
     objecttolerance="10"
     gridtolerance="10"
     guidetolerance="10"
     inkscape:pageopacity="0"
     inkscape:pageshadow="2"
     inkscape:window-width="1134"
     inkscape:window-height="754"
     id="namedview15807"
     showgrid="false"
     inkscape:zoom="4.2171962"
     inkscape:cx="-7.6125043"
     inkscape:cy="55.324613"
     inkscape:window-x="1682"
     inkscape:window-y="128"
     inkscape:window-maximized="0"
     inkscape:current-layer="svg15805" />
  <path
     style="fill:#ffffff;fill-rule:evenodd;stroke:none;stroke-width:1px;stroke-linecap:butt;stroke-linejoin:miter;stroke-opacity:1;filter:url(#filter4200)"
     d="m 125.65685,332.3622 34.34315,0 0,680 -34.34315,-40 z"
     id="path3344"
     inkscape:connector-curvature="0"
     transform="matrix(0.01129698,0.01129698,-0.02809703,0.02809703,38.440272,52.104557)" />
  <g
     id="g4375"
     transform="matrix(1.4799882,0.94952942,0.41726228,1.8292888,-17.670873,-38.857784)"
     style="stroke:#000000;stroke-width:0.2032309;stroke-miterlimit:4;stroke-dasharray:none;stroke-opacity:1">
    <path
       transform="matrix(0.03234735,0,0,0.02862739,17.806317,-5.3698278)"
       sodipodi:nodetypes="ccccccscc"
       inkscape:connector-curvature="0"
       id="path3340"
       d="m 381.09927,537.61398 c 0,0 -653.33736,653.33732 -674.75824,674.75822 -31.93238,31.9324 -57.43649,113.9307 -57.43649,113.9307 l -64.26264,64.2627 c 9.4157,9.4157 18.8314,18.8314 28.2471,28.2471 l 64.26265,-64.2627 c 0,0 81.99832,-25.5041 113.9307,-57.4365 L 465.84058,622.3553 Z"
       style="fill:#f9f9f9;fill-rule:evenodd;stroke:#000000;stroke-width:6.67850924;stroke-linecap:butt;stroke-linejoin:miter;stroke-miterlimit:4;stroke-dasharray:none;stroke-opacity:1;filter:url(#filter4291)" />
    <g
       id="g4368"
       style="stroke:#000000;stroke-width:0.2032309;stroke-miterlimit:4;stroke-dasharray:none;stroke-opacity:1">
      <ellipse
         style="opacity:1;fill:#1e720a;fill-opacity:0.40392157;stroke:#000000;stroke-width:6.67850924;stroke-linecap:round;stroke-linejoin:round;stroke-miterlimit:4;stroke-dasharray:none;stroke-dashoffset:0;stroke-opacity:1;filter:url(#filter4291)"
         id="path4262"
         cx="-403.75797"
         cy="1410.1582"
         rx="21.920311"
         ry="24.04163"
         transform="matrix(0.03234735,0,0,0.02862739,17.806317,-5.3698278)" />
      <path
         style="fill:#000000;fill-rule:evenodd;stroke:#000000;stroke-width:6.67850924;stroke-linecap:butt;stroke-linejoin:miter;stroke-miterlimit:4;stroke-dasharray:none;stroke-opacity:1;filter:url(#filter4291)"
         d="m 406.16883,498.42086 98.86487,98.86487 c -1.15486,22.41577 -13.03832,31.68931 -32.13134,32.13135 l -98.86487,-98.86487 c 2.24439,-26.54896 16.1314,-31.31658 32.13134,-32.13135 z"
         id="path3338"
         inkscape:connector-curvature="0"
         sodipodi:nodetypes="ccccc"
         transform="matrix(0.03234735,0,0,0.02862739,17.806317,-5.3698278)" />
      <path
         style="fill:#000000;fill-rule:evenodd;stroke:#000000;stroke-width:6.67850924;stroke-linecap:butt;stroke-linejoin:miter;stroke-miterlimit:4;stroke-dasharray:none;stroke-opacity:1;filter:url(#filter4291)"
         d="m 413.23061,505.48264 c 0,0 142.69374,-209.93879 242.9272,-271.17431 23.54365,-14.38349 51.05809,-19.16828 71.0889,-14.59468 28.32784,6.46806 50.02615,28.16637 56.49421,56.49422 4.5736,20.03081 -0.21119,47.54524 -14.59468,71.08889 -61.23552,100.23346 -271.17431,242.9272 -271.17431,242.9272 z"
         id="path3342"
         inkscape:connector-curvature="0"
         sodipodi:nodetypes="csssscc"
         transform="matrix(0.03234735,0,0,0.02862739,17.806317,-5.3698278)" />
      <path
         style="fill:#1e720a;fill-opacity:0.40392157;fill-rule:evenodd;stroke:#000000;stroke-width:6.67850924;stroke-linecap:butt;stroke-linejoin:miter;stroke-miterlimit:4;stroke-dasharray:none;stroke-opacity:1;filter:url(#filter4291)"
         d="m -117.64721,1036.3615 -176.0117,176.0117 c -31.9323,31.9324 -57.4375,113.9297 -57.4375,113.9297 l -64.2617,64.2637 28.2461,28.2461 64.2636,-64.2617 c 0,0 81.9973,-25.5051 113.9297,-57.4375 l 260.752003,-260.752 -169.480503,0 z"
         id="path4164"
         inkscape:connector-curvature="0"
         transform="matrix(0.03234735,0,0,0.02862739,17.806317,-5.3698278)" />
      <path
         style="fill:#ffffff;fill-rule:evenodd;stroke:#000000;stroke-width:6.67850924;stroke-linecap:butt;stroke-linejoin:miter;stroke-miterlimit:4;stroke-dasharray:none;stroke-opacity:1;filter:url(#filter4224)"
         d="m -291.32799,1241.8668 c 0,0 -27.88247,53.9776 -41.94113,75.4386 -20.46085,31.2342 -74.61017,81.7818 -74.61017,81.7818 l -8.48528,-9.3137 c 0,0 58.9425,-45.3315 70.46803,-74.4681 l 23.45584,-59.2965 z"
         id="path4170"
         inkscape:connector-curvature="0"
         sodipodi:nodetypes="csccscc"
         transform="matrix(0.03234735,0,0,0.02862739,17.806317,-5.3698278)" />
    </g>
  </g>
  <g
     id="g4266"
     transform="matrix(0.12073127,0,0,0.08157181,50.6459,-81.315217)"
     style="fill:#1e720a;fill-opacity:0.40392157;stroke:#000000;stroke-width:2.22488451;stroke-miterlimit:4;stroke-dasharray:none;stroke-opacity:1">
    <path
       sodipodi:nodetypes="cssssc"
       inkscape:connector-curvature="0"
       id="path4228"
       d="m -388.90873,1461.0699 c 0,0 -33.63021,55.5218 -28.28427,84.8529 1.74256,9.5607 9.6098,18.4508 18.38477,22.6274 6.38474,3.0389 14.728,2.8182 21.21321,0 8.87103,-3.8549 17.85466,-11.7382 19.79899,-21.2132 6.14485,-29.9447 -31.1127,-86.2671 -31.1127,-86.2671 z"
       style="fill:#1e720a;fill-opacity:0.40392157;fill-rule:evenodd;stroke:#000000;stroke-width:2.22488451;stroke-linecap:butt;stroke-linejoin:miter;stroke-miterlimit:4;stroke-dasharray:none;stroke-opacity:1" />
    <path
       transform="matrix(0.65616295,0.07515078,-0.11554994,1.0088996,36.501313,16.896106)"
       sodipodi:nodetypes="cccc"
       inkscape:connector-curvature="0"
       id="path4230"
       d="m -386.08031,1452.5847 -32.52691,70.0243 c 2.46934,19.6566 8.86874,28.8331 22.62742,18.3848 z"
       style="fill:#1e720a;fill-opacity:0.40392157;fill-rule:evenodd;stroke:#000000;stroke-width:2.71673799;stroke-linecap:butt;stroke-linejoin:miter;stroke-miterlimit:4;stroke-dasharray:none;stroke-opacity:1;filter:url(#filter4248)" />
  </g>
</svg>
