<?xml version="1.0" encoding="UTF-8" standalone="no"?>
<svg
   xmlns:dc="http://purl.org/dc/elements/1.1/"
   xmlns:cc="http://creativecommons.org/ns#"
   xmlns:rdf="http://www.w3.org/1999/02/22-rdf-syntax-ns#"
   xmlns:svg="http://www.w3.org/2000/svg"
   xmlns="http://www.w3.org/2000/svg"
   xmlns:sodipodi="http://sodipodi.sourceforge.net/DTD/sodipodi-0.dtd"
   xmlns:inkscape="http://www.inkscape.org/namespaces/inkscape"
   enable-background="new 0 0 32 32"
   height="32px"
   id="Layer_1"
   version="1.1"
   viewBox="0 0 32 32"
   width="32px"
   xml:space="preserve"
   inkscape:version="0.91 r13725"
   sodipodi:docname="user_disconnect.svg"
   inkscape:export-filename="D:\saisie_carhab\resources\img\user_disconnect.png"
   inkscape:export-xdpi="90"
   inkscape:export-ydpi="90"><metadata
     id="metadata13"><rdf:RDF><cc:Work
         rdf:about=""><dc:format>image/svg+xml</dc:format><dc:type
           rdf:resource="http://purl.org/dc/dcmitype/StillImage" /><dc:title></dc:title></cc:Work></rdf:RDF></metadata><defs
     id="defs11" /><sodipodi:namedview
     pagecolor="#ffffff"
     bordercolor="#666666"
     borderopacity="1"
     objecttolerance="10"
     gridtolerance="10"
     guidetolerance="10"
     inkscape:pageopacity="0"
     inkscape:pageshadow="2"
     inkscape:window-width="739"
     inkscape:window-height="480"
     id="namedview9"
     showgrid="false"
     inkscape:zoom="7.375"
     inkscape:cx="26.877876"
     inkscape:cy="7.6319899"
     inkscape:window-x="1604"
     inkscape:window-y="83"
     inkscape:window-maximized="0"
     inkscape:current-layer="Layer_1" /><g
     id="g3"
     style="fill:#000000;fill-opacity:1"
     transform="matrix(1.0936792,0,0,1.0936792,-1.1165271,-0.96972254)"><path
       d="m 22.417,14.836 c -1.209,2.763 -3.846,5.074 -6.403,5.074 -3.122,0 -5.39,-2.284 -6.599,-5.046 -7.031,3.642 -6.145,12.859 -6.145,12.859 0,1.262 0.994,1.445 2.162,1.445 l 10.581,0 10.565,0 c 1.17,0 2.167,-0.184 2.167,-1.445 10e-4,0 0.702,-9.244 -6.328,-12.887 z"
       id="path5"
       style="fill:#000000;fill-opacity:1"
       inkscape:connector-curvature="0" /><path
       d="m 16.013,18.412 c 3.521,0 6.32,-5.04 6.32,-9.204 0,-4.165 -2.854,-7.541 -6.375,-7.541 -3.521,0 -6.376,3.376 -6.376,7.541 0,4.165 2.909,9.204 6.431,9.204 z"
       id="path7"
       style="fill:#000000;fill-opacity:1"
       inkscape:connector-curvature="0" /></g><path
     style="opacity:0.56600001;fill:#000000;fill-opacity:1;stroke:#000000;stroke-width:0.04194429;stroke-linecap:butt;stroke-linejoin:bevel;stroke-miterlimit:4;stroke-dasharray:none;stroke-dashoffset:0;stroke-opacity:1"
     d="M 3.6386839,30.725842 C 2.726642,30.381109 2.5900764,30.025953 2.5900764,27.998804 c 0,-3.268913 0.959737,-6.713771 2.4901784,-8.938191 0.7219174,-1.049272 2.6010305,-2.823506 3.4835993,-3.289169 0.4952442,-0.261303 0.6124628,-0.266191 0.6921016,-0.02885 0.266859,0.795271 1.9782893,2.953263 2.8902033,3.644343 2.056465,1.558459 4.717991,1.890881 6.813446,0.850996 1.383653,-0.686648 3.068165,-2.320087 3.906631,-3.788186 l 0.618552,-1.083043 1.057787,0.712356 c 3.270494,2.20248 5.325233,6.432583 5.657201,11.646516 0.114717,1.801766 0.08596,2.042508 -0.300621,2.516657 l -0.427473,0.524303 -12.759208,0.03911 c -7.0175643,0.0215 -12.9007699,-0.01441 -13.0737901,-0.0798 z"
     id="path4743"
     inkscape:connector-curvature="0" /><path
     style="opacity:0.56600001;fill:none;fill-opacity:1;stroke:none;stroke-width:0.02711864;stroke-linecap:butt;stroke-linejoin:bevel;stroke-miterlimit:4;stroke-dasharray:none;stroke-dashoffset:0;stroke-opacity:1"
     d="M 3.3217539,30.661208 C 2.6677964,30.394709 2.5272949,29.961905 2.5279316,28.2159 2.5299467,22.689906 4.6494117,18.21334 8.3855171,15.843972 l 0.7210501,-0.457276 0.4038605,0.738517 c 1.6247223,2.971036 4.1767973,4.745983 6.8239243,4.745983 2.324301,0 5.021406,-1.861328 6.594308,-4.550869 0.630781,-1.078587 0.541721,-1.085955 2.213736,0.183145 3.184086,2.416796 5.112061,6.952345 5.11532,12.033746 7.41e-4,1.228156 -0.03464,1.404754 -0.356994,1.779546 l -0.357866,0.416082 -12.951653,0.02894 C 9.4677947,30.777694 3.4965426,30.732437 3.3217539,30.661208 Z"
     id="path4751"
     inkscape:connector-curvature="0" /><path
     style="opacity:0.56600001;fill:none;fill-opacity:1;stroke:none;stroke-width:0.02711864;stroke-linecap:butt;stroke-linejoin:bevel;stroke-miterlimit:4;stroke-dasharray:none;stroke-dashoffset:0;stroke-opacity:1"
     d="M 14.970452,18.811326 C 12.566461,17.870774 10.557575,15.080589 9.7270027,11.528581 9.4367607,10.287341 9.4342447,7.9829658 9.7218957,6.8513558 10.324186,4.4819602 11.816898,2.5145812 13.720526,1.5812018 c 0.978971,-0.4800053 1.11934,-0.5074527 2.595171,-0.5074527 1.444061,0 1.633968,0.034939 2.550777,0.4692842 3.024858,1.4330522 4.76989,5.0792887 4.261638,8.9046737 -0.752939,5.667024 -4.70189,9.715674 -8.15766,8.363619 z"
     id="path4753"
     inkscape:connector-curvature="0" /><path
     style="opacity:1;fill:none;fill-opacity:1;stroke:none;stroke-width:0.2;stroke-linecap:butt;stroke-linejoin:bevel;stroke-miterlimit:4;stroke-dasharray:none;stroke-dashoffset:0;stroke-opacity:1"
     d="M 3.3217539,30.661208 C 2.6677964,30.394709 2.5272949,29.961905 2.5279316,28.2159 2.5299467,22.689906 4.6494117,18.21334 8.3855171,15.843972 l 0.7210501,-0.457276 0.4038605,0.738517 c 1.6247223,2.971036 4.1767973,4.745983 6.8239243,4.745983 2.324301,0 5.021406,-1.861328 6.594308,-4.550869 0.630781,-1.078587 0.541721,-1.085955 2.213736,0.183145 3.184086,2.416796 5.112061,6.952345 5.11532,12.033746 7.41e-4,1.228156 -0.03464,1.404754 -0.356994,1.779546 l -0.357866,0.416082 -12.951653,0.02894 C 9.4677947,30.777694 3.4965426,30.732437 3.3217539,30.661208 Z"
     id="path4755"
     inkscape:connector-curvature="0" /><path
     style="opacity:1;fill:#86b37b;fill-opacity:1;stroke:none;stroke-width:0.2;stroke-linecap:butt;stroke-linejoin:bevel;stroke-miterlimit:4;stroke-dasharray:none;stroke-dashoffset:0;stroke-opacity:1"
     d="M 3.3217539,30.661208 C 2.6677964,30.394709 2.5272949,29.961905 2.5279316,28.2159 2.5299467,22.689906 4.6494117,18.21334 8.3855171,15.843972 l 0.7210501,-0.457276 0.4038605,0.738517 c 1.6247223,2.971036 4.1767973,4.745983 6.8239243,4.745983 2.324301,0 5.021406,-1.861328 6.594308,-4.550869 0.630781,-1.078587 0.541721,-1.085955 2.213736,0.183145 3.184086,2.416796 5.112061,6.952345 5.11532,12.033746 7.41e-4,1.228156 -0.03464,1.404754 -0.356994,1.779546 l -0.357866,0.416082 -12.951653,0.02894 C 9.4677947,30.777694 3.4965426,30.732437 3.3217539,30.661208 Z"
     id="path4757"
     inkscape:connector-curvature="0" /><path
     style="opacity:1;fill:#86b37b;fill-opacity:1;stroke:none;stroke-width:0.2;stroke-linecap:butt;stroke-linejoin:bevel;stroke-miterlimit:4;stroke-dasharray:none;stroke-dashoffset:0;stroke-opacity:1"
     d="M 14.970452,18.811326 C 12.566461,17.870774 10.557575,15.080589 9.7270027,11.528581 9.4367607,10.287341 9.4342447,7.9829658 9.7218957,6.8513558 10.324186,4.4819602 11.816898,2.5145812 13.720526,1.5812018 c 0.978971,-0.4800053 1.11934,-0.5074527 2.595171,-0.5074527 1.444061,0 1.633968,0.034939 2.550777,0.4692842 3.024858,1.4330522 4.76989,5.0792887 4.261638,8.9046737 -0.752939,5.667024 -4.70189,9.715674 -8.15766,8.363619 z"
     id="path4759"
     inkscape:connector-curvature="0" /><path
     id="path4089"
     d="m 29.367519,17.347712 c -3.340937,-3.45526 -8.835734,-3.547692 -12.290994,-0.206755 -3.45526,3.340936 -3.547691,8.835733 -0.206753,12.290992 3.340935,3.455259 8.835733,3.54769 12.290991,0.206755 3.45526,-3.340935 3.547691,-8.835733 0.206756,-12.290992 z m -3.481256,10.905213 -2.814917,-2.911241 -2.911241,2.814917 c -0.294064,0.284334 -0.75678,0.276553 -1.041117,-0.01754 L 18.237552,27.22749 c -0.284335,-0.294066 -0.276553,-0.756786 0.01751,-1.041119 l 2.911242,-2.814918 -2.814917,-2.91124 c -0.284337,-0.294066 -0.276552,-0.756783 0.01751,-1.041119 l 0.9116,-0.881437 c 0.294064,-0.284336 0.756782,-0.276555 1.041119,0.01751 l 2.814915,2.91124 2.911242,-2.814916 c 0.294064,-0.284336 0.756785,-0.27655 1.04112,0.01751 l 0.881436,0.911599 c 0.284337,0.294066 0.27655,0.756783 -0.01754,1.041117 l -2.911209,2.814919 2.814917,2.911238 c 0.284336,0.294066 0.276553,0.756786 -0.01754,1.041122 l -0.911602,0.881438 c -0.279362,0.270119 -0.756786,0.276552 -1.041121,-0.01754 z"
     inkscape:connector-curvature="0"
     style="fill:#ff0000;fill-opacity:1" /></svg>